<svg width="46" height="45" viewBox="0 0 46 45" fill="none" xmlns="http://www.w3.org/2000/svg">
<g id="Icon/Award">
<path id="Vector" fill-rule="evenodd" clip-rule="evenodd" d="M23.375 2.20986e-07C27.1123 -9.46928e-07 30.7574 1.16081 33.8065 3.32202C36.8555 5.48323 39.158 8.53812 40.3958 12.0645C41.6336 15.5909 41.7455 19.4147 40.7161 23.0075C39.6867 26.6002 37.5667 29.7846 34.6493 32.1204V42.5153C34.6493 42.916 34.5522 43.3107 34.3663 43.6657C34.1804 44.0207 33.9113 44.3254 33.5819 44.5537C33.2526 44.782 32.8728 44.927 32.4752 44.9765C32.0775 45.026 31.6738 44.9784 31.2986 44.8378L23.375 41.8704L15.4515 44.8423C15.0761 44.983 14.6721 45.0305 14.2743 44.981C13.8765 44.9314 13.4966 44.7861 13.1672 44.5575C12.8378 44.329 12.5687 44.024 12.383 43.6687C12.1973 43.3134 12.1004 42.9184 12.1008 42.5175V32.1226C9.18241 29.7871 7.06168 26.6026 6.03171 23.0094C5.00174 19.4162 5.11342 15.5918 6.35129 12.0649C7.58916 8.53795 9.8921 5.48264 12.9418 3.32132C15.9914 1.16 19.6372 -0.0005847 23.375 2.20986e-07ZM30.1396 34.7676C27.9902 35.6361 25.6932 36.0809 23.375 36.0777C21.0568 36.0809 18.7598 35.6361 16.6105 34.7676V39.5885L21.7921 37.6448C22.8127 37.2622 23.9373 37.2622 24.9579 37.6448L30.1396 39.5885V34.7676ZM23.375 4.50971C19.7869 4.50971 16.3457 5.93509 13.8085 8.4723C11.2713 11.0095 9.84591 14.4507 9.84591 18.0388C9.84591 21.627 11.2713 25.0682 13.8085 27.6054C16.3457 30.1426 19.7869 31.5679 23.375 31.5679C26.9632 31.5679 30.4044 30.1426 32.9416 27.6054C35.4788 25.0682 36.9041 21.627 36.9041 18.0388C36.9041 14.4507 35.4788 11.0095 32.9416 8.4723C30.4044 5.93509 26.9632 4.50971 23.375 4.50971ZM23.375 9.01941C25.7671 9.01941 28.0612 9.96967 29.7527 11.6611C31.4442 13.3526 32.3944 15.6467 32.3944 18.0388C32.3944 20.4309 31.4442 22.725 29.7527 24.4165C28.0612 26.108 25.7671 27.0582 23.375 27.0582C20.9829 27.0582 18.6888 26.108 16.9973 24.4165C15.3059 22.725 14.3556 20.4309 14.3556 18.0388C14.3556 15.6467 15.3059 13.3526 16.9973 11.6611C18.6888 9.96967 20.9829 9.01941 23.375 9.01941ZM23.375 13.5291C22.179 13.5291 21.0319 14.0043 20.1862 14.85C19.3404 15.6957 18.8653 16.8428 18.8653 18.0388C18.8653 19.2349 19.3404 20.3819 20.1862 21.2277C21.0319 22.0734 22.179 22.5485 23.375 22.5485C24.5711 22.5485 25.7181 22.0734 26.5639 21.2277C27.4096 20.3819 27.8847 19.2349 27.8847 18.0388C27.8847 16.8428 27.4096 15.6957 26.5639 14.85C25.7181 14.0043 24.5711 13.5291 23.375 13.5291Z" fill="white"/>
</g>
</svg>
