<svg width="46" height="45" viewBox="0 0 46 45" fill="none" xmlns="http://www.w3.org/2000/svg">
<g id="Icon/Calendar" clip-path="url(#clip0_246_156)">
<path id="Vector" fill-rule="evenodd" clip-rule="evenodd" d="M33 0C33.663 0 34.2989 0.263392 34.7678 0.732233C35.2366 1.20107 35.5 1.83696 35.5 2.5V5H40.5C41.8261 5 43.0979 5.52678 44.0355 6.46447C44.9732 7.40215 45.5 8.67392 45.5 10V40C45.5 41.3261 44.9732 42.5979 44.0355 43.5355C43.0979 44.4732 41.8261 45 40.5 45H5.5C4.17392 45 2.90215 44.4732 1.96447 43.5355C1.02678 42.5979 0.5 41.3261 0.5 40V10C0.5 8.67392 1.02678 7.40215 1.96447 6.46447C2.90215 5.52678 4.17392 5 5.5 5H10.5V2.5C10.5 1.83696 10.7634 1.20107 11.2322 0.732233C11.7011 0.263392 12.337 0 13 0C13.663 0 14.2989 0.263392 14.7678 0.732233C15.2366 1.20107 15.5 1.83696 15.5 2.5V5H30.5V2.5C30.5 1.83696 30.7634 1.20107 31.2322 0.732233C31.7011 0.263392 32.337 0 33 0ZM13 10H5.5V15H40.5V10H33H13ZM5.5 20V40H40.5V20H5.5ZM10.5 25C10.5 24.337 10.7634 23.7011 11.2322 23.2322C11.7011 22.7634 12.337 22.5 13 22.5H13.025C13.688 22.5 14.3239 22.7634 14.7928 23.2322C15.2616 23.7011 15.525 24.337 15.525 25C15.525 25.663 15.2616 26.2989 14.7928 26.7678C14.3239 27.2366 13.688 27.5 13.025 27.5H13C12.337 27.5 11.7011 27.2366 11.2322 26.7678C10.7634 26.2989 10.5 25.663 10.5 25ZM13 30C12.337 30 11.7011 30.2634 11.2322 30.7322C10.7634 31.2011 10.5 31.837 10.5 32.5C10.5 33.163 10.7634 33.7989 11.2322 34.2678C11.7011 34.7366 12.337 35 13 35H13.025C13.688 35 14.3239 34.7366 14.7928 34.2678C15.2616 33.7989 15.525 33.163 15.525 32.5C15.525 31.837 15.2616 31.2011 14.7928 30.7322C14.3239 30.2634 13.688 30 13.025 30H13ZM20.5 25C20.5 24.337 20.7634 23.7011 21.2322 23.2322C21.7011 22.7634 22.337 22.5 23 22.5H23.025C23.688 22.5 24.3239 22.7634 24.7928 23.2322C25.2616 23.7011 25.525 24.337 25.525 25C25.525 25.663 25.2616 26.2989 24.7928 26.7678C24.3239 27.2366 23.688 27.5 23.025 27.5H23C22.337 27.5 21.7011 27.2366 21.2322 26.7678C20.7634 26.2989 20.5 25.663 20.5 25ZM23 30C22.337 30 21.7011 30.2634 21.2322 30.7322C20.7634 31.2011 20.5 31.837 20.5 32.5C20.5 33.163 20.7634 33.7989 21.2322 34.2678C21.7011 34.7366 22.337 35 23 35H23.025C23.688 35 24.3239 34.7366 24.7928 34.2678C25.2616 33.7989 25.525 33.163 25.525 32.5C25.525 31.837 25.2616 31.2011 24.7928 30.7322C24.3239 30.2634 23.688 30 23.025 30H23ZM30.5 25C30.5 24.337 30.7634 23.7011 31.2322 23.2322C31.7011 22.7634 32.337 22.5 33 22.5H33.025C33.688 22.5 34.3239 22.7634 34.7928 23.2322C35.2616 23.7011 35.525 24.337 35.525 25C35.525 25.663 35.2616 26.2989 34.7928 26.7678C34.3239 27.2366 33.688 27.5 33.025 27.5H33C32.337 27.5 31.7011 27.2366 31.2322 26.7678C30.7634 26.2989 30.5 25.663 30.5 25ZM33 30C32.337 30 31.7011 30.2634 31.2322 30.7322C30.7634 31.2011 30.5 31.837 30.5 32.5C30.5 33.163 30.7634 33.7989 31.2322 34.2678C31.7011 34.7366 32.337 35 33 35H33.025C33.688 35 34.3239 34.7366 34.7928 34.2678C35.2616 33.7989 35.525 33.163 35.525 32.5C35.525 31.837 35.2616 31.2011 34.7928 30.7322C34.3239 30.2634 33.688 30 33.025 30H33Z" fill="white"/>
</g>
<defs>
<clipPath id="clip0_246_156">
<rect width="45" height="45" fill="white" transform="translate(0.5)"/>
</clipPath>
</defs>
</svg>
