<svg width="46" height="45" viewBox="0 0 46 45" fill="none" xmlns="http://www.w3.org/2000/svg">
<g id="Icon/Card-in-hand" clip-path="url(#clip0_246_199)">
<path id="Vector" fill-rule="evenodd" clip-rule="evenodd" d="M18.5166 4.5C17.3238 4.5 16.1799 4.97381 15.3366 5.81721C14.4932 6.66061 14.0193 7.8045 14.0193 8.99724V11.3425C11.5688 11.667 9.29356 12.79 7.54557 14.5378L1.18648 20.8992C0.971711 21.1066 0.800406 21.3547 0.682558 21.6291C0.56471 21.9034 0.502679 22.1985 0.500085 22.497C0.49749 22.7956 0.554384 23.0917 0.667447 23.3681C0.780509 23.6444 0.947476 23.8955 1.15861 24.1066C1.36973 24.3177 1.6208 24.4847 1.89714 24.5977C2.17349 24.7108 2.46959 24.7677 2.76816 24.7651C3.06673 24.7625 3.36179 24.7005 3.63613 24.5826C3.91047 24.4648 4.1586 24.2935 4.36602 24.0787L10.7274 17.7219C11.6306 16.8173 12.7722 16.188 14.0193 15.9072V24.1057L12.614 25.23C12.1482 25.6027 11.8496 26.1452 11.7838 26.7381C11.718 27.331 11.8904 27.9258 12.2632 28.3916C12.6359 28.8573 13.1784 29.156 13.7713 29.2217C14.3642 29.2875 14.959 29.1151 15.4247 28.7424L21.9525 23.5188C22.8169 22.8273 23.906 22.4789 25.0112 22.5403C26.1165 22.6017 27.1603 23.0686 27.9428 23.8516L28.5859 24.4947L13.8687 35.5309C13.4795 35.8229 13.006 35.9807 12.5195 35.9807H2.77625C2.17988 35.9807 1.60793 36.2176 1.18624 36.6393C0.764539 37.061 0.527631 37.6329 0.527631 38.2293C0.527631 38.8256 0.764539 39.3976 1.18624 39.8193C1.60793 40.241 2.17988 40.4779 2.77625 40.4779H12.5195C13.9791 40.4779 15.3993 40.0045 16.567 39.1287L29.7597 29.2348H41.0028C42.1955 29.2348 43.3394 28.761 44.1828 27.9176C45.0262 27.0742 45.5 25.9303 45.5 24.7376V8.99724C45.5 7.8045 45.0262 6.66061 44.1828 5.81721C43.3394 4.97381 42.1955 4.5 41.0028 4.5H18.5166ZM18.5166 20.5102L19.1439 20.0087C20.8723 18.6261 23.0499 17.9293 25.2599 18.0517C27.4699 18.1741 29.5572 19.107 31.1223 20.6721L31.7654 21.3152C32.7121 22.2618 33.1416 23.5143 33.0764 24.7376H41.0028V15.7431H18.5166V20.5102ZM41.0028 11.2459V8.99724H18.5166V11.2459H41.0028Z" fill="white"/>
</g>
<defs>
<clipPath id="clip0_246_199">
<rect width="45" height="45" fill="white" transform="translate(0.5)"/>
</clipPath>
</defs>
</svg>
