<svg width="46" height="45" viewBox="0 0 46 45" fill="none" xmlns="http://www.w3.org/2000/svg">
<g id="Icon/Certification" clip-path="url(#clip0_96_268)">
<path id="Vector" d="M36.4996 15.7498C38.2317 15.7498 39.9271 16.2495 41.3822 17.1891C42.8373 18.1287 43.9904 19.4682 44.703 21.047C45.4156 22.6257 45.6576 24.3765 45.3997 26.0893C45.1419 27.8022 44.3953 29.4042 43.2495 30.7032V40.1351C43.2496 40.557 43.1418 40.9719 42.9364 41.3405C42.7309 41.709 42.4347 42.0189 42.0758 42.2407C41.7169 42.4626 41.3073 42.589 40.8858 42.6079C40.4643 42.6269 40.0449 42.5378 39.6676 42.3491L36.4996 40.7651L33.3316 42.3491C32.9543 42.5378 32.5349 42.6269 32.1134 42.6079C31.6919 42.589 31.2823 42.4626 30.9234 42.2407C30.5645 42.0189 30.2683 41.709 30.0628 41.3405C29.8574 40.9719 29.7496 40.557 29.7497 40.1351V30.7032C28.6039 29.4042 27.8573 27.8022 27.5995 26.0893C27.3416 24.3765 27.5836 22.6257 28.2962 21.047C29.0088 19.4682 30.1619 18.1287 31.617 17.1891C33.0721 16.2495 34.7675 15.7498 36.4996 15.7498ZM40.9996 2.25C42.193 2.25 43.3376 2.7241 44.1815 3.568C45.0254 4.41191 45.4995 5.55649 45.4995 6.74995V11.2499C45.4995 11.8466 45.2625 12.4189 44.8405 12.8409C44.4186 13.2628 43.8463 13.4999 43.2495 13.4999C42.6528 13.4999 42.0805 13.2628 41.6586 12.8409C41.2366 12.4189 40.9996 11.8466 40.9996 11.2499V6.74995H4.99995V33.7496H22.9998C23.5965 33.7496 24.1688 33.9867 24.5907 34.4086C25.0127 34.8306 25.2497 35.4029 25.2497 35.9996C25.2497 36.5964 25.0127 37.1686 24.5907 37.5906C24.1688 38.0126 23.5965 38.2496 22.9998 38.2496H4.99995C3.80649 38.2496 2.66191 37.7755 1.818 36.9316C0.9741 36.0877 0.5 34.9431 0.5 33.7496V6.74995C0.5 5.55649 0.9741 4.41191 1.818 3.568C2.66191 2.7241 3.80649 2.25 4.99995 2.25H40.9996ZM38.7496 33.4662C37.2737 33.8462 35.7255 33.8462 34.2496 33.4662V36.8591L35.4939 36.2381C35.8062 36.0821 36.1505 36.0008 36.4996 36.0008C36.8487 36.0008 37.193 36.0821 37.5053 36.2381L38.7496 36.8591V33.4662ZM36.4996 20.2498C35.3061 20.2498 34.1616 20.7239 33.3177 21.5678C32.4738 22.4117 31.9997 23.5563 31.9997 24.7498C31.9997 25.9432 32.4738 27.0878 33.3177 27.9317C34.1616 28.7756 35.3061 29.2497 36.4996 29.2497C37.6931 29.2497 38.8376 28.7756 39.6815 27.9317C40.5255 27.0878 40.9996 25.9432 40.9996 24.7498C40.9996 23.5563 40.5255 22.4117 39.6815 21.5678C38.8376 20.7239 37.6931 20.2498 36.4996 20.2498ZM16.2498 22.4998C16.8233 22.5004 17.3749 22.72 17.7919 23.1137C18.2089 23.5074 18.4598 24.0454 18.4934 24.6179C18.527 25.1904 18.3408 25.7541 17.9727 26.1939C17.6046 26.6336 17.0825 26.9162 16.5131 26.984L16.2498 26.9997H11.7499C11.1764 26.9991 10.6248 26.7795 10.2078 26.3858C9.79081 25.9921 9.53987 25.4541 9.50626 24.8816C9.47266 24.3091 9.65892 23.7454 10.027 23.3056C10.3951 22.8659 10.9172 22.5833 11.4866 22.5155L11.7499 22.4998H16.2498ZM25.2497 13.4999C25.8465 13.4999 26.4187 13.7369 26.8407 14.1589C27.2627 14.5808 27.4997 15.1531 27.4997 15.7498C27.4997 16.3466 27.2627 16.9189 26.8407 17.3408C26.4187 17.7628 25.8465 17.9998 25.2497 17.9998H11.7499C11.1531 17.9998 10.5809 17.7628 10.1589 17.3408C9.73695 16.9189 9.4999 16.3466 9.4999 15.7498C9.4999 15.1531 9.73695 14.5808 10.1589 14.1589C10.5809 13.7369 11.1531 13.4999 11.7499 13.4999H25.2497Z" fill="white"/>
</g>
<defs>
<clipPath id="clip0_96_268">
<rect width="45" height="45" fill="white" transform="translate(0.5)"/>
</clipPath>
</defs>
</svg>
