<svg width="46" height="45" viewBox="0 0 46 45" fill="none" xmlns="http://www.w3.org/2000/svg">
<g id="Icon/House" clip-path="url(#clip0_246_291)">
<path id="Vector" d="M19.9039 2.44822C20.642 1.87402 21.5407 1.54402 22.4749 1.5041C23.4092 1.46418 24.3327 1.71632 25.1171 2.22547L25.4298 2.45047L44.2935 17.1202C45.9157 18.3824 45.126 20.9271 43.1708 21.1364L42.9098 21.1499H40.6666V39.1496C40.6669 40.2848 40.2382 41.3783 39.4662 42.2107C38.6943 43.0432 37.6362 43.5531 36.5041 43.6382L36.1667 43.6495H9.16713C8.03225 43.6493 6.93935 43.2203 6.10738 42.4484C5.27541 41.6765 4.76583 40.6188 4.68071 39.4871L4.66721 39.1496V21.1499H2.424C0.36979 21.1499 -0.572944 18.6569 0.842281 17.2912L1.04028 17.1202L19.9039 2.44822ZM22.6669 6.00091L8.3234 17.1562C8.83864 17.5725 9.16713 18.2092 9.16713 18.9224V39.1496H15.917V27.8998C15.917 26.1096 16.6282 24.3927 17.894 23.1269C19.1599 21.861 20.8767 21.1499 22.6669 21.1499C24.4571 21.1499 26.1739 21.861 27.4398 23.1269C28.7056 24.3927 29.4168 26.1096 29.4168 27.8998V39.1496H36.1667V18.9224C36.1667 18.2092 36.4952 17.5725 37.0104 17.1562L22.6669 6.00091ZM22.6669 25.6498C22.0702 25.6498 21.4979 25.8869 21.0759 26.3088C20.654 26.7308 20.4169 27.303 20.4169 27.8998V39.1496H24.9169V27.8998C24.9169 27.303 24.6798 26.7308 24.2579 26.3088C23.8359 25.8869 23.2636 25.6498 22.6669 25.6498Z" fill="white"/>
</g>
<defs>
<clipPath id="clip0_246_291">
<rect width="45" height="45" fill="white" transform="translate(0.166748)"/>
</clipPath>
</defs>
</svg>
