<svg width="60" height="60" viewBox="0 0 60 60" fill="none" xmlns="http://www.w3.org/2000/svg">
<g clip-path="url(#clip0_96_127)">
<path d="M4.23047 9.03516C2.21484 9.43359 0.503906 11.168 0.117187 13.2305C-0.046875 14.0977 -0.046875 45.9023 0.117187 46.7695C0.515625 48.8789 2.21484 50.5781 4.32422 50.9766C5.19141 51.1406 54.8086 51.1406 55.6758 50.9766C57.7852 50.5781 59.4844 48.8789 59.8828 46.7695C60.0469 45.9023 60.0469 14.0977 59.8828 13.2305C59.4844 11.1211 57.7852 9.42188 55.6758 9.02344C54.8906 8.88281 4.99219 8.88281 4.23047 9.03516ZM43.6523 22.6875C36.6211 29.6836 33.1406 33.0703 32.6953 33.3398C31.0547 34.3359 28.9453 34.3359 27.3047 33.3398C26.8594 33.0703 23.3789 29.6836 16.3477 22.6875L6.03516 12.4336H30H53.9648L43.6523 22.6875ZM14.0039 25.3008L18.6914 30L12.832 35.8711C9.60937 39.0938 6.19922 42.4805 5.25 43.3828L3.51562 45.0234V30V14.9766L6.42187 17.7891C8.01562 19.3359 11.4258 22.7227 14.0039 25.3008ZM56.4609 37.5234L56.4258 45.0586L48.8672 37.5234L41.3086 30L48.8672 22.4766L56.4258 14.9531L56.4609 22.4766C56.4727 26.6133 56.4727 33.3867 56.4609 37.5234ZM22.4414 33.7617C24.5625 35.8945 25.793 36.75 27.5391 37.2891C28.2773 37.5117 28.6758 37.5586 30 37.5586C31.8047 37.5586 32.7422 37.3359 34.1016 36.5977C35.1094 36.0586 35.6367 35.6133 37.3477 33.9492L38.7773 32.543L41.5664 35.25C43.1016 36.7383 46.5117 40.1133 49.1602 42.7617L53.9648 47.5781H30L6.03516 47.5664L13.5703 40.0781C17.7187 35.9531 21.1406 32.5781 21.1875 32.5781C21.2344 32.5781 21.7969 33.1055 22.4414 33.7617Z" fill="#171717"/>
</g>
<defs>
<clipPath id="clip0_96_127">
<rect width="60" height="60" fill="white"/>
</clipPath>
</defs>
</svg>
