<svg width="20" height="20" viewBox="0 0 20 20" fill="none" xmlns="http://www.w3.org/2000/svg">
<path d="M10.7367 1.75243C10.7367 1.55319 10.8158 1.36211 10.9567 1.22123C11.0976 1.08035 11.2887 1.0012 11.4879 1.0012C13.4796 1.00339 15.3891 1.79557 16.7975 3.20393C18.2059 4.61229 18.998 6.52181 19.0002 8.51354C19.0002 8.71278 18.9211 8.90386 18.7802 9.04474C18.6393 9.18563 18.4482 9.26477 18.249 9.26477C18.0498 9.26477 17.8587 9.18563 17.7178 9.04474C17.5769 8.90386 17.4978 8.71278 17.4978 8.51354C17.496 6.92017 16.8622 5.39258 15.7355 4.26589C14.6089 3.13921 13.0813 2.50546 11.4879 2.50367C11.2887 2.50367 11.0976 2.42452 10.9567 2.28364C10.8158 2.14275 10.7367 1.95167 10.7367 1.75243V1.75243ZM11.4879 5.5086C12.2849 5.5086 13.0492 5.82519 13.6127 6.38873C14.1762 6.95226 14.4928 7.71658 14.4928 8.51354C14.4928 8.71278 14.572 8.90386 14.7129 9.04474C14.8538 9.18563 15.0448 9.26477 15.2441 9.26477C15.4433 9.26477 15.6344 9.18563 15.7753 9.04474C15.9162 8.90386 15.9953 8.71278 15.9953 8.51354C15.9941 7.31847 15.5188 6.17269 14.6738 5.32764C13.8288 4.4826 12.683 4.00733 11.4879 4.00614C11.2887 4.00614 11.0976 4.08528 10.9567 4.22617C10.8158 4.36705 10.7367 4.55813 10.7367 4.75737C10.7367 4.95661 10.8158 5.14769 10.9567 5.28857C11.0976 5.42946 11.2887 5.5086 11.4879 5.5086V5.5086ZM18.3189 13.5761C18.7542 14.0127 18.9987 14.604 18.9987 15.2206C18.9987 15.8371 18.7542 16.4285 18.3189 16.865L17.6352 17.6531C11.4826 23.5435 -3.48943 8.57514 2.31009 2.403L3.17401 1.65177C3.61105 1.22858 4.19714 0.994475 4.80547 1.0001C5.41379 1.00572 5.99545 1.25062 6.4246 1.68182C6.44788 1.70511 7.83992 3.51333 7.83992 3.51333C8.25297 3.94726 8.4829 4.52368 8.48192 5.12277C8.48094 5.72186 8.24913 6.29753 7.83466 6.73011L6.96473 7.82391C7.44616 8.99366 8.15398 10.0568 9.04753 10.9521C9.94108 11.8475 11.0027 12.5574 12.1715 13.0412L13.2721 12.166C13.7047 11.7519 14.2803 11.5203 14.8792 11.5195C15.4781 11.5187 16.0543 11.7486 16.4881 12.1615C16.4881 12.1615 18.2956 13.5528 18.3189 13.5761ZM17.2852 14.6684C17.2852 14.6684 15.4875 13.2854 15.4642 13.2621C15.3094 13.1086 15.1003 13.0225 14.8824 13.0225C14.6644 13.0225 14.4553 13.1086 14.3005 13.2621C14.2802 13.2831 12.765 14.4904 12.765 14.4904C12.6629 14.5716 12.5414 14.6249 12.4124 14.6449C12.2834 14.665 12.1515 14.651 12.0295 14.6045C10.5154 14.0408 9.14011 13.1582 7.9968 12.0166C6.8535 10.875 5.9689 9.50099 5.40292 7.98768C5.35274 7.86406 5.33637 7.72932 5.35552 7.59729C5.37466 7.46526 5.42862 7.34071 5.51185 7.23644C5.51185 7.23644 6.71908 5.72045 6.73936 5.70092C6.89282 5.54615 6.97892 5.33703 6.97892 5.11909C6.97892 4.90114 6.89282 4.69202 6.73936 4.53726C6.71607 4.51472 5.33305 2.71552 5.33305 2.71552C5.17597 2.57466 4.97096 2.49923 4.76005 2.50468C4.54914 2.51013 4.3483 2.59604 4.19869 2.74481L3.33477 3.49605C-0.903682 8.59242 12.0709 20.8473 16.5369 16.6269L17.2213 15.8381C17.3817 15.6895 17.478 15.4844 17.4899 15.2662C17.5018 15.0479 17.4284 14.8335 17.2852 14.6684V14.6684Z" fill="white"/>
</svg>
