<svg width="46" height="45" viewBox="0 0 46 45" fill="none" xmlns="http://www.w3.org/2000/svg">
<g id="Icon/Thumb-up" clip-path="url(#clip0_246_100)">
<path id="Vector" fill-rule="evenodd" clip-rule="evenodd" d="M17.4466 2.76199C18.1495 1.12357 19.9636 -0.36288 22.2527 0.0787816C25.7527 0.750772 29.4688 3.40549 29.73 7.7105L29.7443 8.1949V14.1312H35.455C36.807 14.1311 38.1435 14.4197 39.375 14.9777C40.6066 15.5356 41.7048 16.35 42.5963 17.3665C43.4878 18.383 44.152 19.5781 44.5445 20.8718C44.937 22.1656 45.0488 23.5283 44.8724 24.8688L44.8011 25.3295L42.6403 37.2021C42.2572 39.3107 41.1722 41.2279 39.5616 42.6419C37.9511 44.0558 35.9096 44.8836 33.7691 44.9905L33.2966 45H8.37357C6.55656 45.0001 4.80819 44.3059 3.48618 43.0593C2.16417 41.8128 1.36847 40.1082 1.26187 38.2944L1.25 37.8764V23.6293C1.2499 21.8123 1.94413 20.0639 3.19066 18.7419C4.43718 17.4199 6.14177 16.6242 7.95565 16.5176L8.37357 16.5057H11.5554L17.4466 2.76199ZM10.7481 21.2548H8.37357C7.74381 21.2548 7.13984 21.5049 6.69453 21.9503C6.24922 22.3956 5.99905 22.9995 5.99905 23.6293V37.8764C5.99905 38.5062 6.24922 39.1102 6.69453 39.5555C7.13984 40.0008 7.74381 40.251 8.37357 40.251H10.7481V21.2548ZM21.7303 4.82308L15.6895 18.9206C15.6051 19.117 15.5476 19.3239 15.5185 19.5356L15.4971 19.8538V40.251H33.2966C34.3436 40.251 35.3613 39.9051 36.1914 39.267C37.0215 38.6288 37.6174 37.7343 37.8865 36.7224L37.9696 36.352L40.1304 24.4794C40.2498 23.824 40.23 23.1508 40.0723 22.5036C39.9145 21.8564 39.6223 21.2496 39.2148 20.7227C38.8072 20.1957 38.2933 19.7604 37.7065 19.4451C37.1197 19.1297 36.4732 18.9413 35.8088 18.8921L35.455 18.8803H29.7443C28.5461 18.8806 27.3921 18.4281 26.5136 17.6135C25.6351 16.7988 25.097 15.6821 25.0071 14.4874L24.9952 14.1312V8.1949C24.9952 6.88179 23.9647 5.54493 22.1339 4.9418L21.7303 4.82308Z" fill="white"/>
</g>
<defs>
<clipPath id="clip0_246_100">
<rect width="45" height="45" fill="white" transform="translate(0.5)"/>
</clipPath>
</defs>
</svg>
