<svg width="46" height="45" viewBox="0 0 46 45" fill="none" xmlns="http://www.w3.org/2000/svg">
<g id="Icon/Truck">
<path id="Vector" d="M29.4167 4.5C30.6102 4.5 31.7548 4.97411 32.5987 5.81802C33.4426 6.66193 33.9167 7.80653 33.9167 9V11.25H37.3367C38.0112 11.2501 38.6771 11.4018 39.285 11.6939C39.8929 11.986 40.4274 12.411 40.849 12.9375L44.179 17.1022C44.8182 17.9003 45.1666 18.8923 45.1667 19.9147V29.25C45.1667 30.4435 44.6926 31.5881 43.8487 32.432C43.0048 33.2759 41.8602 33.75 40.6667 33.75C40.6667 35.5402 39.9556 37.2571 38.6897 38.523C37.4238 39.7888 35.707 40.5 33.9167 40.5C32.1265 40.5 30.4096 39.7888 29.1438 38.523C27.8779 37.2571 27.1667 35.5402 27.1667 33.75H18.1667C18.1667 34.6364 17.9922 35.5142 17.6529 36.3331C17.3137 37.1521 16.8165 37.8962 16.1897 38.523C15.5629 39.1498 14.8188 39.647 13.9999 39.9862C13.1809 40.3254 12.3032 40.5 11.4167 40.5C10.5303 40.5 9.65258 40.3254 8.83363 39.9862C8.01469 39.647 7.27057 39.1498 6.64378 38.523C6.01698 37.8962 5.51978 37.1521 5.18056 36.3331C4.84134 35.5142 4.66675 34.6364 4.66675 33.75C3.47327 33.75 2.32868 33.2759 1.48477 32.432C0.640854 31.5881 0.166748 30.4435 0.166748 29.25V9C0.166748 7.80653 0.640854 6.66193 1.48477 5.81802C2.32868 4.97411 3.47327 4.5 4.66675 4.5H29.4167ZM11.4167 31.5C10.82 31.5 10.2477 31.7371 9.82576 32.159C9.4038 32.581 9.16675 33.1533 9.16675 33.75C9.16675 34.3467 9.4038 34.919 9.82576 35.341C10.2477 35.7629 10.82 36 11.4167 36C12.0135 36 12.5858 35.7629 13.0077 35.341C13.4297 34.919 13.6667 34.3467 13.6667 33.75C13.6667 33.1533 13.4297 32.581 13.0077 32.159C12.5858 31.7371 12.0135 31.5 11.4167 31.5ZM33.9167 31.5C33.32 31.5 32.7477 31.7371 32.3258 32.159C31.9038 32.581 31.6667 33.1533 31.6667 33.75C31.6667 34.3467 31.9038 34.919 32.3258 35.341C32.7477 35.7629 33.32 36 33.9167 36C34.5135 36 35.0858 35.7629 35.5077 35.341C35.9297 34.919 36.1667 34.3467 36.1667 33.75C36.1667 33.1533 35.9297 32.581 35.5077 32.159C35.0858 31.7371 34.5135 31.5 33.9167 31.5ZM29.4167 9H4.66675V29.25H6.38575C7.62325 27.8685 9.41875 27 11.4167 27C13.2617 27 14.9335 27.7425 16.153 28.9395L16.4477 29.25H28.8857L29.1445 28.9777L29.4167 28.719V9ZM37.3367 15.75H33.9167V27C35.7617 27 37.4335 27.7425 38.653 28.9395L38.9477 29.25H40.6667V19.9125L37.3367 15.75Z" fill="white"/>
</g>
</svg>
