<svg width="46" height="45" viewBox="0 0 46 45" fill="none" xmlns="http://www.w3.org/2000/svg">
<g id="Icon/Users">
<path id="Vector" fill-rule="evenodd" clip-rule="evenodd" d="M23.3334 23.6591C27.1643 23.6591 30.6371 24.9265 33.1814 26.7007C35.6022 28.3888 37.6516 30.8961 37.6516 33.5941C37.6516 35.0758 37.0203 36.3022 36.0244 37.216C35.0874 38.0757 33.864 38.633 32.604 39.0143C30.0854 39.7767 26.7704 40.0227 23.3334 40.0227C19.8964 40.0227 16.5814 39.7767 14.0627 39.0143C12.8027 38.633 11.5793 38.0757 10.6423 37.216C9.64644 36.3022 9.01519 35.0758 9.01519 33.5941C9.01519 30.8961 11.0646 28.3888 13.4852 26.7007C16.0296 24.9265 19.5024 23.6591 23.3334 23.6591ZM23.3334 27.75C20.3863 27.75 17.7228 28.733 15.8252 30.0562C13.8041 31.4658 13.1061 32.9033 13.1061 33.5941C13.1061 34.2156 13.8262 34.6051 14.4814 34.8501L14.9 34.993L15.2478 35.0989C17.171 35.6808 19.9923 35.9318 23.3334 35.9318C26.4174 35.9318 29.0586 35.718 30.9594 35.2274L31.5808 35.0502L31.9704 34.9265C32.6717 34.6887 33.5606 34.2846 33.5606 33.5941C33.5606 32.9033 32.8627 31.4658 30.8414 30.0562C28.9441 28.733 26.2805 27.75 23.3334 27.75ZM37.6516 25.7045C39.788 25.7045 41.7267 26.4092 43.1606 27.4092C44.4709 28.3229 45.8334 29.8439 45.8334 31.6949C45.8334 34.427 43.1808 35.4038 40.7957 35.7452L40.1815 35.8206L39.591 35.8716C39.4952 35.8783 39.4008 35.8841 39.3082 35.8893C39.5583 35.184 39.697 34.4163 39.697 33.5941C39.697 32.9692 39.6193 32.3629 39.4775 31.7783C40.2683 31.7178 40.9165 31.6141 41.3982 31.4682C41.6107 31.4039 41.4174 31.2034 41.1944 31.0293L40.9756 30.8702L40.8206 30.7648C40.28 30.3878 39.578 30.0714 38.7854 29.9102C38.0064 28.3559 36.8127 27.0091 35.5404 25.9357C36.2128 25.787 36.9205 25.7045 37.6516 25.7045ZM9.01519 25.7045C9.74614 25.7045 10.454 25.787 11.1263 25.9357C9.85405 27.0091 8.66022 28.3559 7.88134 29.9102C7.08878 30.0714 6.3867 30.3878 5.84615 30.7648L5.58449 30.9453C5.32513 31.1328 5.02074 31.3932 5.26864 31.4682C5.7502 31.6141 6.39836 31.7178 7.18915 31.7783C7.04742 32.3629 6.96974 32.9692 6.96974 33.5941C6.96974 34.4163 7.10848 35.184 7.35852 35.8893L6.78412 35.8488L6.18031 35.7862C3.7216 35.4854 0.833374 34.5458 0.833374 31.6949C0.833374 29.8439 2.19589 28.3229 3.50611 27.4092C4.93999 26.4092 6.87874 25.7045 9.01519 25.7045ZM36.6288 13.4318C39.453 13.4318 41.7425 15.7213 41.7425 18.5455C41.7425 21.3696 39.453 23.6591 36.6288 23.6591C33.8047 23.6591 31.5152 21.3696 31.5152 18.5455C31.5152 15.7213 33.8047 13.4318 36.6288 13.4318ZM10.0379 13.4318C12.8621 13.4318 15.1516 15.7213 15.1516 18.5455C15.1516 21.3696 12.8621 23.6591 10.0379 23.6591C7.21374 23.6591 4.92428 21.3696 4.92428 18.5455C4.92428 15.7213 7.21374 13.4318 10.0379 13.4318ZM23.3334 5.25C27.852 5.25 31.5152 8.91312 31.5152 13.4318C31.5152 17.9505 27.852 21.6136 23.3334 21.6136C18.8147 21.6136 15.1516 17.9505 15.1516 13.4318C15.1516 8.91312 18.8147 5.25 23.3334 5.25ZM36.6288 17.5227C36.0641 17.5227 35.6061 17.9806 35.6061 18.5455C35.6061 19.1103 36.0641 19.5682 36.6288 19.5682C37.1936 19.5682 37.6516 19.1103 37.6516 18.5455C37.6516 17.9806 37.1936 17.5227 36.6288 17.5227ZM10.0379 17.5227C9.47309 17.5227 9.01519 17.9806 9.01519 18.5455C9.01519 19.1103 9.47309 19.5682 10.0379 19.5682C10.6028 19.5682 11.0606 19.1103 11.0606 18.5455C11.0606 17.9806 10.6028 17.5227 10.0379 17.5227ZM23.3334 9.34091C21.074 9.34091 19.2425 11.1725 19.2425 13.4318C19.2425 15.6912 21.074 17.5227 23.3334 17.5227C25.5928 17.5227 27.4243 15.6912 27.4243 13.4318C27.4243 11.1725 25.5928 9.34091 23.3334 9.34091Z" fill="white"/>
</g>
</svg>
