<svg width="41" height="40" viewBox="0 0 41 40" fill="none" xmlns="http://www.w3.org/2000/svg">
<path fill-rule="evenodd" clip-rule="evenodd" d="M22.2352 5.33325C24.3428 5.33325 26.2958 6.43905 27.3802 8.24627L31.714 15.4695L36.9962 16.1297C38.9978 16.3799 40.5 18.0815 40.5 20.0989V25.3333C40.5 28.0409 38.7066 30.3295 36.243 31.0763C35.4962 33.5399 33.2076 35.3333 30.5 35.3333C27.8876 35.3333 25.665 33.6637 24.8414 31.3333H16.1586C15.3349 33.6637 13.1124 35.3333 10.5 35.3333C7.79246 35.3333 5.5038 33.5399 4.75708 31.0763C2.29338 30.3295 0.5 28.0409 0.5 25.3333V17.7185C0.5 17.2095 0.5971 16.7053 0.7861 16.2329L3.63728 9.10491C4.54846 6.82695 6.7547 5.33325 9.20814 5.33325H22.2352ZM30.5 27.3333C29.3954 27.3333 28.5 28.2287 28.5 29.3333C28.5 30.4379 29.3954 31.3333 30.5 31.3333C31.6046 31.3333 32.5 30.4379 32.5 29.3333C32.5 28.2287 31.6046 27.3333 30.5 27.3333ZM10.5 27.3333C9.39544 27.3333 8.5 28.2287 8.5 29.3333C8.5 30.4379 9.39544 31.3333 10.5 31.3333C11.6046 31.3333 12.5 30.4379 12.5 29.3333C12.5 28.2287 11.6046 27.3333 10.5 27.3333ZM30.5 19.2809V19.3333H4.5V25.3333C4.5 25.8851 4.72342 26.3847 5.08474 26.7465C6.05084 24.7277 8.11258 23.3333 10.5 23.3333C12.9818 23.3333 15.1117 24.8401 16.0247 26.9888L16.1586 27.3333H24.8414C25.665 25.0029 27.8876 23.3333 30.5 23.3333C32.8874 23.3333 34.9492 24.7277 35.9152 26.7465C36.2164 26.445 36.4217 26.0478 36.4818 25.6044L36.5 25.3333V20.0989L31.218 19.4387C31.0541 19.4181 30.8928 19.3876 30.7346 19.3477L30.5 19.2809ZM22.2352 9.33325H18.5V15.3333H26.9676L23.9502 10.3043C23.5888 9.70185 22.9378 9.33325 22.2352 9.33325ZM14.5 9.33325H9.20814C8.39032 9.33325 7.6549 9.83115 7.35118 10.5905L5.45406 15.3333H14.5V9.33325Z" fill="#190C00"/>
</svg>
