<svg width="40" height="40" viewBox="0 0 40 40" fill="none" xmlns="http://www.w3.org/2000/svg">
<path fill-rule="evenodd" clip-rule="evenodd" d="M36 6C38.1088 6 39.8363 7.63175 39.989 9.70148L40 10V30C40 32.1088 38.3683 33.8363 36.2985 33.989L36 34H4C1.89128 34 0.16367 32.3683 0.0109715 30.2985L0 30V10C0 7.89128 1.63175 6.16367 3.70148 6.01097L4 6H36ZM30.0054 10H9.99464L10 10.25C10 13.4255 7.42586 16 4.25022 16L4 15.9946V24.0054L4.25022 24C7.42586 24 10 26.5744 10 29.75L9.99464 30H30.0054L30 29.75C30 26.6878 32.3936 24.1847 35.412 24.0098L35.8752 24.0014L36 24.0054V15.9946L35.7498 16C32.6876 16 30.1846 13.6061 30.0098 10.5878L30.0013 10.1247L30.0054 10ZM35.7498 28C34.7836 28 34 28.7834 34 29.75C34 29.835 34.006 29.9186 34.0176 30H36V28.0176C35.9184 28.006 35.835 28 35.7498 28ZM4.25022 28C4.16506 28 4.08154 28.006 4 28.0176V30H5.9825C5.99404 29.9186 6 29.835 6 29.75C6 28.7834 5.21648 28 4.25022 28ZM20 12C24.4182 12 28 15.5817 28 20C28 24.4182 24.4182 28 20 28C15.5817 28 12 24.4182 12 20C12 15.5817 15.5817 12 20 12ZM20 16C17.7908 16 16 17.7908 16 20C16 22.2092 17.7908 24 20 24C22.2092 24 24 22.2092 24 20C24 17.7908 22.2092 16 20 16ZM5.9825 10H4V11.9825C4.08154 11.994 4.16506 12 4.25022 12C5.21648 12 6 11.2166 6 10.25L5.99558 10.1236L5.9825 10ZM36 10H34.0176C34.006 10.0815 34 10.1649 34 10.25C34 11.2166 34.7836 12 35.7498 12L35.8763 11.9956L36 11.9825V10Z" fill="#190C00"/>
</svg>
