<svg width="41" height="40" viewBox="0 0 41 40" fill="none" xmlns="http://www.w3.org/2000/svg">
<path fill-rule="evenodd" clip-rule="evenodd" d="M27.0054 0C28.0662 0.00022655 29.0834 0.421802 29.8334 1.172L36.6614 8C37.4116 8.74997 37.8331 9.76722 37.8334 10.828V28C37.8334 29.0609 37.4119 30.0783 36.6618 30.8284C35.9117 31.5786 34.8942 32 33.8334 32H29.8334V36C29.8334 37.0609 29.4119 38.0783 28.6618 38.8284C27.9117 39.5786 26.8942 40 25.8334 40H7.83337C6.77251 40 5.75509 39.5786 5.00495 38.8284C4.2548 38.0783 3.83337 37.0609 3.83337 36V12C3.83337 10.9391 4.2548 9.92172 5.00495 9.17157C5.75509 8.42143 6.77251 8 7.83337 8H11.8334V4C11.8334 2.93913 12.2548 1.92172 13.0049 1.17157C13.7551 0.421427 14.7725 0 15.8334 0H27.0054ZM11.8334 12H7.83337V36H25.8334V32H15.8334C14.7725 32 13.7551 31.5786 13.0049 30.8284C12.2548 30.0783 11.8334 29.0609 11.8334 28V12ZM23.8334 4H15.8334V28H33.8334V14H26.8334C26.0876 14 25.3686 13.7222 24.8165 13.2208C24.2645 12.7194 23.919 12.0303 23.8474 11.288L23.8334 11V4ZM27.8334 4.828V10H33.0054L27.8334 4.828Z" fill="#190C00"/>
</svg>
