<svg width="40" height="40" viewBox="0 0 40 40" fill="none" xmlns="http://www.w3.org/2000/svg">
<g clip-path="url(#clip0_369_374)">
<path fill-rule="evenodd" clip-rule="evenodd" d="M20.0009 3.99817C19.2129 3.99817 18.4327 4.15337 17.7047 4.45491C16.9767 4.75646 16.3152 5.19844 15.7581 5.75562C15.2009 6.3128 14.7589 6.97427 14.4574 7.70226C14.1558 8.43025 14.0006 9.2105 14.0006 9.99847C14.0006 10.7864 14.1558 11.5667 14.4574 12.2947C14.7589 13.0227 15.2009 13.6842 15.7581 14.2413C16.3152 14.7985 16.9767 15.2405 17.7047 15.542C18.4327 15.8436 19.2129 15.9988 20.0009 15.9988C21.5923 15.9988 23.1185 15.3666 24.2438 14.2413C25.3691 13.1161 26.0012 11.5899 26.0012 9.99847C26.0012 8.40709 25.3691 6.88089 24.2438 5.75562C23.1185 4.63034 21.5923 3.99817 20.0009 3.99817ZM10.0004 9.99847C10.0008 8.10632 10.538 6.2531 11.5496 4.65405C12.5611 3.055 14.0056 1.77575 15.7152 0.964866C17.4248 0.153986 19.3294 -0.155246 21.2077 0.0730865C23.086 0.301419 24.8611 1.05794 26.3266 2.2548C27.7921 3.45165 28.888 5.03972 29.4871 6.83456C30.0861 8.62939 30.1636 10.5573 29.7107 12.3945C29.2577 14.2316 28.2929 15.9026 26.9282 17.2132C25.5635 18.5239 23.8549 19.4205 22.001 19.799V29.9995C22.001 30.53 21.7903 31.0387 21.4152 31.4138C21.0401 31.7889 20.5314 31.9996 20.0009 31.9996C19.4705 31.9996 18.9617 31.7889 18.5866 31.4138C18.2115 31.0387 18.0008 30.53 18.0008 29.9995V19.799C15.7423 19.3372 13.7126 18.1096 12.2548 16.3239C10.797 14.5381 10.0007 12.3037 10.0004 9.99847ZM14.9787 28.1994C15.0184 28.4592 15.0066 28.7243 14.9439 28.9795C14.8812 29.2347 14.7688 29.4751 14.6132 29.6868C14.4575 29.8986 14.2616 30.0776 14.0368 30.2136C13.8119 30.3496 13.5624 30.44 13.3026 30.4795C10.7464 30.8675 8.71634 31.4576 7.38227 32.1096C4.94215 33.3037 7.7943 34.1617 9.28237 34.6257C11.9365 35.4558 15.7267 35.9998 20.0009 35.9998C24.2751 35.9998 28.0653 35.4558 30.7195 34.6257C32.2175 34.1577 35.0597 33.3057 32.6196 32.1096C31.2855 31.4576 29.2554 30.8695 26.6993 30.4795C26.4366 30.4435 26.1837 30.3556 25.9553 30.2209C25.7269 30.0863 25.5276 29.9075 25.3689 29.6951C25.2102 29.4827 25.0953 29.2409 25.0309 28.9837C24.9665 28.7265 24.9539 28.459 24.9938 28.1969C25.0337 27.9348 25.1253 27.6832 25.2633 27.4569C25.4014 27.2305 25.583 27.0338 25.7977 26.8782C26.0124 26.7227 26.2559 26.6114 26.5141 26.5508C26.7722 26.4902 27.0398 26.4815 27.3013 26.5253C30.0774 26.9453 32.5456 27.6194 34.3797 28.5174C36.1477 29.3835 38.0018 30.8415 38.0018 32.9996C38.0018 34.6217 36.9538 35.7998 35.9337 36.5538C31.6335 39.73 25.0732 40 20.0009 40C15.4367 40 11.2265 39.424 8.09031 38.4439C5.59018 37.6639 2 36.1238 2 32.9996C2 30.8395 3.85409 29.3835 5.62218 28.5194C7.45628 27.6194 9.9264 26.9473 12.6985 26.5253C12.9583 26.4855 13.2234 26.4973 13.4786 26.56C13.7338 26.6228 13.9742 26.7352 14.186 26.8908C14.3977 27.0465 14.5767 27.2423 14.7127 27.4672C14.8488 27.6921 14.9391 27.9396 14.9787 28.1994Z" fill="#190C00"/>
</g>
<defs>
<clipPath id="clip0_369_374">
<rect width="40" height="40" fill="white"/>
</clipPath>
</defs>
</svg>
