<svg width="40" height="40" viewBox="0 0 40 40" fill="none" xmlns="http://www.w3.org/2000/svg">
<g clip-path="url(#clip0_369_222)">
<path d="M21.6665 1.66689C21.6665 1.22486 21.8421 0.800936 22.1546 0.488376C22.4672 0.175815 22.8911 0.000220207 23.3331 0.000220207C27.7519 0.00507287 31.9883 1.76258 35.1129 4.88713C38.2374 8.01169 39.9949 12.2481 39.9998 16.6669C39.9998 17.1089 39.8242 17.5328 39.5116 17.8454C39.1991 18.158 38.7751 18.3336 38.3331 18.3336C37.8911 18.3336 37.4672 18.158 37.1546 17.8454C36.842 17.5328 36.6664 17.1089 36.6664 16.6669C36.6625 13.1319 35.2564 9.74281 32.7568 7.24318C30.2572 4.74356 26.8681 3.33752 23.3331 3.33355C22.8911 3.33355 22.4672 3.15796 22.1546 2.8454C21.8421 2.53284 21.6665 2.10891 21.6665 1.66689ZM23.3331 10.0002C25.1012 10.0002 26.7969 10.7026 28.0472 11.9528C29.2974 13.2031 29.9998 14.8988 29.9998 16.6669C29.9998 17.1089 30.1754 17.5328 30.4879 17.8454C30.8005 18.158 31.2244 18.3336 31.6664 18.3336C32.1085 18.3336 32.5324 18.158 32.845 17.8454C33.1575 17.5328 33.3331 17.1089 33.3331 16.6669C33.3305 14.0155 32.276 11.4735 30.4013 9.59874C28.5265 7.72395 25.9845 6.66954 23.3331 6.66689C22.8911 6.66689 22.4672 6.84248 22.1546 7.15504C21.8421 7.4676 21.6665 7.89153 21.6665 8.33355C21.6665 8.77558 21.8421 9.1995 22.1546 9.51207C22.4672 9.82463 22.8911 10.0002 23.3331 10.0002ZM38.4881 27.8986C39.454 28.8671 39.9963 30.1791 39.9963 31.5469C39.9963 32.9147 39.454 34.2267 38.4881 35.1952L36.9714 36.9436C23.3215 50.0119 -9.89518 16.8036 2.97148 3.11022L4.88814 1.44355C5.85776 0.504682 7.15802 -0.014698 8.50764 -0.00222172C9.85726 0.0102545 11.1477 0.553584 12.0998 1.51022C12.1515 1.56189 15.2398 5.57355 15.2398 5.57355C16.1562 6.53627 16.6663 7.8151 16.6641 9.14423C16.662 10.4733 16.1477 11.7505 15.2281 12.7102L13.2981 15.1369C14.3662 17.7321 15.9366 20.0906 17.919 22.077C19.9014 24.0635 22.2568 25.6386 24.8498 26.7119L27.2914 24.7702C28.2513 23.8514 29.5282 23.3377 30.8569 23.3359C32.1857 23.334 33.464 23.8441 34.4264 24.7602C34.4264 24.7602 38.4364 27.8469 38.4881 27.8986ZM36.1948 30.3219C36.1948 30.3219 32.2064 27.2536 32.1548 27.2019C31.8114 26.8614 31.3475 26.6704 30.8639 26.6704C30.3804 26.6704 29.9165 26.8614 29.5731 27.2019C29.5281 27.2486 26.1665 29.9269 26.1665 29.9269C25.9399 30.1072 25.6703 30.2254 25.3842 30.2698C25.0981 30.3142 24.8053 30.2834 24.5348 30.1802C21.1756 28.9295 18.1244 26.9715 15.5879 24.4387C13.0514 21.9059 11.0888 18.8576 9.83314 15.5002C9.7218 15.226 9.6855 14.927 9.72798 14.6341C9.77045 14.3412 9.89016 14.0649 10.0748 13.8336C10.0748 13.8336 12.7531 10.4702 12.7981 10.4269C13.1386 10.0835 13.3296 9.61958 13.3296 9.13605C13.3296 8.65253 13.1386 8.18858 12.7981 7.84522C12.7465 7.79522 9.67814 3.80355 9.67814 3.80355C9.32964 3.49107 8.87481 3.32371 8.40688 3.3358C7.93896 3.34788 7.49338 3.53849 7.16147 3.86855L5.24481 5.53522C-4.15852 16.8419 24.6265 44.0302 34.5348 34.6669L36.0531 32.9169C36.4089 32.5873 36.6226 32.1323 36.649 31.6481C36.6755 31.1638 36.5126 30.6882 36.1948 30.3219Z" fill="#190C00"/>
</g>
<defs>
<clipPath id="clip0_369_222">
<rect width="40" height="40" fill="white"/>
</clipPath>
</defs>
</svg>
