<svg width="24" height="24" viewBox="0 0 24 24" fill="none" xmlns="http://www.w3.org/2000/svg">
<g clip-path="url(#clip0_193_1247)">
<path d="M12 0.571442C8.96894 0.571442 6.06204 1.77552 3.91876 3.91879C1.77549 6.06207 0.571411 8.96897 0.571411 12C0.571411 15.0311 1.77549 17.938 3.91876 20.0812C6.06204 22.2245 8.96894 23.4286 12 23.4286C15.031 23.4286 17.9379 22.2245 20.0812 20.0812C22.2245 17.938 23.4286 15.0311 23.4286 12C23.4286 8.96897 22.2245 6.06207 20.0812 3.91879C17.9379 1.77552 15.031 0.571442 12 0.571442Z" fill="#29B6F6"/>
<path d="M17.6857 6.85714L15.5451 17.7863C15.5451 17.7863 15.4531 18.2857 14.8337 18.2857C14.5046 18.2857 14.3349 18.1291 14.3349 18.1291L9.69829 14.2817L7.42971 13.1383L4.51829 12.364C4.51829 12.364 4 12.2143 4 11.7857C4 11.4286 4.53314 11.2583 4.53314 11.2583L16.7137 6.41942C16.7137 6.41942 17.0857 6.28514 17.3571 6.28571C17.524 6.28571 17.7143 6.35714 17.7143 6.57142C17.7143 6.71428 17.6857 6.85714 17.6857 6.85714Z" fill="white"/>
<path d="M11.4286 15.7173L9.47085 17.6453C9.47085 17.6453 9.38571 17.711 9.27199 17.7138C9.23256 17.715 9.19028 17.7087 9.14685 17.6893L9.69771 14.2807L11.4286 15.7173Z" fill="#B0BEC5"/>
<path d="M15.3697 8.68338C15.2732 8.55767 15.0949 8.53481 14.9692 8.63024L7.42859 13.1428C7.42859 13.1428 8.63202 16.5097 8.81545 17.0925C8.99945 17.676 9.14687 17.6897 9.14687 17.6897L9.69773 14.2811L15.316 9.08338C15.4417 8.98795 15.4652 8.80909 15.3697 8.68338Z" fill="#CFD8DC"/>
</g>
<defs>
<clipPath id="clip0_193_1247">
<rect width="24" height="24" fill="white"/>
</clipPath>
</defs>
</svg>
