<svg width="24" height="24" viewBox="0 0 24 24" fill="none" xmlns="http://www.w3.org/2000/svg">
<g clip-path="url(#clip0_195_1265)">
<path d="M11.9289 0.571429C10.4209 0.571429 5.83171 0.571429 3.29457 2.888C1.78371 4.39314 1.07171 6.568 1.07171 9.71429V11.4286C1.07171 14.5749 1.78371 16.7497 3.31229 18.272C4.07343 18.9663 5.11114 19.5211 6.37971 19.9046L6.786 20.0269V23.0714C6.786 23.4286 6.88943 23.4286 6.92371 23.4286C6.994 23.4286 7.10657 23.4063 7.32029 23.2166C7.37171 23.1657 7.74886 22.7577 9.58314 20.7029L9.76829 20.4954L10.0454 20.5131C10.6597 20.5514 11.2934 20.5714 11.9289 20.5714C13.4369 20.5714 18.026 20.5714 20.5631 18.2543C22.0734 16.7491 22.786 14.5743 22.786 11.4286V9.71429C22.786 6.568 22.074 4.39314 20.5454 2.87086C18.026 0.571429 13.4369 0.571429 11.9289 0.571429Z" fill="white"/>
<path d="M17.3294 14.2023C16.6946 13.6674 16.4014 13.5057 15.5249 12.9794C15.1597 12.7606 14.6031 12.5714 14.3111 12.5714C14.1117 12.5714 13.8729 12.724 13.7266 12.8703C13.3517 13.2451 13.2289 13.7143 12.5717 13.7143C11.9289 13.7143 10.806 13.06 10.0003 12.2143C9.15457 11.4086 8.50029 10.2857 8.50029 9.64286C8.50029 8.98571 8.96086 8.85429 9.33572 8.47886C9.482 8.33314 9.64314 8.09429 9.64314 7.89486C9.64314 7.60286 9.454 7.05486 9.23514 6.68971C8.70886 5.81257 8.54772 5.51943 8.01229 4.88514C7.83114 4.67029 7.62486 4.572 7.40886 4.57143C7.04372 4.57086 6.56429 4.752 6.23971 4.99371C5.75171 5.35771 5.24143 5.85314 5.10486 6.47029C5.08657 6.55429 5.07572 6.63886 5.07229 6.72343C5.046 7.36629 5.29857 8.01886 5.57114 8.57143C6.21286 9.87371 7.062 11.1343 7.986 12.26C8.28143 12.62 8.60314 12.9549 8.93629 13.2783C9.25972 13.6109 9.59457 13.9326 9.95457 14.2286C11.0803 15.1526 12.3409 16.0017 13.6431 16.6434C14.1906 16.9131 14.8351 17.1611 15.4717 17.1429C15.5626 17.14 15.6534 17.1297 15.7443 17.1097C16.3614 16.9737 16.8569 16.4629 17.2209 15.9749C17.4626 15.6503 17.6437 15.1714 17.6431 14.8057C17.6426 14.5897 17.5443 14.3834 17.3294 14.2023ZM17.6431 11.4286C17.3277 11.4286 17.0717 11.1726 17.0717 10.8571V10.2857C17.0717 7.45029 14.7643 5.14286 11.9289 5.14286C11.6134 5.14286 11.3574 4.88686 11.3574 4.57143C11.3574 4.256 11.6134 4 11.9289 4C15.3946 4 18.2146 6.82 18.2146 10.2857V10.8571C18.2146 11.1726 17.9586 11.4286 17.6431 11.4286ZM14.1334 10.2857C13.8797 10.2857 13.6477 10.1154 13.5809 9.85829C13.4243 9.25772 12.9557 8.78857 12.3574 8.63429C12.0517 8.55486 11.8683 8.24343 11.9471 7.93772C12.026 7.63257 12.3369 7.44914 12.6437 7.52743C13.6426 7.78629 14.4254 8.56857 14.6866 9.56971C14.766 9.87543 14.5831 10.1869 14.278 10.2669C14.2294 10.2794 14.1809 10.2857 14.1334 10.2857Z" fill="#7E57C2"/>
<path d="M15.9289 10.8571C15.6134 10.8571 15.3574 10.6011 15.3574 10.2857C15.3574 8.464 13.9323 6.96114 12.1129 6.86514C11.7974 6.84857 11.5557 6.57943 11.5723 6.26457C11.5889 5.94914 11.8626 5.70686 12.1729 5.724C14.5997 5.852 16.5003 7.856 16.5003 10.2857C16.5003 10.6011 16.2443 10.8571 15.9289 10.8571Z" fill="#7E57C2"/>
<path d="M11.9289 0C9.35743 0 5.35057 0.236571 2.90943 2.46629C1.18371 4.18457 0.500286 6.59486 0.500286 9.71429C0.500286 9.97257 0.499143 10.2606 0.501429 10.5714C0.499143 10.8817 0.500286 11.1697 0.500286 11.428C0.500286 14.5474 1.18371 16.9577 2.90943 18.676C3.83857 19.5246 4.99743 20.0829 6.21457 20.4509V23.0714C6.21457 23.9834 6.814 24 6.92371 24H6.92886C7.21114 23.9989 7.45514 23.8606 7.69972 23.6434C7.79172 23.5617 8.854 22.3777 10.0094 21.0829C10.6974 21.1269 11.3511 21.1429 11.9283 21.1429C14.4997 21.1429 18.506 20.9057 20.9477 18.676C22.6729 16.9583 23.3569 14.5474 23.3569 11.428C23.3569 11.1697 23.358 10.8817 23.3557 10.5709C23.358 10.26 23.3569 9.97257 23.3569 9.71371C23.3569 6.59429 22.6734 4.184 20.9477 2.46571C18.5066 0.236571 14.5003 0 11.9289 0ZM21.6431 11.2291V11.428C21.6431 14.2314 21.046 16.1417 19.7654 17.4349C17.5471 19.4286 13.3214 19.4286 11.9283 19.4286C11.5043 19.4286 10.8163 19.428 10.0043 19.3714C9.77857 19.6251 7.35743 22.3331 7.35743 22.3331V18.9829C6.15514 18.6943 4.96714 18.2211 4.09229 17.4354C2.81171 16.1417 2.21457 14.2314 2.21457 11.428V11.2291C2.21457 11.0286 2.214 10.812 2.21571 10.5589C2.214 10.3303 2.214 10.1143 2.21457 9.91314V9.71429C2.21457 6.91086 2.81171 5.00057 4.09229 3.70743C6.31 1.71371 10.5363 1.71371 11.9289 1.71371C13.3214 1.71371 17.5471 1.71371 19.7649 3.70743C21.046 5.00057 21.6426 6.91086 21.6426 9.71429V9.91314C21.6426 10.1137 21.6431 10.3303 21.6414 10.5834C21.6431 10.8126 21.6431 11.0286 21.6431 11.2291Z" fill="#7E57C2"/>
</g>
<defs>
<clipPath id="clip0_195_1265">
<rect width="24" height="24" fill="white"/>
</clipPath>
</defs>
</svg>
