<svg width="24" height="24" viewBox="0 0 24 24" fill="none" xmlns="http://www.w3.org/2000/svg">
<g clip-path="url(#clip0_193_1252)">
<path d="M0.595719 23.4039L2.19993 17.5474C1.21025 15.8337 0.689804 13.8888 0.6904 11.897C0.693377 5.66534 5.76444 0.595474 11.9967 0.595474C15.0211 0.596665 17.8591 1.77392 19.9939 3.90988C22.1281 6.04645 23.3035 8.88567 23.3023 11.9059C23.3 18.1376 18.2277 23.208 11.9967 23.208H11.9919C10.1001 23.2074 8.24042 22.7328 6.58917 21.8319L0.595719 23.4039Z" fill="white"/>
<path d="M0.59572 23.7017C0.517117 23.7017 0.440896 23.6707 0.384326 23.6135C0.309892 23.5379 0.280714 23.4277 0.308701 23.3259L1.88016 17.5879C0.905962 15.8575 0.392067 13.8924 0.393258 11.8976C0.39564 5.50099 5.60068 0.297737 11.9967 0.297737C15.0991 0.298928 18.0139 1.50715 20.2047 3.69968C22.3954 5.89281 23.6013 8.80707 23.6001 11.9059C23.5977 18.3019 18.3921 23.5058 11.9967 23.5058C10.0977 23.5052 8.21898 23.0365 6.55165 22.1499L0.671345 23.6915C0.646335 23.6987 0.621325 23.7017 0.59572 23.7017Z" fill="white"/>
<path d="M11.9967 0.595474C15.0211 0.596665 17.8591 1.77392 19.9939 3.90988C22.1281 6.04645 23.3035 8.88567 23.3023 11.9059C23.3 18.1376 18.2277 23.208 11.9967 23.208H11.9919C10.1001 23.2074 8.24042 22.7328 6.58917 21.8319L0.595719 23.4039L2.19993 17.5474C1.21025 15.8337 0.689804 13.8888 0.6904 11.897C0.693377 5.66534 5.76444 0.595474 11.9967 0.595474ZM11.9967 0C5.43693 0 0.0979027 5.33664 0.0949254 11.897C0.0943299 13.9019 0.600483 15.8777 1.56039 17.6266L0.0210866 23.2473C-0.034888 23.4528 0.0222775 23.6719 0.172337 23.8231C0.285477 23.9375 0.438514 24 0.595719 24C0.646335 24 0.69695 23.9934 0.74697 23.9803L6.51533 22.4678C8.19933 23.342 10.087 23.8035 11.9919 23.8041C18.5564 23.8041 23.8954 18.4669 23.8984 11.9065C23.8996 8.72727 22.6628 5.73799 20.4161 3.48948C18.1682 1.24037 15.1783 0.00119095 11.9967 0Z" fill="#CFD8DC"/>
<path d="M18.6434 5.25923C16.8688 3.48352 14.5102 2.50516 11.9996 2.50457C6.81664 2.50457 2.60128 6.71814 2.5989 11.8976C2.5983 13.6727 3.09493 15.4008 4.03578 16.8972L4.25967 17.2527L3.30989 20.7189L6.86666 19.7864L7.21025 19.9901C8.65249 20.8464 10.3067 21.2989 11.9931 21.2995H11.9967C17.1761 21.2995 21.3915 17.0854 21.3933 11.9053C21.3939 9.39539 20.4179 7.03493 18.6434 5.25923Z" fill="#40C351"/>
<path fill-rule="evenodd" clip-rule="evenodd" d="M9.17055 7.17249C8.95916 6.70206 8.73645 6.69254 8.53458 6.6842C8.36964 6.67705 8.18147 6.67765 7.9933 6.67765C7.80513 6.67765 7.49905 6.74851 7.24002 7.03136C6.98099 7.31421 6.25094 7.99722 6.25094 9.38706C6.25094 10.7769 7.26325 12.1203 7.40437 12.3085C7.5455 12.4966 9.35872 15.4401 12.2301 16.5726C14.6162 17.5135 15.1021 17.3265 15.6201 17.2795C16.1382 17.2324 17.2916 16.5965 17.5268 15.9367C17.7621 15.2769 17.7621 14.7118 17.6918 14.5939C17.6209 14.476 17.4328 14.4057 17.1505 14.264C16.8682 14.1223 15.479 13.4393 15.22 13.3452C14.9609 13.2511 14.7728 13.204 14.584 13.4869C14.3958 13.7692 13.8546 14.4057 13.6896 14.5939C13.5247 14.7827 13.3597 14.8065 13.0775 14.6647C12.7952 14.523 11.8853 14.2253 10.8057 13.263C9.9661 12.5145 9.39921 11.5897 9.23427 11.3069C9.06932 11.0246 9.2164 10.8716 9.35812 10.7304C9.48496 10.6036 9.64038 10.4006 9.7821 10.2356C9.92323 10.0707 9.97027 9.95276 10.0644 9.76459C10.1584 9.57582 10.1114 9.41088 10.0405 9.26975C9.97087 9.12803 9.42184 7.73104 9.17055 7.17249Z" fill="white"/>
</g>
<defs>
<clipPath id="clip0_193_1252">
<rect width="24" height="24" fill="white"/>
</clipPath>
</defs>
</svg>
