<svg width="28" height="28" viewBox="0 0 28 28" fill="none" xmlns="http://www.w3.org/2000/svg">
<g id="Icon/Phone-call" clip-path="url(#clip0_228_1741)">
<path id="Vector" d="M15.1665 1.16658C15.1665 0.857158 15.2894 0.560411 15.5082 0.341619C15.727 0.122826 16.0238 -8.99957e-05 16.3332 -8.99957e-05C19.4263 0.00330687 22.3918 1.23356 24.579 3.42075C26.7662 5.60794 27.9965 8.57343 27.9998 11.6666C27.9998 11.976 27.8769 12.2727 27.6581 12.4915C27.4393 12.7103 27.1426 12.8332 26.8332 12.8332C26.5238 12.8332 26.227 12.7103 26.0082 12.4915C25.7894 12.2727 25.6665 11.976 25.6665 11.6666C25.6637 9.19208 24.6795 6.81972 22.9298 5.06998C21.18 3.32025 18.8077 2.33602 16.3332 2.33324C16.0238 2.33324 15.727 2.21033 15.5082 1.99153C15.2894 1.77274 15.1665 1.476 15.1665 1.16658ZM16.3332 6.99991C17.5709 6.99991 18.7579 7.49158 19.633 8.36675C20.5082 9.24192 20.9999 10.4289 20.9999 11.6666C20.9999 11.976 21.1228 12.2727 21.3416 12.4915C21.5604 12.7103 21.8571 12.8332 22.1665 12.8332C22.4759 12.8332 22.7727 12.7103 22.9915 12.4915C23.2103 12.2727 23.3332 11.976 23.3332 11.6666C23.3313 9.81063 22.5932 8.03123 21.2809 6.71888C19.9685 5.40652 18.1891 4.66843 16.3332 4.66658C16.0238 4.66658 15.727 4.78949 15.5082 5.00829C15.2894 5.22708 15.1665 5.52383 15.1665 5.83324C15.1665 6.14266 15.2894 6.43941 15.5082 6.6582C15.727 6.87699 16.0238 6.99991 16.3332 6.99991ZM26.9417 19.5287C27.6178 20.2067 27.9974 21.1251 27.9974 22.0826C27.9974 23.04 27.6178 23.9584 26.9417 24.6364L25.88 25.8602C16.325 35.0081 -6.92661 11.7622 2.08005 2.17691L3.42171 1.01024C4.10044 0.353034 5.01063 -0.0105327 5.95536 -0.00179935C6.9001 0.00693404 7.80341 0.387265 8.46987 1.05691C8.50604 1.09308 10.6679 3.90124 10.6679 3.90124C11.3093 4.57514 11.6664 5.47033 11.6649 6.40071C11.6634 7.3311 11.3034 8.22511 10.6597 8.89691L9.3087 10.5956C10.0564 12.4122 11.1556 14.0632 12.5433 15.4537C13.931 16.8442 15.5797 17.9468 17.3949 18.6981L19.104 17.3389C19.7759 16.6957 20.6698 16.3362 21.5999 16.3349C22.53 16.3335 23.4248 16.6906 24.0985 17.3319C24.0985 17.3319 26.9055 19.4926 26.9417 19.5287ZM25.3363 21.2251C25.3363 21.2251 22.5445 19.0772 22.5084 19.0411C22.268 18.8028 21.9432 18.6691 21.6048 18.6691C21.2663 18.6691 20.9415 18.8028 20.7012 19.0411C20.6697 19.0737 18.3165 20.9486 18.3165 20.9486C18.158 21.0748 17.9692 21.1575 17.7689 21.1886C17.5687 21.2197 17.3637 21.1981 17.1744 21.1259C14.8229 20.2504 12.6871 18.8798 10.9115 17.1068C9.13596 15.3339 7.76217 13.2001 6.88321 10.8499C6.80527 10.6579 6.77986 10.4487 6.80959 10.2436C6.83933 10.0386 6.92312 9.84517 7.05237 9.68325C7.05237 9.68325 8.9272 7.32891 8.9587 7.29858C9.19702 7.05823 9.33073 6.73346 9.33073 6.39499C9.33073 6.05653 9.19702 5.73176 8.9587 5.49141C8.92254 5.45641 6.77471 2.66224 6.77471 2.66224C6.53076 2.4435 6.21238 2.32636 5.88483 2.33482C5.55728 2.34327 5.24538 2.4767 5.01304 2.70774L3.67138 3.87441C-2.91095 11.7891 17.2385 30.8209 24.1744 24.2666L25.2372 23.0416C25.4862 22.8109 25.6358 22.4924 25.6543 22.1534C25.6729 21.8144 25.5588 21.4815 25.3363 21.2251Z" fill="#190C00"/>
</g>
<defs>
<clipPath id="clip0_228_1741">
<rect width="28" height="28" fill="white"/>
</clipPath>
</defs>
</svg>
