<svg width="143" height="304" viewBox="0 0 143 304" fill="none" xmlns="http://www.w3.org/2000/svg">
<path d="M103.195 272.551C104.234 272.627 105.544 272.434 106.508 272.511C109.399 272.666 112.289 273.052 115.024 274.019C118.994 275.41 122.653 278.076 124.389 281.94C125.313 283.989 125.776 287.197 124.157 289.051C122.616 290.829 119.495 291.216 117.298 291.447C113.367 291.911 109.437 292.104 105.507 292.027C102.231 291.949 98.8786 292.066 96.2583 289.786C95.1025 288.78 93.9468 287.622 92.405 287.427C91.3265 287.275 90.2479 287.622 89.3216 288.2C87.6276 289.245 87.2792 290.521 85.1992 290.366C83.3487 290.249 81.5003 290.018 79.6499 289.941C76.7604 289.863 76.6436 289.128 76.3745 286.347C76.1429 283.951 76.1826 281.555 76.5664 279.197C76.9148 276.918 77.6075 274.637 79.072 272.821C80.3049 271.276 81.807 270.733 83.62 270.231C85.1596 269.808 86.5094 269.073 88.1283 268.763C91.9419 268.067 95.912 268.957 99.3417 270.618C100.343 271.121 101.422 272.086 102.463 272.396C102.694 272.474 102.924 272.511 103.195 272.551Z" fill="#231F20"/>
<path d="M37.3392 272.551C36.2982 272.627 34.988 272.434 34.0263 272.511C31.1348 272.666 28.2453 273.052 25.5103 274.019C21.5402 275.41 17.8789 278.076 16.1453 281.94C15.2211 283.989 14.7579 287.197 16.3768 289.051C17.9185 290.829 21.0395 291.216 23.2363 291.447C27.1668 291.911 31.0972 292.104 35.0277 292.027C38.303 291.949 41.6556 292.066 44.2759 289.786C45.4317 288.78 46.5874 287.622 48.1291 287.427C49.2077 287.275 50.2863 287.622 51.2126 288.2C52.9066 289.245 53.255 290.521 55.335 290.366C57.1854 290.249 59.0338 290.018 60.8843 289.941C63.7737 289.863 63.8906 289.128 64.1597 286.347C64.3912 283.951 64.3516 281.555 63.9657 279.197C63.6193 276.918 62.9267 274.637 61.4622 272.821C60.2292 271.276 58.7251 270.733 56.9142 270.231C55.3746 269.808 54.0248 269.073 52.4059 268.763C48.5923 268.067 44.6222 268.957 41.1924 270.618C40.1911 271.121 39.1125 272.086 38.0715 272.396C37.8399 272.474 37.6083 272.511 37.3392 272.551Z" fill="#231F20"/>
<path d="M69.6319 135.942C57.9178 135.325 47.4366 136.64 41.9645 148.347C37.4561 157.971 37.9568 168.558 38.4575 178.877C39.0354 190.199 39.5736 201.523 40.1536 212.805C40.3059 216.246 40.9234 219.993 40.3059 223.394C39.6905 226.756 38.6119 230.157 38.034 233.596C36.7239 241.094 35.7976 248.629 35.2593 256.205C35.0278 259.643 34.8358 263.16 35.6057 266.561C36.3755 269.96 38.1488 273.207 41.0778 275.1C45.3546 277.806 50.9039 276.993 55.7982 275.72C59.5346 274.752 63.5819 273.324 65.5847 270C66.9345 267.759 67.166 265.053 67.3183 262.465C68.2822 248.244 68.5137 233.751 70.2098 219.608C71.8287 205.967 75.9887 192.17 78.8802 178.722C80.4219 171.534 81.9615 164.346 83.4657 157.158C84.5818 151.981 85.6228 144.716 81.9615 140.234C79.1493 136.793 74.1403 136.175 69.6319 135.942Z" fill="#296787"/>
<path d="M74.8328 139.769C79.9962 139.421 88.7062 137.413 92.4051 142.242C94.871 145.449 93.83 149.043 94.2556 152.714C94.8334 157.816 95.7576 162.918 96.5671 167.98C98.186 178.181 99.8425 188.345 101.23 198.585C102.694 209.444 103.888 220.381 104.311 231.355C104.737 241.982 103.31 252.571 105.507 263.005C106.162 266.096 106.354 269.535 104.62 272.126C103.349 274.019 101.23 275.177 99.1102 275.95C92.9454 278.153 85.8919 277.536 80.1902 274.289C77.6471 272.859 76.9524 270.58 76.2202 267.759C75.4879 264.938 75.5275 261.962 75.6047 259.063C75.7591 250.64 76.4517 242.059 76.2598 233.713C76.0658 224.902 73.9086 215.744 72.7529 207.048C70.8648 192.865 68.9768 178.722 67.1263 164.541C66.0081 156.656 62.4636 140.581 74.8328 139.769Z" fill="#296787"/>
<path d="M97.6059 148.387C97.8771 149.933 98.1463 151.594 97.6456 153.102C96.8361 155.613 94.293 156.966 91.9043 157.894C76.6832 163.844 59.6888 162.878 43.6979 159.672C39.7675 158.899 35.2967 157.546 33.6778 153.759C32.5992 151.286 33.0624 148.425 33.5631 145.759C35.5679 135.132 39.4984 124.118 40.5373 113.414C41.5783 102.554 41.5387 91.3099 42.1938 80.3732C42.4253 76.2766 42.7341 71.9497 44.8537 68.4709C47.474 64.2194 52.3683 62.0182 57.1854 61.3208C64.4287 60.3176 71.9809 62.4036 77.9162 66.8478C80.2673 68.6259 83.5031 71.2145 84.736 73.9979C86.5469 78.0924 86.5469 84.1996 87.3188 88.6815C90.7485 108.544 94.1783 128.485 97.6059 148.387Z" fill="#231F20"/>
<path d="M98.4926 114.186C95.7575 112.371 93.8695 109.512 92.2902 106.613C88.7833 100.121 86.5865 93.0105 84.4669 85.9378C83.7346 83.4644 82.9648 80.9135 83.1568 78.3248C83.3487 75.7362 84.6213 73.0701 86.9725 71.9873C90.4398 70.404 94.4078 72.7601 97.2221 75.3885C104.351 82.0737 108.782 91.0774 112.02 100.198C115.063 108.699 108.012 120.564 98.4926 114.186Z" fill="#231F20"/>
<path d="M76.0657 72.2572C76.6832 74.5757 77.1839 76.9339 77.5698 79.2901C79.1866 88.9137 79.2638 98.7676 79.0344 108.506C78.9572 112.756 79.7645 116.622 79.9189 120.871C80.1129 126.011 80.3049 131.19 80.4968 136.33C80.6908 140.542 78.9947 152.561 86.163 151.439C89.3987 150.938 92.5969 149.893 95.4884 148.27C97.414 147.149 100.034 146.299 101.152 144.251C102.423 141.972 101.691 139.189 100.998 136.678C96.9905 122.572 94.1011 108.119 92.2902 93.5506C91.5579 87.5607 90.6317 81.4933 88.4349 75.8135C87.3563 73.0301 85.969 70.2864 83.9662 68.0455C82.1553 65.9972 79.341 63.8714 76.5664 63.4463C75.6046 63.2913 74.4488 63.7165 74.1004 64.6443C73.8313 65.3794 74.1004 66.1899 74.3716 66.925C75.0643 68.6633 75.6046 70.4414 76.0657 72.2572Z" fill="#F06A58"/>
<path d="M91.7875 124.273C93.83 123.925 95.6032 123.075 97.3765 122.187C97.9148 124.505 98.4551 126.824 99.0705 129.142C93.7152 131.731 86.2006 132.349 80.3822 131.268C80.305 128.872 80.1902 126.476 80.113 124.08C83.5428 125.161 88.7834 124.813 91.7875 124.273Z" fill="#F8BCBB"/>
<path d="M80.4969 142.823C80.4218 140.272 80.5741 137.798 80.5366 136.29C80.5366 136.137 80.5366 135.982 80.5366 135.79C86.7786 136.87 94.5247 135.79 99.8029 132.001C100.226 133.547 100.612 135.092 101.075 136.64C101.267 137.335 101.461 138.068 101.614 138.803C95.4489 142.435 87.4336 143.673 80.4969 142.823Z" fill="#F8BCBB"/>
<path d="M64.7751 62.5961C65.7785 63.7564 66.4336 65.4172 66.8571 66.7702C68.0504 70.7118 67.8209 74.8858 68.3216 78.9426C70.9795 100.546 72.83 121.915 71.7514 143.75C71.597 146.532 71.3654 149.508 69.4774 151.594C67.9732 153.257 65.7389 153.99 63.5817 154.415C55.1805 156.115 46.4726 154.455 38.1486 152.329C34.9129 151.479 31.2891 150.241 29.9018 147.189C28.7856 144.676 29.5179 141.78 30.2502 139.151C31.867 133.431 33.5255 127.752 35.1424 122.032C36.7237 116.505 39.0352 110.747 39.9991 105.068C40.6917 100.931 39.6507 95.754 39.2272 91.5799C38.6493 86.0529 37.917 80.4882 38.6117 74.9235C39.0352 71.5244 39.6131 67.9682 41.8099 65.3397C45.3169 61.0903 51.5192 60.6651 57.031 60.5479C58.9962 60.7803 62.04 60.7028 63.7361 61.7081C64.0824 61.9008 64.4288 62.2108 64.7751 62.5961Z" fill="#F06A58"/>
<path d="M71.9435 123.23C72.0207 125.548 72.0207 127.904 72.0582 130.225C62.2718 128.717 51.3274 131.808 41.5785 131.808C38.5347 131.808 35.4909 131.653 32.5222 131.268C33.1773 128.95 33.8324 126.669 34.4874 124.35C39.4589 124.891 44.5451 124.775 49.5938 124.505C56.9915 124.118 64.5833 122.34 71.9435 123.23Z" fill="#F8BCBB"/>
<path d="M41.5783 143.943C37.4559 143.943 33.3711 143.633 29.4407 142.9C29.5951 141.625 29.9414 140.31 30.2877 139.112C30.5964 138.069 30.8656 137.026 31.1743 136.02C37.1472 137.141 43.4288 136.988 49.5936 136.678C57.031 136.29 64.6603 134.475 72.058 135.402C72.0205 137.721 71.9433 140.039 71.8285 142.358C62.0775 140.929 51.25 143.981 41.5783 143.943Z" fill="#F8BCBB"/>
<path d="M91.7875 124.273C93.83 123.925 95.6032 123.075 97.3765 122.187C97.9148 124.505 98.4551 126.824 99.0705 129.142C93.7152 131.731 86.2006 132.349 80.3822 131.268C80.305 128.872 80.1902 126.476 80.113 124.08C83.5428 125.161 88.7834 124.813 91.7875 124.273Z" fill="#F8BCBB"/>
<path d="M80.4969 142.823C80.4218 140.272 80.5741 137.798 80.5366 136.29C80.5366 136.137 80.5366 135.982 80.5366 135.79C86.7786 136.87 94.5247 135.79 99.8029 132.001C100.226 133.547 100.612 135.092 101.075 136.64C101.267 137.335 101.461 138.068 101.614 138.803C95.4489 142.435 87.4336 143.673 80.4969 142.823Z" fill="#F8BCBB"/>
<path d="M10.7127 107.076C7.47484 106.381 5.93312 102.324 6.78222 99.1153C7.62922 95.9088 10.0576 93.3956 12.4088 91.0771C18.9199 84.5846 25.4706 78.1319 31.9838 71.6394C34.8357 68.8183 38.1882 65.7647 42.1938 65.9197C45.9323 66.0747 49.0929 69.166 50.4406 72.6824C53.7932 81.1457 50.7118 90.5368 46.0867 97.8398C40.6145 106.496 32.5617 113.143 24.6611 119.673C19.5374 113.106 18.8427 108.777 10.7127 107.076Z" fill="#231F20"/>
<path d="M40.8461 257.673C40.5374 257.633 40.2286 257.595 39.8823 257.518C39.0729 257.363 38.2634 257.17 37.648 256.63C36.1834 255.354 37.0304 251.953 37.1473 250.29C37.648 242.137 38.1883 234.021 38.8434 225.868C39.6132 215.899 40.4226 205.927 41.1925 195.958C42.8489 174.973 44.4678 153.989 46.1264 133.006C46.0867 133.394 46.0492 133.819 46.0095 134.204C45.8552 132.041 45.6236 130.455 43.9671 129.027C42.6194 130.07 41.2321 132.118 39.8823 133.199C38.7265 157.313 36.8385 181.35 34.1807 205.347C33.1772 214.353 32.1758 223.357 31.02 232.323C30.4422 236.842 29.7871 241.404 29.0924 245.923C28.5917 249.287 29.0152 254.116 25.9338 256.32C22.8128 255.432 19.6522 254.542 16.5312 253.614C15.3755 253.266 13.9485 252.996 13.1015 253.846C12.6008 254.349 12.4464 255.082 12.292 255.779C11.7141 258.908 11.0987 262.039 10.5208 265.168C9.51734 270.58 8.4784 276.145 9.4026 281.555C11.9061 296.316 32.4846 303.311 43.698 293.417C48.3983 289.245 50.3635 283.06 51.5193 277.071C52.1743 273.632 52.5999 270.193 52.7919 266.676C52.869 265.246 52.8294 263.818 52.8294 262.387C52.8294 260.764 54.2167 257.015 51.5589 256.63C50.8642 256.512 50.1716 256.783 49.4768 256.977C46.6646 257.828 43.698 258.058 40.8461 257.673Z" fill="#808184"/>
<path d="M2.73501 109.317C0.191903 113.298 -2.98356e-05 118.863 5.20301 120.524C7.12859 121.142 9.21064 121.104 11.2134 121.026C17.9185 120.834 24.6612 120.641 31.3663 120.446C32.4845 120.409 33.6779 120.409 34.527 121.142C35.4136 121.877 35.6055 123.152 35.4512 124.273C35.2968 125.393 34.8733 126.476 34.6417 127.596C34.2182 129.837 34.8357 132.696 36.4922 134.397C38.1883 136.097 41.0777 136.137 43.3892 136.445C45.7008 136.755 48.0916 137.025 50.2863 136.33C53.255 135.402 55.5269 132.736 56.4907 129.76C58.1096 124.93 57.6861 116.467 53.9872 112.603C48.1667 106.418 40.3058 102.207 31.9442 100.738C25.5479 99.6179 18.342 99.7331 12.1773 101.899C8.90188 102.979 4.97144 105.8 2.73501 109.317Z" fill="#F58B69"/>
<path d="M64.5457 69.1284C64.1201 69.7839 63.5818 70.4415 62.8099 70.5567C62.0005 70.674 61.3079 70.0939 60.6903 69.5535C58.1472 67.2728 55.5666 64.9543 53.0235 62.6736C52.2912 62.018 51.5193 61.3206 51.3274 60.3551C51.0958 59.1969 51.7133 58.0765 52.3288 57.0712C52.9066 56.1434 53.5617 55.1381 54.6027 54.8679C55.6041 54.5977 56.6076 55.1004 57.4922 55.5632C59.1111 56.4135 60.73 57.3413 62.2717 58.3068C63.5047 59.0797 65.3155 59.8923 66.2397 61.0902C67.821 63.1385 65.7014 67.2728 64.5457 69.1284Z" fill="#F8BCBB"/>
<path d="M73.4079 70.5966C73.7542 71.2543 74.2549 71.9098 74.9496 72.0271C75.6819 72.1423 76.2973 71.5621 76.8376 71.0218C79.1095 68.741 81.3835 66.4226 83.6575 64.1418C84.3126 63.4863 84.9677 62.791 85.1596 61.8234C85.3912 60.6652 84.8133 59.5447 84.275 58.5394C83.7722 57.6116 83.1944 56.6063 82.2702 56.3362C81.3835 56.066 80.4969 56.5686 79.6895 57.0315C78.2625 57.8818 76.8376 58.8096 75.4503 59.7751C74.3321 60.5479 72.7528 61.3605 71.9434 62.5585C70.5185 64.6068 72.4065 68.741 73.4079 70.5966Z" fill="#F8BCBB"/>
<path d="M70.942 17.0355C75.4879 17.8858 82.5393 19.1214 85.1221 23.9531C89.3613 31.9138 87.9739 47.6424 84.7361 55.8334C83.1569 59.8923 80.305 63.5637 76.4517 64.992C73.2911 66.1523 69.7863 65.6497 66.6632 64.5292C58.7251 61.6704 52.214 54.7129 49.4393 46.1721C47.4366 40.0294 47.4366 33.1117 49.2474 26.8517C51.0186 20.7446 54.6799 17.9235 60.538 16.7653C63.9657 16.07 67.5123 16.3778 70.942 17.0355Z" fill="#F58B69"/>
<path d="M84.3126 61.0504C86.5469 58.4617 87.9342 55.138 88.3974 51.6614C88.629 49.9608 89.5532 45.2841 87.0872 45.1291C87.4336 45.749 87.0101 46.5972 86.3925 46.8695C85.7771 47.1397 85.0448 46.947 84.5045 46.5595C83.9266 46.2119 83.4656 45.7092 82.8877 45.3238C81.5775 44.4337 79.9962 44.1636 78.4169 44.1636C76.4141 44.1636 74.4093 44.5112 72.5588 45.4767C70.7479 46.4045 69.1311 47.9502 68.2445 49.8833C67.3182 51.8917 65.6617 53.7473 63.8133 54.8301C62.232 55.7181 60.1896 55.9108 58.725 54.7903C57.6089 53.94 57.031 52.5117 56.7598 51.0414C56.4531 49.6131 56.4135 48.1052 56.1444 46.6747C55.99 45.8642 55.4893 44.8987 54.7195 45.0139C54.2167 45.0914 53.91 45.6317 53.6785 46.1344C52.0596 49.766 52.3287 54.2102 54.0623 57.7664C55.7584 61.3205 58.8022 63.9888 62.232 65.4946C69.1311 68.5482 78.9176 67.2727 84.3126 61.0504Z" fill="#2C313F"/>
<path d="M57.878 42.0778C57.3773 42.8506 56.8766 43.6235 56.3363 44.3963C56.0296 44.8214 55.7209 45.2843 55.2202 45.5168C53.0234 46.7147 53.8704 42.6559 53.9476 41.6527C54.1019 39.7594 54.3335 36.0482 51.9052 35.3528C50.9038 35.0827 49.8252 35.468 49.1305 36.2032C48.4378 36.976 48.2063 38.0588 48.3607 39.062C48.515 40.0672 49.1305 40.995 49.9024 41.6527C50.7118 42.3082 51.7132 42.7732 52.2911 43.6235C52.8293 44.434 52.9065 45.477 52.5999 46.3671C52.2139 47.6027 51.2501 49.3808 49.6708 48.7232C49.2077 48.5305 48.8217 48.1431 48.4754 47.7577C46.2014 45.1293 45.0456 41.5752 45.3544 38.0965C45.8176 33.0721 50.2487 25.8843 56.1047 28.3577C57.9552 29.1305 59.4197 30.7159 59.9601 32.6867C60.4983 34.735 60.1895 36.9383 59.4197 38.9091C59.0734 40.0295 58.5331 41.0725 57.878 42.0778Z" fill="#2C313F"/>
<path d="M88.0511 10.4655C83.7723 4.36049 76.2974 0.689081 68.86 0.921555C61.4226 1.15193 54.2564 5.32599 50.2488 11.6258C47.8976 15.2972 46.3183 19.5865 45.7008 23.8757C45.3941 26.0392 45.317 28.2801 45.6633 30.4457C45.778 31.2185 45.8948 32.9191 46.4727 33.4595C47.0506 33.9998 49.0534 33.8071 49.8253 33.8846C53.4845 34.3098 57.1083 35.0428 60.73 35.8554C64.0825 36.5884 67.2035 38.0587 70.5185 38.9844C77.2612 40.84 84.3523 41.3803 91.2869 40.5321C94.1784 40.1824 97.1825 39.5268 99.4565 37.711C101.768 35.8931 103.118 32.6092 101.962 29.9431C101.23 28.2424 99.6485 27.0822 98.0692 26.1565C96.6047 25.3061 94.9106 24.571 93.638 23.3731C92.3279 22.0976 92.2903 20.0493 91.7876 18.3885C90.9406 15.6051 89.7452 12.8615 88.0511 10.4655Z" fill="#F7C014"/>
<path d="M69.9783 1.34646C68.7453 0.921303 67.0117 0.726528 66.3941 1.9245C65.8559 2.96958 66.6633 4.12776 67.3955 5.05556C71.0965 9.69247 73.794 15.1022 75.2564 20.8617C75.9115 23.4126 76.4143 26.2316 78.417 27.9322C79.7272 29.0527 81.5005 29.5176 83.2341 29.4025C85.9316 29.2077 89.3614 27.662 90.6715 25.1509C91.8273 22.8702 90.0164 20.2815 89.0526 18.2333C86.6242 13.2487 82.8878 8.88195 78.3795 5.6734C75.7967 3.81989 72.9845 2.34965 69.9783 1.34646Z" fill="#D6A229"/>
<path d="M78.0311 77.0493C83.8892 91.3098 94.9858 103.289 108.705 110.245C112.867 106.573 114.678 100.701 113.985 95.2891C113.253 89.6469 109.552 86.7504 105.93 82.8088C99.8426 76.199 92.7911 71.3694 84.7362 67.5828C86.1632 64.5292 86.1236 60.8201 84.5443 57.8043C83.0026 54.8303 79.9963 52.627 76.6834 52.0469C72.3295 55.4083 69.5923 60.3552 68.3594 65.7272C70.479 65.9974 72.7133 67.3105 73.6772 69.2059C74.6785 71.1369 79.0346 75.156 78.0311 77.0493Z" fill="#F58B69"/>
<path d="M74.1401 199.32C74.0233 199.32 73.8689 199.28 73.7542 199.205C73.4079 198.972 73.291 198.507 73.4851 198.16C79.6499 187.65 83.8494 176.249 85.8918 164.231C85.969 163.806 86.355 163.536 86.7785 163.613C87.202 163.691 87.4732 164.076 87.396 164.501C85.3139 176.714 81.0768 188.306 74.7952 198.972C74.6408 199.205 74.4093 199.32 74.1401 199.32Z" fill="#231F20"/>
<path d="M103.195 272.551C104.234 272.627 105.544 272.434 106.508 272.511C109.399 272.666 112.289 273.052 115.024 274.019C118.994 275.41 122.653 278.076 124.389 281.94C125.313 283.989 125.776 287.197 124.157 289.051C122.616 290.829 119.495 291.216 117.298 291.447C113.367 291.911 109.437 292.104 105.507 292.027C102.231 291.949 98.8786 292.066 96.2583 289.786C95.1025 288.78 93.9468 287.622 92.405 287.427C91.3265 287.275 90.2479 287.622 89.3216 288.2C87.6276 289.245 87.2792 290.521 85.1992 290.366C83.3487 290.249 81.5003 290.018 79.6499 289.941C76.7604 289.863 76.6436 289.128 76.3745 286.347C76.1429 283.951 76.1826 281.555 76.5664 279.197C76.9148 276.918 77.6075 274.637 79.072 272.821C80.3049 271.276 81.807 270.733 83.62 270.231C85.1596 269.808 86.5094 269.073 88.1283 268.763C91.9419 268.067 95.912 268.957 99.3417 270.618C100.343 271.121 101.422 272.086 102.463 272.396C102.694 272.474 102.924 272.511 103.195 272.551Z" fill="#231F20"/>
<path d="M37.3392 272.551C36.2982 272.627 34.988 272.434 34.0263 272.511C31.1348 272.666 28.2453 273.052 25.5103 274.019C21.5402 275.41 17.8789 278.076 16.1453 281.94C15.2211 283.989 14.7579 287.197 16.3768 289.051C17.9185 290.829 21.0395 291.216 23.2363 291.447C27.1668 291.911 31.0972 292.104 35.0277 292.027C38.303 291.949 41.6556 292.066 44.2759 289.786C45.4317 288.78 46.5874 287.622 48.1291 287.427C49.2077 287.275 50.2863 287.622 51.2126 288.2C52.9066 289.245 53.255 290.521 55.335 290.366C57.1854 290.249 59.0338 290.018 60.8843 289.941C63.7737 289.863 63.8906 289.128 64.1597 286.347C64.3912 283.951 64.3516 281.555 63.9657 279.197C63.6193 276.918 62.9267 274.637 61.4622 272.821C60.2292 271.276 58.7251 270.733 56.9142 270.231C55.3746 269.808 54.0248 269.073 52.4059 268.763C48.5923 268.067 44.6222 268.957 41.1924 270.618C40.1911 271.121 39.1125 272.086 38.0715 272.396C37.8399 272.474 37.6083 272.511 37.3392 272.551Z" fill="#231F20"/>
<path d="M69.6319 135.942C57.9178 135.325 47.4366 136.64 41.9645 148.347C37.4561 157.971 37.9568 168.558 38.4575 178.877C39.0354 190.199 39.5736 201.523 40.1536 212.805C40.3059 216.246 40.9234 219.993 40.3059 223.394C39.6905 226.756 38.6119 230.157 38.034 233.596C36.7239 241.094 35.7976 248.629 35.2593 256.205C35.0278 259.643 34.8358 263.16 35.6057 266.561C36.3755 269.96 38.1488 273.207 41.0778 275.1C45.3546 277.806 50.9039 276.993 55.7982 275.72C59.5346 274.752 63.5819 273.324 65.5847 270C66.9345 267.759 67.166 265.053 67.3183 262.465C68.2822 248.244 68.5137 233.751 70.2098 219.608C71.8287 205.967 75.9887 192.17 78.8802 178.722C80.4219 171.534 81.9615 164.346 83.4657 157.158C84.5818 151.981 85.6228 144.716 81.9615 140.234C79.1493 136.793 74.1403 136.175 69.6319 135.942Z" fill="#296787"/>
<path d="M74.8328 139.769C79.9962 139.421 88.7062 137.413 92.4051 142.242C94.871 145.449 93.83 149.043 94.2556 152.714C94.8334 157.816 95.7576 162.918 96.5671 167.98C98.186 178.181 99.8425 188.345 101.23 198.585C102.694 209.444 103.888 220.381 104.311 231.355C104.737 241.982 103.31 252.571 105.507 263.005C106.162 266.096 106.354 269.535 104.62 272.126C103.349 274.019 101.23 275.177 99.1102 275.95C92.9454 278.153 85.8919 277.536 80.1902 274.289C77.6471 272.859 76.9524 270.58 76.2202 267.759C75.4879 264.938 75.5275 261.962 75.6047 259.063C75.7591 250.64 76.4517 242.059 76.2598 233.713C76.0658 224.902 73.9086 215.744 72.7529 207.048C70.8648 192.865 68.9768 178.722 67.1263 164.541C66.0081 156.656 62.4636 140.581 74.8328 139.769Z" fill="#296787"/>
<path d="M97.6059 148.387C97.8771 149.933 98.1463 151.594 97.6456 153.102C96.8361 155.613 94.293 156.966 91.9043 157.894C76.6832 163.844 59.6888 162.878 43.6979 159.672C39.7675 158.899 35.2967 157.546 33.6778 153.759C32.5992 151.286 33.0624 148.425 33.5631 145.759C35.5679 135.132 39.4984 124.118 40.5373 113.414C41.5783 102.554 41.5387 91.3099 42.1938 80.3732C42.4253 76.2766 42.7341 71.9497 44.8537 68.4709C47.474 64.2194 52.3683 62.0182 57.1854 61.3208C64.4287 60.3176 71.9809 62.4036 77.9162 66.8478C80.2673 68.6259 83.5031 71.2145 84.736 73.9979C86.5469 78.0924 86.5469 84.1996 87.3188 88.6815C90.7485 108.544 94.1783 128.485 97.6059 148.387Z" fill="#231F20"/>
<path d="M98.4926 114.186C95.7575 112.371 93.8695 109.512 92.2902 106.613C88.7833 100.121 86.5865 93.0105 84.4669 85.9378C83.7346 83.4644 82.9648 80.9135 83.1568 78.3248C83.3487 75.7362 84.6213 73.0701 86.9725 71.9873C90.4398 70.404 94.4078 72.7601 97.2221 75.3885C104.351 82.0737 108.782 91.0774 112.02 100.198C115.063 108.699 108.012 120.564 98.4926 114.186Z" fill="#231F20"/>
<path d="M76.0657 72.2572C76.6832 74.5757 77.1839 76.9339 77.5698 79.2901C79.1866 88.9137 79.2638 98.7676 79.0344 108.506C78.9572 112.756 79.7645 116.622 79.9189 120.871C80.1129 126.011 80.3049 131.19 80.4968 136.33C80.6908 140.542 78.9947 152.561 86.163 151.439C89.3987 150.938 92.5969 149.893 95.4884 148.27C97.414 147.149 100.034 146.299 101.152 144.251C102.423 141.972 101.691 139.189 100.998 136.678C96.9905 122.572 94.1011 108.119 92.2902 93.5506C91.5579 87.5607 90.6317 81.4933 88.4349 75.8135C87.3563 73.0301 85.969 70.2864 83.9662 68.0455C82.1553 65.9972 79.341 63.8714 76.5664 63.4463C75.6046 63.2913 74.4488 63.7165 74.1004 64.6443C73.8313 65.3794 74.1004 66.1899 74.3716 66.925C75.0643 68.6633 75.6046 70.4414 76.0657 72.2572Z" fill="#F06A58"/>
<path d="M91.7875 124.273C93.83 123.925 95.6032 123.075 97.3765 122.187C97.9148 124.505 98.4551 126.824 99.0705 129.142C93.7152 131.731 86.2006 132.349 80.3822 131.268C80.305 128.872 80.1902 126.476 80.113 124.08C83.5428 125.161 88.7834 124.813 91.7875 124.273Z" fill="#F8BCBB"/>
<path d="M80.4969 142.823C80.4218 140.272 80.5741 137.798 80.5366 136.29C80.5366 136.137 80.5366 135.982 80.5366 135.79C86.7786 136.87 94.5247 135.79 99.8029 132.001C100.226 133.547 100.612 135.092 101.075 136.64C101.267 137.335 101.461 138.068 101.614 138.803C95.4489 142.435 87.4336 143.673 80.4969 142.823Z" fill="#F8BCBB"/>
<path d="M64.7751 62.5961C65.7785 63.7564 66.4336 65.4172 66.8571 66.7702C68.0504 70.7118 67.8209 74.8858 68.3216 78.9426C70.9795 100.546 72.83 121.915 71.7514 143.75C71.597 146.532 71.3654 149.508 69.4774 151.594C67.9732 153.257 65.7389 153.99 63.5817 154.415C55.1805 156.115 46.4726 154.455 38.1486 152.329C34.9129 151.479 31.2891 150.241 29.9018 147.189C28.7856 144.676 29.5179 141.78 30.2502 139.151C31.867 133.431 33.5255 127.752 35.1424 122.032C36.7237 116.505 39.0352 110.747 39.9991 105.068C40.6917 100.931 39.6507 95.754 39.2272 91.5799C38.6493 86.0529 37.917 80.4882 38.6117 74.9235C39.0352 71.5244 39.6131 67.9682 41.8099 65.3397C45.3169 61.0903 51.5192 60.6651 57.031 60.5479C58.9962 60.7803 62.04 60.7028 63.7361 61.7081C64.0824 61.9008 64.4288 62.2108 64.7751 62.5961Z" fill="#F06A58"/>
<path d="M71.9435 123.23C72.0207 125.548 72.0207 127.904 72.0582 130.225C62.2718 128.717 51.3274 131.808 41.5785 131.808C38.5347 131.808 35.4909 131.653 32.5222 131.268C33.1773 128.95 33.8324 126.669 34.4874 124.35C39.4589 124.891 44.5451 124.775 49.5938 124.505C56.9915 124.118 64.5833 122.34 71.9435 123.23Z" fill="#F8BCBB"/>
<path d="M41.5783 143.943C37.4559 143.943 33.3711 143.633 29.4407 142.9C29.5951 141.625 29.9414 140.31 30.2877 139.112C30.5964 138.069 30.8656 137.026 31.1743 136.02C37.1472 137.141 43.4288 136.988 49.5936 136.678C57.031 136.29 64.6603 134.475 72.058 135.402C72.0205 137.721 71.9433 140.039 71.8285 142.358C62.0775 140.929 51.25 143.981 41.5783 143.943Z" fill="#F8BCBB"/>
<path d="M91.7875 124.273C93.83 123.925 95.6032 123.075 97.3765 122.187C97.9148 124.505 98.4551 126.824 99.0705 129.142C93.7152 131.731 86.2006 132.349 80.3822 131.268C80.305 128.872 80.1902 126.476 80.113 124.08C83.5428 125.161 88.7834 124.813 91.7875 124.273Z" fill="#F8BCBB"/>
<path d="M80.4969 142.823C80.4218 140.272 80.5741 137.798 80.5366 136.29C80.5366 136.137 80.5366 135.982 80.5366 135.79C86.7786 136.87 94.5247 135.79 99.8029 132.001C100.226 133.547 100.612 135.092 101.075 136.64C101.267 137.335 101.461 138.068 101.614 138.803C95.4489 142.435 87.4336 143.673 80.4969 142.823Z" fill="#F8BCBB"/>
<path d="M10.7127 107.076C7.47484 106.381 5.93312 102.324 6.78222 99.1153C7.62922 95.9088 10.0576 93.3956 12.4088 91.0771C18.9199 84.5846 25.4706 78.1319 31.9838 71.6394C34.8357 68.8183 38.1882 65.7647 42.1938 65.9197C45.9323 66.0747 49.0929 69.166 50.4406 72.6824C53.7932 81.1457 50.7118 90.5368 46.0867 97.8398C40.6145 106.496 32.5617 113.143 24.6611 119.673C19.5374 113.106 18.8427 108.777 10.7127 107.076Z" fill="#231F20"/>
<path d="M40.8461 257.673C40.5374 257.633 40.2286 257.595 39.8823 257.518C39.0729 257.363 38.2634 257.17 37.648 256.63C36.1834 255.354 37.0304 251.953 37.1473 250.29C37.648 242.137 38.1883 234.021 38.8434 225.868C39.6132 215.899 40.4226 205.927 41.1925 195.958C42.8489 174.973 44.4678 153.989 46.1264 133.006C46.0867 133.394 46.0492 133.819 46.0095 134.204C45.8552 132.041 45.6236 130.455 43.9671 129.027C42.6194 130.07 41.2321 132.118 39.8823 133.199C38.7265 157.313 36.8385 181.35 34.1807 205.347C33.1772 214.353 32.1758 223.357 31.02 232.323C30.4422 236.842 29.7871 241.404 29.0924 245.923C28.5917 249.287 29.0152 254.116 25.9338 256.32C22.8128 255.432 19.6522 254.542 16.5312 253.614C15.3755 253.266 13.9485 252.996 13.1015 253.846C12.6008 254.349 12.4464 255.082 12.292 255.779C11.7141 258.908 11.0987 262.039 10.5208 265.168C9.51734 270.58 8.4784 276.145 9.4026 281.555C11.9061 296.316 32.4846 303.311 43.698 293.417C48.3983 289.245 50.3635 283.06 51.5193 277.071C52.1743 273.632 52.5999 270.193 52.7919 266.676C52.869 265.246 52.8294 263.818 52.8294 262.387C52.8294 260.764 54.2167 257.015 51.5589 256.63C50.8642 256.512 50.1716 256.783 49.4768 256.977C46.6646 257.828 43.698 258.058 40.8461 257.673Z" fill="#808184"/>
<path d="M2.73501 109.317C0.191903 113.298 -2.98356e-05 118.863 5.20301 120.524C7.12859 121.142 9.21064 121.104 11.2134 121.026C17.9185 120.834 24.6612 120.641 31.3663 120.446C32.4845 120.409 33.6779 120.409 34.527 121.142C35.4136 121.877 35.6055 123.152 35.4512 124.273C35.2968 125.393 34.8733 126.476 34.6417 127.596C34.2182 129.837 34.8357 132.696 36.4922 134.397C38.1883 136.097 41.0777 136.137 43.3892 136.445C45.7008 136.755 48.0916 137.025 50.2863 136.33C53.255 135.402 55.5269 132.736 56.4907 129.76C58.1096 124.93 57.6861 116.467 53.9872 112.603C48.1667 106.418 40.3058 102.207 31.9442 100.738C25.5479 99.6179 18.342 99.7331 12.1773 101.899C8.90188 102.979 4.97144 105.8 2.73501 109.317Z" fill="#F58B69"/>
<path d="M64.5457 69.1284C64.1201 69.7839 63.5818 70.4415 62.8099 70.5567C62.0005 70.674 61.3079 70.0939 60.6903 69.5535C58.1472 67.2728 55.5666 64.9543 53.0235 62.6736C52.2912 62.018 51.5193 61.3206 51.3274 60.3551C51.0958 59.1969 51.7133 58.0765 52.3288 57.0712C52.9066 56.1434 53.5617 55.1381 54.6027 54.8679C55.6041 54.5977 56.6076 55.1004 57.4922 55.5632C59.1111 56.4135 60.73 57.3413 62.2717 58.3068C63.5047 59.0797 65.3155 59.8923 66.2397 61.0902C67.821 63.1385 65.7014 67.2728 64.5457 69.1284Z" fill="#F8BCBB"/>
<path d="M73.4079 70.5966C73.7542 71.2543 74.2549 71.9098 74.9496 72.0271C75.6819 72.1423 76.2973 71.5621 76.8376 71.0218C79.1095 68.741 81.3835 66.4226 83.6575 64.1418C84.3126 63.4863 84.9677 62.791 85.1596 61.8234C85.3912 60.6652 84.8133 59.5447 84.275 58.5394C83.7722 57.6116 83.1944 56.6063 82.2702 56.3362C81.3835 56.066 80.4969 56.5686 79.6895 57.0315C78.2625 57.8818 76.8376 58.8096 75.4503 59.7751C74.3321 60.5479 72.7528 61.3605 71.9434 62.5585C70.5185 64.6068 72.4065 68.741 73.4079 70.5966Z" fill="#F8BCBB"/>
<path d="M70.942 17.0355C75.4879 17.8858 82.5393 19.1214 85.1221 23.9531C89.3613 31.9138 87.9739 47.6424 84.7361 55.8334C83.1569 59.8923 80.305 63.5637 76.4517 64.992C73.2911 66.1523 69.7863 65.6497 66.6632 64.5292C58.7251 61.6704 52.214 54.7129 49.4393 46.1721C47.4366 40.0294 47.4366 33.1117 49.2474 26.8517C51.0186 20.7446 54.6799 17.9235 60.538 16.7653C63.9657 16.07 67.5123 16.3778 70.942 17.0355Z" fill="#F58B69"/>
<path d="M84.3126 61.0504C86.5469 58.4617 87.9342 55.138 88.3974 51.6614C88.629 49.9608 89.5532 45.2841 87.0872 45.1291C87.4336 45.749 87.0101 46.5972 86.3925 46.8695C85.7771 47.1397 85.0448 46.947 84.5045 46.5595C83.9266 46.2119 83.4656 45.7092 82.8877 45.3238C81.5775 44.4337 79.9962 44.1636 78.4169 44.1636C76.4141 44.1636 74.4093 44.5112 72.5588 45.4767C70.7479 46.4045 69.1311 47.9502 68.2445 49.8833C67.3182 51.8917 65.6617 53.7473 63.8133 54.8301C62.232 55.7181 60.1896 55.9108 58.725 54.7903C57.6089 53.94 57.031 52.5117 56.7598 51.0414C56.4531 49.6131 56.4135 48.1052 56.1444 46.6747C55.99 45.8642 55.4893 44.8987 54.7195 45.0139C54.2167 45.0914 53.91 45.6317 53.6785 46.1344C52.0596 49.766 52.3287 54.2102 54.0623 57.7664C55.7584 61.3205 58.8022 63.9888 62.232 65.4946C69.1311 68.5482 78.9176 67.2727 84.3126 61.0504Z" fill="#2C313F"/>
<path d="M57.878 42.0778C57.3773 42.8506 56.8766 43.6235 56.3363 44.3963C56.0296 44.8214 55.7209 45.2843 55.2202 45.5168C53.0234 46.7147 53.8704 42.6559 53.9476 41.6527C54.1019 39.7594 54.3335 36.0482 51.9052 35.3528C50.9038 35.0827 49.8252 35.468 49.1305 36.2032C48.4378 36.976 48.2063 38.0588 48.3607 39.062C48.515 40.0672 49.1305 40.995 49.9024 41.6527C50.7118 42.3082 51.7132 42.7732 52.2911 43.6235C52.8293 44.434 52.9065 45.477 52.5999 46.3671C52.2139 47.6027 51.2501 49.3808 49.6708 48.7232C49.2077 48.5305 48.8217 48.1431 48.4754 47.7577C46.2014 45.1293 45.0456 41.5752 45.3544 38.0965C45.8176 33.0721 50.2487 25.8843 56.1047 28.3577C57.9552 29.1305 59.4197 30.7159 59.9601 32.6867C60.4983 34.735 60.1895 36.9383 59.4197 38.9091C59.0734 40.0295 58.5331 41.0725 57.878 42.0778Z" fill="#2C313F"/>
<path d="M88.0511 10.4655C83.7723 4.36049 76.2974 0.689081 68.86 0.921555C61.4226 1.15193 54.2564 5.32599 50.2488 11.6258C47.8976 15.2972 46.3183 19.5865 45.7008 23.8757C45.3941 26.0392 45.317 28.2801 45.6633 30.4457C45.778 31.2185 45.8948 32.9191 46.4727 33.4595C47.0506 33.9998 49.0534 33.8071 49.8253 33.8846C53.4845 34.3098 57.1083 35.0428 60.73 35.8554C64.0825 36.5884 67.2035 38.0587 70.5185 38.9844C77.2612 40.84 84.3523 41.3803 91.2869 40.5321C94.1784 40.1824 97.1825 39.5268 99.4565 37.711C101.768 35.8931 103.118 32.6092 101.962 29.9431C101.23 28.2424 99.6485 27.0822 98.0692 26.1565C96.6047 25.3061 94.9106 24.571 93.638 23.3731C92.3279 22.0976 92.2903 20.0493 91.7876 18.3885C90.9406 15.6051 89.7452 12.8615 88.0511 10.4655Z" fill="#F7C014"/>
<path d="M69.9783 1.34646C68.7453 0.921303 67.0117 0.726528 66.3941 1.9245C65.8559 2.96958 66.6633 4.12776 67.3955 5.05556C71.0965 9.69247 73.794 15.1022 75.2564 20.8617C75.9115 23.4126 76.4143 26.2316 78.417 27.9322C79.7272 29.0527 81.5005 29.5176 83.2341 29.4025C85.9316 29.2077 89.3614 27.662 90.6715 25.1509C91.8273 22.8702 90.0164 20.2815 89.0526 18.2333C86.6242 13.2487 82.8878 8.88195 78.3795 5.6734C75.7967 3.81989 72.9845 2.34965 69.9783 1.34646Z" fill="#D6A229"/>
<path d="M78.0311 77.0493C83.8892 91.3098 94.9858 103.289 108.705 110.245C112.867 106.573 114.678 100.701 113.985 95.2891C113.253 89.6469 109.552 86.7504 105.93 82.8088C99.8426 76.199 92.7911 71.3694 84.7362 67.5828C86.1632 64.5292 86.1236 60.8201 84.5443 57.8043C83.0026 54.8303 79.9963 52.627 76.6834 52.0469C72.3295 55.4083 69.5923 60.3552 68.3594 65.7272C70.479 65.9974 72.7133 67.3105 73.6772 69.2059C74.6785 71.1369 79.0346 75.156 78.0311 77.0493Z" fill="#F58B69"/>
<path d="M74.1401 199.32C74.0233 199.32 73.8689 199.28 73.7542 199.205C73.4079 198.972 73.291 198.507 73.4851 198.16C79.6499 187.65 83.8494 176.249 85.8918 164.231C85.969 163.806 86.355 163.536 86.7785 163.613C87.202 163.691 87.4732 164.076 87.396 164.501C85.3139 176.714 81.0768 188.306 74.7952 198.972C74.6408 199.205 74.4093 199.32 74.1401 199.32Z" fill="#231F20"/>
<path d="M124.593 45.1134C124.593 43.3534 125.113 41.6734 126.153 40.0734C127.233 38.4734 128.393 37.1934 129.633 36.2334C130.873 35.2334 132.013 34.0734 133.053 32.7534C134.133 31.4334 134.673 30.1134 134.673 28.7934C134.673 27.3934 134.193 26.3134 133.233 25.5534C132.273 24.7934 130.933 24.4134 129.213 24.4134C125.853 24.4134 123.473 26.1934 122.073 29.7534L114.993 25.6734C116.193 22.7134 118.093 20.4334 120.693 18.8334C123.333 17.1934 126.273 16.3734 129.513 16.3734C133.153 16.3734 136.293 17.4334 138.933 19.5534C141.613 21.6334 142.953 24.5134 142.953 28.1934C142.953 29.8734 142.593 31.4334 141.873 32.8734C141.193 34.3134 140.353 35.5534 139.353 36.5934C138.393 37.5934 137.413 38.5534 136.413 39.4734C135.453 40.3534 134.613 41.2734 133.893 42.2334C133.213 43.1934 132.873 44.1534 132.873 45.1134H124.593ZM132.333 58.4934C131.333 59.4934 130.133 59.9934 128.733 59.9934C127.333 59.9934 126.133 59.4934 125.133 58.4934C124.133 57.4934 123.633 56.2934 123.633 54.8934C123.633 53.4934 124.133 52.2934 125.133 51.2934C126.133 50.2934 127.333 49.7934 128.733 49.7934C130.133 49.7934 131.333 50.2934 132.333 51.2934C133.333 52.2934 133.833 53.4934 133.833 54.8934C133.833 56.2934 133.333 57.4934 132.333 58.4934Z" fill="#E9B21A"/>
</svg>
