<svg width="130" height="130" viewBox="0 0 130 130" fill="none" xmlns="http://www.w3.org/2000/svg">
<g id="Vector">
<path d="M5 10C7.76142 10 10 7.76142 10 5C10 2.23858 7.76142 0 5 0C2.23858 0 0 2.23858 0 5C0 7.76142 2.23858 10 5 10Z" fill="#FFBB00" fill-opacity="0.3"/>
<path d="M35 10C37.7614 10 40 7.76142 40 5C40 2.23858 37.7614 0 35 0C32.2386 0 30 2.23858 30 5C30 7.76142 32.2386 10 35 10Z" fill="#FFBB00" fill-opacity="0.3"/>
<path d="M65 10C67.7614 10 70 7.76142 70 5C70 2.23858 67.7614 0 65 0C62.2386 0 60 2.23858 60 5C60 7.76142 62.2386 10 65 10Z" fill="#FFBB00" fill-opacity="0.3"/>
<path d="M95 10C97.7614 10 100 7.76142 100 5C100 2.23858 97.7614 0 95 0C92.2386 0 90 2.23858 90 5C90 7.76142 92.2386 10 95 10Z" fill="#FFBB00" fill-opacity="0.3"/>
<path d="M125 10C127.761 10 130 7.76142 130 5C130 2.23858 127.761 0 125 0C122.239 0 120 2.23858 120 5C120 7.76142 122.239 10 125 10Z" fill="#FFBB00" fill-opacity="0.3"/>
<path d="M5 40C7.76142 40 10 37.7614 10 35C10 32.2386 7.76142 30 5 30C2.23858 30 0 32.2386 0 35C0 37.7614 2.23858 40 5 40Z" fill="#FFBB00" fill-opacity="0.3"/>
<path d="M35 40C37.7614 40 40 37.7614 40 35C40 32.2386 37.7614 30 35 30C32.2386 30 30 32.2386 30 35C30 37.7614 32.2386 40 35 40Z" fill="#FFBB00" fill-opacity="0.3"/>
<path d="M65 40C67.7614 40 70 37.7614 70 35C70 32.2386 67.7614 30 65 30C62.2386 30 60 32.2386 60 35C60 37.7614 62.2386 40 65 40Z" fill="#FFBB00" fill-opacity="0.3"/>
<path d="M95 40C97.7614 40 100 37.7614 100 35C100 32.2386 97.7614 30 95 30C92.2386 30 90 32.2386 90 35C90 37.7614 92.2386 40 95 40Z" fill="#FFBB00" fill-opacity="0.3"/>
<path d="M125 40C127.761 40 130 37.7614 130 35C130 32.2386 127.761 30 125 30C122.239 30 120 32.2386 120 35C120 37.7614 122.239 40 125 40Z" fill="#FFBB00" fill-opacity="0.3"/>
<path d="M5 70C7.76142 70 10 67.7614 10 65C10 62.2386 7.76142 60 5 60C2.23858 60 0 62.2386 0 65C0 67.7614 2.23858 70 5 70Z" fill="#FFBB00" fill-opacity="0.3"/>
<path d="M35 70C37.7614 70 40 67.7614 40 65C40 62.2386 37.7614 60 35 60C32.2386 60 30 62.2386 30 65C30 67.7614 32.2386 70 35 70Z" fill="#FFBB00" fill-opacity="0.3"/>
<path d="M65 70C67.7614 70 70 67.7614 70 65C70 62.2386 67.7614 60 65 60C62.2386 60 60 62.2386 60 65C60 67.7614 62.2386 70 65 70Z" fill="#FFBB00" fill-opacity="0.3"/>
<path d="M95 70C97.7614 70 100 67.7614 100 65C100 62.2386 97.7614 60 95 60C92.2386 60 90 62.2386 90 65C90 67.7614 92.2386 70 95 70Z" fill="#FFBB00" fill-opacity="0.3"/>
<path d="M125 70C127.761 70 130 67.7614 130 65C130 62.2386 127.761 60 125 60C122.239 60 120 62.2386 120 65C120 67.7614 122.239 70 125 70Z" fill="#FFBB00" fill-opacity="0.3"/>
<path d="M5 100C7.76142 100 10 97.7614 10 95C10 92.2386 7.76142 90 5 90C2.23858 90 0 92.2386 0 95C0 97.7614 2.23858 100 5 100Z" fill="#FFBB00" fill-opacity="0.3"/>
<path d="M35 100C37.7614 100 40 97.7614 40 95C40 92.2386 37.7614 90 35 90C32.2386 90 30 92.2386 30 95C30 97.7614 32.2386 100 35 100Z" fill="#FFBB00" fill-opacity="0.3"/>
<path d="M65 100C67.7614 100 70 97.7614 70 95C70 92.2386 67.7614 90 65 90C62.2386 90 60 92.2386 60 95C60 97.7614 62.2386 100 65 100Z" fill="#FFBB00" fill-opacity="0.3"/>
<path d="M95 100C97.7614 100 100 97.7614 100 95C100 92.2386 97.7614 90 95 90C92.2386 90 90 92.2386 90 95C90 97.7614 92.2386 100 95 100Z" fill="#FFBB00" fill-opacity="0.3"/>
<path d="M125 100C127.761 100 130 97.7614 130 95C130 92.2386 127.761 90 125 90C122.239 90 120 92.2386 120 95C120 97.7614 122.239 100 125 100Z" fill="#FFBB00" fill-opacity="0.3"/>
<path d="M5 130C7.76142 130 10 127.761 10 125C10 122.239 7.76142 120 5 120C2.23858 120 0 122.239 0 125C0 127.761 2.23858 130 5 130Z" fill="#FFBB00" fill-opacity="0.3"/>
<path d="M35 130C37.7614 130 40 127.761 40 125C40 122.239 37.7614 120 35 120C32.2386 120 30 122.239 30 125C30 127.761 32.2386 130 35 130Z" fill="#FFBB00" fill-opacity="0.3"/>
<path d="M65 130C67.7614 130 70 127.761 70 125C70 122.239 67.7614 120 65 120C62.2386 120 60 122.239 60 125C60 127.761 62.2386 130 65 130Z" fill="#FFBB00" fill-opacity="0.3"/>
<path d="M95 130C97.7614 130 100 127.761 100 125C100 122.239 97.7614 120 95 120C92.2386 120 90 122.239 90 125C90 127.761 92.2386 130 95 130Z" fill="#FFBB00" fill-opacity="0.3"/>
<path d="M125 130C127.761 130 130 127.761 130 125C130 122.239 127.761 120 125 120C122.239 120 120 122.239 120 125C120 127.761 122.239 130 125 130Z" fill="#FFBB00" fill-opacity="0.3"/>
</g>
</svg>
