<svg width="189" height="50" viewBox="0 0 189 50" fill="none" xmlns="http://www.w3.org/2000/svg">
<path d="M77.5355 16.4243H73.2881V12.101H83.1516V7.80902H68.7811V30.5769H77.5355C81.9796 30.5769 85.1101 27.679 85.1101 23.4888C85.1101 19.3222 81.9796 16.4243 77.5355 16.4243ZM77.5355 26.3789H73.2881V20.6223H77.5355C79.2345 20.6223 80.6346 21.6013 80.6346 23.4888C80.6346 25.4077 79.2345 26.3789 77.5355 26.3789Z" fill="#FFC421"/>
<path d="M99.8747 7.80902L95.3676 18.8053L90.373 7.80902H85.8659L93.3462 23.716C92.3944 25.6348 91.0258 26.606 88.5088 26.3789V30.5769C92.5911 30.804 95.6272 28.8851 97.5228 24.2955L104.382 7.80902H99.8747Z" fill="#FFC421"/>
<path d="M123.75 26.2849V7.80902H108.664V18.5781C108.664 22.5725 107.846 24.789 106.768 26.2849H104.542V34.9394H109.049V30.5769H121.697V34.9394H126.204V26.2849H123.75ZM111.597 26.2849C112.447 24.8203 113.171 22.5412 113.171 18.6408V12.007H119.243V26.2849H111.597Z" fill="#FFC421"/>
<path d="M143.677 7.80902H126.852V12.101H132.995V30.5769H137.502V12.101H143.677V7.80902Z" fill="#FFC421"/>
<path d="M150.042 26.2849V21.1784H158.702V16.9491H150.042V12.101H159.512V7.80902H145.535V30.5769H159.677V26.2849H150.042Z" fill="#FFC421"/>
<path d="M179.598 30.5769L172.582 18.8679L179.213 7.80902H174.116L170.034 14.6386L165.951 7.80902H160.855L167.485 18.8992L160.493 30.5769H165.59L170.034 23.1599L174.47 30.5769H179.598Z" fill="#FFC421"/>
<path d="M69.2914 48.2134C70.2195 48.2134 71.0848 47.7591 71.6196 47.0385L70.8095 46.5216C70.4791 46.9759 69.9836 47.25 69.3543 47.25C68.434 47.25 67.8992 46.5765 68.0722 45.6131C68.2374 44.6498 69.0082 43.9762 69.9678 43.9762C70.5814 43.9762 70.9589 44.2503 71.1634 44.6733L72.068 44.2033C71.7376 43.4828 71.0376 43.0207 70.0622 43.0207C68.5914 43.0207 67.3329 44.078 67.089 45.5426C66.8373 46.9916 67.7419 48.2134 69.2914 48.2134Z" fill="#464B51"/>
<path d="M77.5253 43.1147H73.7734L72.8924 48.1115H73.8835L74.5993 44.0623H76.369L75.6533 48.1115H76.6443L77.5253 43.1147Z" fill="#464B51"/>
<path d="M82.1552 44.0623L82.3204 43.1147H79.2527L78.3718 48.1115H81.4787L81.6439 47.1717H79.528L79.7247 46.0517H81.6203L81.7934 45.1275H79.882L80.0786 44.0623H82.1552Z" fill="#464B51"/>
<path d="M86.8874 47.1717L87.6031 43.1147H86.6121L85.8963 47.1717H84.1265L84.8423 43.1147H83.8512L82.9703 48.1115H86.266L86.0929 49.067H87.084L87.4222 47.1717H86.8874Z" fill="#464B51"/>
<path d="M92.9149 43.1147H89.2259L89.0607 44.0623H90.4057L89.69 48.1115H90.681L91.3968 44.0623H92.7497L92.9149 43.1147Z" fill="#464B51"/>
<path d="M97.1681 44.0623L97.3333 43.1147H94.2657L93.3847 48.1115H96.4916L96.6568 47.1717H94.541L94.7376 46.0517H96.6332L96.8063 45.1275H94.8949L95.0915 44.0623H97.1681Z" fill="#464B51"/>
<path d="M102.6 43.1147H101.428L100.288 44.6184L99.635 43.1147H98.5731L99.6035 45.5034L97.6057 48.1115H98.7776L100.028 46.4746L100.736 48.1115H101.806L100.705 45.5896L102.6 43.1147Z" fill="#464B51"/>
<path d="M106.891 43.1147L106.537 45.104H104.673L105.027 43.1147H104.036L103.155 48.1115H104.146L104.507 46.0439H106.372L106.01 48.1115H106.993L107.874 43.1147H106.891Z" fill="#464B51"/>
<path d="M109.601 43.1147L108.72 48.1115H109.711L110.592 43.1147H109.601Z" fill="#464B51"/>
<path d="M116.232 43.1147H115.045L112.937 45.2606L113.314 43.1147H112.323L111.442 48.1115H112.433L112.858 45.6992L114.321 48.1115H115.359L113.818 45.5739L116.232 43.1147Z" fill="#464B51"/>
<path d="M119.875 48.1115H120.945L120.064 43.1147H118.837L116.194 48.1115H117.271L117.743 47.2108H119.749L119.875 48.1115ZM118.223 46.2945L119.309 44.2111L119.607 46.2945H118.223Z" fill="#464B51"/>
<path d="M125.703 43.1147L124.822 48.1115H125.813L126.694 43.1147H125.703Z" fill="#464B51"/>
<path d="M132.607 45.01H131.671L131.844 44.0623H134.007L134.173 43.1147H131.019L130.138 48.1115H132.057C133.095 48.1115 133.819 47.5476 133.984 46.6313C134.149 45.7149 133.52 45.01 132.607 45.01ZM133.016 46.5529C132.938 46.968 132.6 47.1873 132.214 47.1873H131.294L131.514 45.9264H132.442C132.82 45.9264 133.087 46.1378 133.016 46.5529Z" fill="#464B51"/>
<path d="M138.763 43.1147L137.395 45.5348L136.663 43.1147H135.719L136.797 46.5843C136.521 47.0229 136.199 47.25 135.648 47.1952L135.491 48.1115C136.388 48.1585 137.088 47.8296 137.709 46.7331L139.778 43.1147H138.763Z" fill="#464B51"/>
<path d="M144.972 43.1147H141.661L141.252 45.4799C141.094 46.3571 140.835 46.8427 140.528 47.1717H140.048L139.71 49.067H140.693L140.858 48.1115H143.643L143.47 49.067H144.461L144.799 47.1717H144.256L144.972 43.1147ZM141.629 47.1717C141.849 46.8584 142.077 46.3571 142.227 45.4956L142.486 44.0388H143.831L143.265 47.1717H141.629Z" fill="#464B51"/>
<path d="M146.97 43.1147L146.089 48.1115H147.08L147.961 43.1147H146.97Z" fill="#464B51"/>
<path d="M152.94 44.5558C153.074 43.7099 152.453 43.1147 151.595 43.1147H149.692L148.811 48.1115H150.879C152.004 48.1115 152.641 47.5006 152.752 46.7017C152.822 46.1692 152.634 45.7776 152.303 45.5504C152.641 45.3233 152.877 44.9865 152.94 44.5558ZM151.477 44.0388C151.839 44.0388 152.004 44.2973 151.949 44.5871C151.894 44.9004 151.627 45.1353 151.289 45.1353H150.321L150.518 44.0388H151.477ZM151.784 46.5999C151.721 46.9367 151.438 47.1873 151.06 47.1873H149.967L150.172 46.0125H151.281C151.65 46.0125 151.839 46.2632 151.784 46.5999Z" fill="#464B51"/>
<path d="M157.683 43.1147L157.329 45.104H155.464L155.818 43.1147H154.827L153.946 48.1115H154.937L155.299 46.0439H157.163L156.802 48.1115H157.785L158.666 43.1147H157.683Z" fill="#464B51"/>
<path d="M159.512 48.1115H160.267L162.941 45.1275L162.414 48.1115H163.405L164.286 43.1147H163.531L160.849 46.0987L161.384 43.1147H160.393L159.512 48.1115Z" fill="#464B51"/>
<path d="M169.051 47.1717L169.767 43.1147H168.776L168.06 47.1717H166.291L167.006 43.1147H166.015L165.134 48.1115H168.43L168.257 49.067H169.248L169.586 47.1717H169.051Z" fill="#464B51"/>
<path d="M175.079 43.1147H171.39L171.225 44.0623H172.57L171.854 48.1115H172.845L173.561 44.0623H174.914L175.079 43.1147Z" fill="#464B51"/>
<path d="M179.678 44.5558C179.812 43.7099 179.191 43.1147 178.333 43.1147H176.43L175.549 48.1115H177.617C178.742 48.1115 179.379 47.5006 179.489 46.7017C179.56 46.1692 179.371 45.7776 179.041 45.5504C179.379 45.3233 179.615 44.9865 179.678 44.5558ZM178.215 44.0388C178.577 44.0388 178.742 44.2973 178.687 44.5871C178.632 44.9004 178.365 45.1353 178.026 45.1353H177.059L177.256 44.0388H178.215ZM178.522 46.5999C178.459 46.9367 178.176 47.1873 177.798 47.1873H176.705L176.91 46.0125H178.019C178.388 46.0125 178.577 46.2632 178.522 46.5999Z" fill="#464B51"/>
<path d="M183.068 48.2134C184.625 48.2134 185.836 47.156 186.096 45.6914C186.356 44.2347 185.364 43.0207 183.933 43.0207C182.383 43.0207 181.156 44.078 180.905 45.5426C180.645 46.9994 181.62 48.2134 183.068 48.2134ZM183.186 47.25C182.265 47.25 181.715 46.5686 181.888 45.6131C182.061 44.6498 182.863 43.9762 183.783 43.9762C184.696 43.9762 185.278 44.6654 185.113 45.6209C184.94 46.5843 184.114 47.25 183.186 47.25Z" fill="#464B51"/>
<mask id="mask0_62_139" style="mask-type:luminance" maskUnits="userSpaceOnUse" x="0" y="0" width="64" height="50">
<path d="M0 0.0822449H63.051V49.8747H0V0.0822449Z" fill="white"/>
</mask>
<g mask="url(#mask0_62_139)">
<path fill-rule="evenodd" clip-rule="evenodd" d="M14.6085 49.8492C13.175 47.9363 8.55978 49.8453 9.07892 48.0067L4.10586 47.9852L31.4704 3.52053L58.9196 47.8501H54.3811C54.9533 50.0196 49.2488 47.5819 49.0639 49.8492H63.0451L31.5255 0.131195L0.00982666 49.8492H14.6085Z" fill="#FFC421"/>
</g>
<mask id="mask1_62_139" style="mask-type:luminance" maskUnits="userSpaceOnUse" x="11" y="7" width="41" height="43">
<path d="M11.8752 7.04105H51.1405V49.8747H11.8752V7.04105Z" fill="white"/>
</mask>
<g mask="url(#mask1_62_139)">
<path fill-rule="evenodd" clip-rule="evenodd" d="M23.4475 44.4491C24.5133 44.5 26.4148 44.5333 26.4148 44.5333L27.2466 45.5925L27.8208 45.6043C27.8208 45.6043 29.0852 47.4253 29.5827 47.9892C30.0802 48.555 30.9395 49.7847 31.4803 49.7847C32.023 49.7847 48.2636 48.5511 48.2636 48.5511C48.2636 48.5511 50.3677 48.4748 50.9281 43.9537C51.0815 43.2312 50.763 35.5224 50.763 35.5224L50.7374 32.5756L48.8123 31.7121C48.8123 31.7121 48.3266 31.5594 48.1358 31.953C47.5577 31.9823 47.0228 31.8903 46.5961 31.7611L45.4871 26.5292C45.5126 26.5273 45.5382 26.5253 45.5638 26.5194L45.5716 26.5214C45.5775 26.5214 45.5834 26.5214 45.5893 26.5214C45.5933 26.5214 45.5992 26.5214 45.6031 26.5214C45.7014 26.5214 45.7938 26.4803 45.8784 26.4039C45.9334 26.3667 45.9787 26.3158 46.0082 26.2532H46.0101C46.0613 26.1768 46.1085 26.0887 46.1497 25.9869C46.3051 25.6912 46.4644 25.2898 46.3896 24.4988C46.2913 23.4767 45.7152 23.1027 45.2491 23.0949C45.2255 23.091 45.2 23.087 45.1764 23.087C45.1528 23.087 45.1311 23.089 45.1095 23.0929H45.1075C45.0859 23.0968 45.0623 23.1027 45.0407 23.1086C44.9384 23.1399 44.8441 23.2065 44.7595 23.3024C44.7457 23.3181 44.732 23.3337 44.7202 23.3514L44.6159 23.3416L42.1324 23.1007L37.4739 16.1811C37.4739 16.1811 37.6273 15.5467 37.4739 15.1159C37.3205 14.6832 36.6716 13.947 36.6716 13.947C36.6716 13.947 36.4278 13.8843 36.1997 13.6552C35.9696 13.4262 33.4703 9.79402 33.4703 9.79402C33.4703 9.79402 33.6355 8.94424 33.0613 8.61334C32.4871 8.28439 32.9472 8.04159 32.6405 8.16886C32.3357 8.29614 31.7989 7.80076 31.6848 7.76355C31.5688 7.72439 31.0084 7.43265 31.0084 7.43265L30.7921 7.4209L30.5758 7.62258L30.2552 7.59712L29.4785 7.1409L29.2622 7.1272L29.0832 7.35629L28.6231 7.30538L27.8208 7.96523L27.4374 9.50228L27.3213 12.3062L25.9704 14.7341L25.6912 16.2829L22.2342 21.1858L21.4064 23.4336L20.5903 23.4708V24.3852H20.844L20.372 29.1608C20.372 29.1608 20.1813 29.3116 20.1813 29.4643C20.1813 29.617 20.0161 29.5289 20.0161 29.9088C20.0161 30.2906 19.7605 33.6173 19.7605 33.6173L16.917 33.5194L16.7794 31.1228C16.744 31.0875 16.687 31.0679 16.626 31.0581C16.5788 31.0503 16.4687 31.0581 16.453 31.0699L16.3605 33.5135L15.9555 33.5194L15.5406 34.0715L14.6557 34.0833L14.229 34.332L13.9163 35.867C13.7963 36.4525 13.8396 37.3356 13.8258 37.9093C13.8081 38.7336 13.7944 39.3053 13.9222 39.413C13.9812 39.5795 14.1896 39.6186 14.1896 39.6186C14.0028 39.6147 13.8042 39.6127 13.5977 39.6088L12.3038 40.3509C12.3038 40.3509 11.8771 40.9227 12.0049 42.4127C12.1328 43.9047 12.2665 44.2905 12.5024 44.4745C12.7364 44.6586 14.518 45.4144 14.518 45.4144L18.2817 45.2616C18.2817 45.2616 18.8677 44.5 18.8795 42.4675C21.776 42.3168 22.6059 42.3696 22.6059 42.3696C22.6059 42.3696 22.0002 43.9106 23.4475 44.4491ZM35.4859 28.1172L35.4407 28.1152L35.4761 28.1035L29.8482 19.4843L29.4274 19.7251L25.8819 24.1189L26.0097 24.1816L26.0982 24.4988L25.996 25.2624L25.2448 25.1978L24.6962 29.478C24.6962 29.478 24.7217 29.4643 24.7847 29.7051C24.8496 29.9479 24.9262 29.9479 24.9262 29.9479L28.8158 30.1124C28.8158 30.1124 29.4647 30.2397 29.5296 30.7977C29.5925 31.3577 29.6319 32.1958 29.6319 32.1958L29.6633 32.5893L29.8482 31.7513L30.1156 30.925L30.2552 30.7351L30.7016 30.7468L31.2247 31.0777L34.2215 31.2422L34.835 31.1541L35.6117 30.8369C34.8193 30.0419 35.1536 28.6517 35.4859 28.1172ZM24.5054 26.4039L24.1849 29.388C24.1849 29.388 24.122 29.4134 23.9824 29.7189C23.8408 30.0243 23.8152 29.7443 23.7897 30.2142C23.7641 30.6842 23.3826 31.0895 23.3826 31.0895L23.5104 30.0615L24.0335 28.08L24.5054 26.4039Z" fill="#171717" stroke="#3D3C3B" stroke-width="0.454298" stroke-linejoin="round"/>
<path fill-rule="evenodd" clip-rule="evenodd" d="M23.4475 44.449C24.5133 44.4999 26.4148 44.5332 26.4148 44.5332L27.2466 45.5925L27.8208 45.6042C27.8208 45.6042 29.0852 47.4252 29.5827 47.9891C30.0802 48.555 30.9395 49.7846 31.4803 49.7846C32.023 49.7846 48.2636 48.5511 48.2636 48.5511C48.2636 48.5511 50.3677 48.4747 50.9281 43.9536C51.0815 43.2311 50.7629 35.5224 50.7629 35.5224L50.7374 32.5756L48.8122 31.7121C48.8122 31.7121 48.3265 31.5594 48.1358 31.9529C46.8812 32.0175 45.841 31.5085 45.6365 31.2931C45.432 31.0777 45.2275 26.5312 45.2275 26.5312C45.2275 26.5312 45.8429 26.5958 46.0081 26.2531C46.1753 25.9105 46.4899 25.5483 46.3896 24.4988C46.2874 23.4493 45.6837 23.0811 45.2117 23.0949C44.7398 23.1066 44.5903 23.6098 44.5903 23.6098L43.7625 23.5354C43.7625 23.5354 43.4675 23.3181 43.0605 23.3181C42.6515 23.3181 42.2444 23.2672 42.2444 23.2672L37.4739 16.1811C37.4739 16.1811 37.6273 15.5467 37.4739 15.1159C37.3205 14.6832 36.6716 13.947 36.6716 13.947C36.6716 13.947 36.4297 13.8843 36.1997 13.6552C35.9696 13.4261 33.4703 9.79402 33.4703 9.79402C33.4703 9.79402 33.6355 8.94424 33.0613 8.61333C32.4871 8.28439 32.9472 8.04159 32.6405 8.16886C32.3357 8.29614 31.7988 7.80076 31.6848 7.76355C31.5707 7.72439 31.0083 7.43265 31.0083 7.43265L30.792 7.4209L30.5757 7.62258L30.2572 7.59712L29.4785 7.1409L29.2622 7.1272L29.0832 7.35629L28.6231 7.30538L27.8208 7.96523L27.4373 9.50228L27.3213 12.3062L25.9704 14.7341L25.6912 16.2829L22.2342 21.1858L21.4064 23.4336L20.5903 23.4708V24.3852H20.844L20.372 29.1608C20.372 29.1608 20.1813 29.3116 20.1813 29.4643C20.1813 29.617 20.0161 29.5289 20.0161 29.9088C20.0161 30.2906 19.7605 33.6173 19.7605 33.6173L16.917 33.5174L16.7794 31.1227C16.744 31.0875 16.687 31.0679 16.626 31.0581C16.5788 31.0503 16.4687 31.0581 16.453 31.0699L16.3605 33.5135L15.9555 33.5194L15.5405 34.0715L14.6557 34.0833L14.229 34.3319L13.9163 35.867C13.7963 36.4525 13.8396 37.3355 13.8278 37.9092C13.8081 38.7336 13.7944 39.3053 13.9222 39.413C13.9812 39.5794 14.1916 39.6186 14.1916 39.6186C14.0028 39.6147 13.8042 39.6127 13.5977 39.6088L12.3038 40.3509C12.3038 40.3509 11.8771 40.9226 12.0049 42.4127C12.1328 43.9047 12.2665 44.2924 12.5024 44.4745C12.7384 44.6585 14.518 45.4143 14.518 45.4143L18.2817 45.2616C18.2817 45.2616 18.8677 44.4999 18.8815 42.4675C21.776 42.3167 22.6059 42.3696 22.6059 42.3696C22.6059 42.3696 22.0002 43.9106 23.4475 44.449ZM24.5054 26.4039L24.1849 29.3879C24.1849 29.3879 24.122 29.4134 23.9824 29.7188C23.8408 30.0243 23.8152 29.7443 23.7896 30.2142C23.7641 30.6841 23.3826 31.0894 23.3826 31.0894L23.5104 30.0615L24.0335 28.08L24.5054 26.4039ZM29.8482 19.4843L29.4273 19.7251L25.8819 24.1189L26.0097 24.1816L26.0982 24.4988L25.996 25.2624L25.2448 25.1978L24.6962 29.478C24.6962 29.478 24.7217 29.4643 24.7846 29.7051C24.8495 29.9479 24.9262 29.9479 24.9262 29.9479L28.8158 30.1124C28.8158 30.1124 29.4647 30.2397 29.5296 30.7977C29.5925 31.3577 29.6319 32.1957 29.6319 32.1957L29.6633 32.5893L29.8482 31.7513L30.1156 30.925L30.2572 30.735L30.7035 30.7468L31.2246 31.0777L34.2234 31.2422L34.835 31.1541L35.6117 30.8369C34.8192 30.0419 35.1535 28.6517 35.4859 28.1152L29.8482 19.4843Z" fill="#171717"/>
</g>
<path fill-rule="evenodd" clip-rule="evenodd" d="M20.3819 36.8871C20.3327 36.8832 22.5233 36.9518 22.5233 36.9518L22.5685 38.6004L22.4407 38.6063L22.2558 37.2494L20.3819 36.8871ZM39.928 32.7694C40.16 33.0064 40.3272 33.4136 40.3567 34.0872L40.51 23.2163L44.5904 23.6098L44.6139 23.7214C44.6238 23.7116 44.6356 23.7038 44.6454 23.694C44.7575 23.4395 44.9069 23.2632 45.0741 23.2123C45.1075 23.2025 45.1409 23.1967 45.1763 23.1967C45.5854 23.1967 45.9177 23.9348 45.9177 24.8453C45.9177 25.7362 45.5991 26.4626 45.2019 26.492L47.1919 35.8905H40.3311L40.3508 34.5238C40.278 35.2953 39.8513 36.196 39.6488 36.196C39.4266 36.196 39.0628 36.2136 39.1001 36.2018C39.1178 36.196 39.1336 36.1881 39.1513 36.1764C39.1021 36.2018 39.0529 36.2155 39.0038 36.2155C38.6026 36.2155 38.2782 35.4637 38.2782 34.5356L38.2369 32.2623L38.0579 31.8805L36.7817 31.3851L35.9499 30.7625V30.7605C35.6392 30.5823 35.4151 30.0517 35.4151 29.4271C35.4151 28.7026 35.8025 28.1074 36.1191 28.0349C36.1112 28.0349 36.1073 28.0349 36.1073 28.0349C36.4278 27.941 36.8761 27.8763 36.9921 27.9233C37.1101 27.9703 37.2478 27.984 37.3894 28.2797V28.2816C37.4228 28.3502 38.1838 29.9518 38.522 30.6606C38.8661 31.3851 39.928 32.7694 39.928 32.7694ZM39.1159 32.4777C38.7737 32.0097 38.2723 31.2911 38.056 30.8369C37.7177 30.1281 36.9567 28.5244 36.9253 28.4579M36.9233 28.4559C36.9567 28.5244 37.525 29.8951 37.8672 30.6117C38.2034 31.3225 39.1021 32.4601 39.1159 32.4777M36.0286 24.2892C36.2292 24.2462 36.4671 24.1855 36.7503 24.1052C37.6922 23.8369 38.2959 23.4297 38.6518 23.1105C38.7639 22.854 38.9133 22.6798 39.0805 22.6288C39.1139 22.6171 39.1473 22.6132 39.1827 22.6132C39.5917 22.6132 39.9241 23.3514 39.9241 24.2599C39.9241 25.1704 39.5917 25.9085 39.1827 25.9085C39.1119 25.9085 39.0431 25.887 38.9762 25.8459C38.6085 25.7401 37.8003 25.5561 37.0551 25.6971C36.943 25.7186 36.8289 25.746 36.7149 25.7773L37.2202 26.8738L36.7601 27.3829L35.6373 27.7119L34.8625 26.5136C34.717 26.4568 34.5912 26.2571 34.5184 25.9829L27.8424 15.6681L27.7107 9.47682L27.9604 8.61334L28.5975 8.15712L36.0286 24.2892ZM33.2717 9.81556L33.0613 9.81948L36.0719 13.9842C36.0738 13.9861 36.5615 14.0919 36.5615 14.0919C36.886 14.411 37.2674 15.161 37.3343 15.204L37.3854 15.6368C37.3854 15.6368 37.2045 15.2354 36.6421 15.3744C36.3177 15.4566 36.066 15.5369 35.9342 15.9422C35.8398 16.2398 36.0502 16.8821 35.9696 16.7528C35.7789 16.4493 31.8382 10.7221 31.8382 10.7221C31.8382 10.7221 32.3199 9.64913 33.2717 9.81556ZM30.855 7.62258L30.7154 7.76356L31.85 8.44886L31.4174 9.9722L31.7733 10.5302C31.7733 10.5302 32.2708 9.79402 32.6149 9.74312C32.959 9.69221 33.3425 9.69221 33.3425 9.69221C33.3425 9.69221 33.3562 9.05781 33.075 8.80327C32.7938 8.55068 32.6031 8.27068 32.4635 8.4097C32.3219 8.55068 31.9778 8.18257 31.9778 8.18257L30.855 7.62258ZM29.3507 7.49531L30.8805 10.3286L31.3918 9.0069C31.3918 9.0069 31.4685 8.71124 30.9199 8.25894C30.3024 7.74789 29.5925 7.37 29.5925 7.37L29.3507 7.49531ZM23.0208 37.3199L23.2174 37.4961L23.3767 37.5666L23.6264 37.5353L23.7602 37.453L24.6706 30.8799L24.7788 30.735L24.8358 30.0556L24.7158 29.713L24.7021 29.617L24.5231 29.6249L24.3383 29.6111L24.1869 29.5681L24.0079 29.897L23.886 30.0615L23.8427 30.7155L23.9057 30.7977L24.0866 30.8408L24.2164 30.8545L24.4189 30.8604L24.299 30.9113L24.0826 30.9152L23.886 30.9406L23.0208 37.3199ZM24.1731 36.1823L24.1987 38.2773C24.1987 38.2773 24.236 38.8863 24.4917 38.8863C24.7473 38.8863 24.9518 38.7727 24.9518 38.7727L27.6792 38.8491L28.395 37.5411L26.0215 37.5157C26.0215 37.5157 25.3844 37.4393 25.347 36.3859C25.3077 35.3305 25.117 30.7213 25.117 30.7213C25.117 30.7213 25.0029 30.506 25.5122 30.4688C26.0215 30.4296 28.6231 30.6078 28.6231 30.6078C28.6231 30.6078 29.0695 30.645 29.1462 31.0894C29.2228 31.5339 29.3192 34.0343 29.3192 34.0343L29.5689 32.7322L29.3979 30.8486C29.3979 30.8486 29.3153 30.5569 29.156 30.4688C28.9967 30.3787 28.7371 30.2279 28.5543 30.2279C28.3694 30.2279 24.9085 30.1065 24.9085 30.1065L24.8515 30.7977L24.7257 30.9583L24.6765 31.3949L24.9184 36.1196C24.9184 36.1196 24.6706 36.2665 24.5821 36.2665C24.4917 36.2665 24.1731 36.1823 24.1731 36.1823ZM18.911 42.2874L18.9051 41.4944L18.854 41.0558L18.7399 40.7895L25.2566 40.8169L25.294 41.512L25.2192 42.1464L18.911 42.2874ZM26.9831 40.5996L26.1611 40.161H26.0471L25.5555 42.489C25.5555 42.489 25.5181 42.6927 25.7148 42.8513C25.9134 43.0099 27.3646 44.2473 27.3646 44.2473L31.6789 32.2055C31.6789 32.2055 31.9404 31.7434 31.5963 31.5848C31.2522 31.4262 30.5384 30.9446 30.5384 30.9446L30.2709 31.0522L29.5453 34.001L28.8689 36.9067L28.5818 37.8329L27.8877 39.3308L27.1168 40.6563L26.9831 40.5996ZM26.1493 43.8244C26.5328 44.359 26.6783 44.4745 27.2466 45.2871L27.8837 45.0971L31.0083 49.0582C31.0083 49.0582 31.966 50.0744 32.959 48.0557C33.954 46.037 33.0239 39.928 33.0239 39.928L32.259 32.0802L31.9286 31.8824L28.395 42.5693L27.8326 43.9928L27.5435 44.8093L26.1493 43.8244ZM31.9916 31.3185L32.6287 31.8511L33.6492 43.6619C33.6492 43.6619 33.9344 47.9323 32.9846 48.8428C32.0368 49.7533 49.0541 47.8266 49.0541 47.8266C49.0541 47.8266 50.4326 46.3542 50.5328 44.1436C50.6351 41.9349 50.2536 33.071 50.2536 33.071L48.3914 32.1057L47.0012 32.182L47.1152 32.8164C47.1152 32.8164 48.3521 33.5918 48.3403 34.0989C48.3265 34.608 48.4937 34.608 48.1102 35.5479C47.7287 36.4877 47.4593 36.9322 47.4338 37.8211C47.4082 38.7101 47.5596 40.6603 47.6344 41.4865C47.7071 42.3109 47.068 42.6555 46.7849 43.4837C46.6335 43.9262 46.5548 43.5816 46.5548 43.5816C46.5548 43.5816 46.5292 43.0471 46.7967 42.7044C47.0641 42.3618 47.2883 42.0211 47.3256 41.886C47.365 41.7528 47.3669 41.371 47.2961 40.7679C47.2273 40.1668 47.1742 38.6924 47.1546 38.0561C47.1329 37.4178 47.4338 36.3644 47.4731 36.2782C47.5262 36.1548 47.8349 35.4715 47.8172 35.495C47.4023 36.0452 47.1782 36.2312 47.1487 36.2351C47.1487 36.2351 46.7967 37.7878 46.8045 38.7845C46.8104 39.7811 46.9599 41.2477 46.9599 41.2477C46.9599 41.2477 47.0975 41.8037 46.8478 42.1209C46.6 42.4381 45.9747 43.6129 45.9747 43.6129L45.1901 36.4486L40.2289 36.3976C40.2289 36.3976 40.0381 37.735 39.9752 39.3112C39.9123 40.8854 40.1266 41.3769 40.1266 41.3769C40.1266 41.3769 40.2544 42.0367 40.0381 42.3539C39.8218 42.6711 39.2732 43.6697 39.2732 43.6697L39.1198 43.6952C39.1198 43.6952 39.4069 42.8826 39.7117 42.4636C40.0184 42.0446 39.9732 41.7528 39.9732 41.6647C39.9732 41.5766 39.7628 39.9142 39.7962 39.4835C39.8277 39.0508 40.0814 36.2782 40.0814 36.2782L39.9555 36.2273L39.5603 36.3369C39.5603 36.3369 39.2083 38.4046 39.2594 39.0527C39.3105 39.6989 39.4639 41.0969 39.4639 41.0969C39.4639 41.0969 39.5524 41.8586 39.3617 42.2893C39.1709 42.722 38.5967 43.7755 38.5967 43.7755L38.3804 36.2195C38.3804 36.2195 37.934 35.9414 37.9203 34.3672C37.9085 32.791 38.1641 32.9182 38.1641 32.9182C38.1641 32.9182 38.2388 31.8139 37.3599 31.7004C36.4789 31.5848 34.2864 31.5985 34.2864 31.5985L34.1074 31.3577L31.9916 31.3185ZM34.3375 47.1668C34.3375 47.1668 34.133 48.3102 33.9029 48.6137C33.6748 48.9192 47.947 47.7326 48.7493 47.4468C49.5496 47.1609 50.4837 44.0183 50.1002 42.0113C49.6657 44.9561 48.9774 46.3796 48.9774 46.3796L44.9738 46.5833L44.3858 38.1755C44.3858 38.1755 44.3622 46.5833 43.1372 46.7086C41.9121 46.8358 34.3375 47.1668 34.3375 47.1668ZM21.078 24.1424L21.0642 24.7768L22.1851 24.7846L22.2047 24.1678L21.9511 23.5726L20.6945 23.5844L20.726 24.0797L21.0072 23.788L21.6817 23.833L21.9117 24.1992L21.078 24.1424ZM20.5805 35.2267L20.6945 35.4343L22.1674 35.4421L22.5803 34.9918L22.537 34.471L22.5272 34.328C22.5272 34.328 23.2745 30.9074 23.8034 28.64C23.8034 28.6361 23.5615 26.8229 23.1663 26.2512C22.771 25.6794 22.4643 25.6422 22.4643 25.6422L24.5998 25.8909L24.7473 25.5796L25.0777 24.9687L25.5752 24.2716L26.1493 23.5472L28.9869 20.0266L27.7559 16.7665L26.5702 18.6325L25.1543 20.8686L22.5665 24.9432L22.2853 25.5287L22.1969 25.8322L21.9786 26.4431L21.3041 29.6934L21.2785 29.9088L21.2392 30.6587L21.078 30.8075L20.5805 35.2248V35.2267ZM29.0832 7.80076L36.3275 23.9525L39.0569 21.8965L37.7551 19.5606L36.4297 17.35C36.4297 17.35 35.6373 17.2228 35.128 16.2065C34.6187 15.1923 34.6364 16.0009 34.3119 15.4703L31.8696 11.4779L30.9454 11.1157L29.2858 7.77531L29.0832 7.80076ZM28.395 10.3658L28.6742 15.5467L29.1088 11.3056L33.4192 19.357L28.5975 8.76606L28.2927 8.91879L28.395 10.3658ZM21.5519 23.3239L22.0553 23.3318L22.4505 24.0034L22.4328 24.442L27.5829 16.138L27.5455 12.3355L26.1434 14.7968L25.8957 16.3338L22.3837 21.27L22.2617 21.5539L21.5519 23.3239ZM21.4968 25.1508L21.074 29.1353L21.6994 26.3785L21.9491 25.4445L22.1772 24.9354L21.9157 25.1586L21.4968 25.1508ZM20.3819 29.3253C20.3819 29.3253 20.5746 29.4721 20.9187 29.3762C21.2628 29.2822 20.9364 29.5798 20.9364 29.5798L21.1468 29.8774L21.1094 30.5686L20.9502 30.6704L20.6985 30.6606L20.9403 30.7664L20.2698 37.502C20.2698 37.502 20.1085 37.592 19.8726 37.5725C19.6366 37.5548 19.4773 37.453 19.4773 37.453L19.7978 33.9482L20.0928 30.6078L20.1479 29.6797L20.254 29.5935L20.2914 29.3605L20.3819 29.3253ZM14.4944 38.9372C14.4944 38.9372 14.1877 39.0645 14.1995 38.062C14.2132 37.0575 14.341 34.5316 14.341 34.5316L14.7874 34.1753L18.498 34.2517L18.561 36.1568C18.561 36.1568 18.9562 36.1314 18.9562 36.5641C18.9562 36.9948 18.9562 38.759 18.9562 38.759C18.9562 38.759 19.0073 38.9764 18.7025 38.9626C18.3958 38.9509 14.4944 38.9372 14.4944 38.9372ZM14.2408 34.6041L14.1267 38.3282C14.1267 38.3282 14.1267 38.665 14.229 38.855C14.3312 39.0449 13.9419 39.368 13.9419 39.368C13.875 39.3347 13.8455 39.0351 13.8711 38.3752C13.8868 37.9641 13.8671 37.3238 13.8809 36.6639C13.8907 36.2684 13.9537 35.8631 13.9537 35.8631L14.2408 34.6041ZM14.3548 39.0312L14.0874 39.458L14.2349 39.5324L17.5994 39.5716L18.0949 39.3053L19.3003 39.0958L14.3548 39.0312ZM12.7699 41.6334L12.3805 41.6275L12.2724 41.7861L12.2665 43.0667L12.3432 43.1371L12.6224 43.1685L12.6735 43.2448L14.872 43.8146C14.988 43.846 15.1138 42.027 14.9172 41.9702C14.286 41.9114 12.8839 41.8174 12.8839 41.8174L12.7699 41.6334Z" fill="#FFC421"/>
<path d="M40.7775 23.5158L40.6064 35.6184H46.8557L44.3662 23.8604L40.7775 23.5158ZM40.0597 35.8866L40.0676 35.3286C40.5337 34.5023 40.2682 33.6427 40.0971 33.2452L40.2367 23.2143L40.2426 22.9186L40.5356 22.948L44.6159 23.3416L44.8165 23.3592L44.8578 23.555L47.4594 35.8357L47.3178 35.9708L47.1919 36.1627H40.0558L40.0597 35.8866Z" fill="#171717"/>
<path d="M34.951 24.1972C34.9982 24.1972 35.0454 24.209 35.0906 24.2286C35.1221 24.2423 35.1535 24.2599 35.183 24.2834C35.2813 24.2912 35.4308 24.2834 35.651 24.2501C35.9027 24.2109 36.2488 24.1346 36.7208 24.0014C37.1829 23.8683 37.5604 23.7038 37.8672 23.5315C38.1621 23.367 38.3902 23.1967 38.5613 23.044C38.6203 22.9147 38.6891 22.8031 38.7658 22.717C38.8504 22.623 38.9448 22.5564 39.047 22.5251C39.0687 22.5172 39.0923 22.5133 39.1139 22.5094H39.1158C39.1375 22.5055 39.1591 22.5035 39.1827 22.5035C39.4344 22.5035 39.6546 22.713 39.8061 23.0518C39.9476 23.3631 40.0342 23.79 40.0342 24.2618C40.0342 24.7318 39.9476 25.1586 39.8061 25.4699C39.6546 25.8087 39.4344 26.0182 39.1827 26.0182C39.1355 26.0182 39.0903 26.0104 39.047 25.9966C39.0077 25.9849 38.9703 25.9673 38.933 25.9457C38.7521 25.8948 38.4689 25.8263 38.1444 25.7871C37.8121 25.746 37.4365 25.7362 37.0767 25.8048C36.7896 25.8576 36.4927 25.9516 36.2174 26.0554C35.8241 26.2042 35.4721 26.3745 35.2518 26.4901C35.2106 26.5351 35.1673 26.5703 35.1221 26.5938C35.069 26.6252 35.01 26.6408 34.951 26.6408C34.7642 26.6408 34.6049 26.4901 34.4967 26.2492C34.4004 26.0358 34.3414 25.7421 34.3414 25.419C34.3414 25.096 34.4004 24.8023 34.4967 24.5888C34.6049 24.346 34.7642 24.1972 34.951 24.1972ZM35.0041 24.4263C34.9864 24.4185 34.9687 24.4146 34.951 24.4146C34.8586 24.4146 34.7681 24.5144 34.6954 24.6769C34.6108 24.8649 34.5577 25.1273 34.5577 25.419C34.5577 25.7108 34.6108 25.9732 34.6954 26.1611C34.7681 26.3236 34.8586 26.4235 34.951 26.4235C34.9726 26.4235 34.9962 26.4157 35.0178 26.4039C35.0473 26.3883 35.0749 26.3648 35.1004 26.3334L35.1142 26.3178L35.1319 26.308C35.358 26.1885 35.7258 26.0084 36.1407 25.8518C36.4258 25.7441 36.7345 25.6481 37.0354 25.5913C37.4208 25.5189 37.82 25.5287 38.17 25.5718C38.5181 25.6129 38.8189 25.6873 39.0077 25.7401L39.0215 25.7441L39.0352 25.7539C39.0608 25.7695 39.0864 25.7813 39.1119 25.7891C39.1335 25.7969 39.1571 25.8008 39.1827 25.8008C39.34 25.8008 39.4914 25.6403 39.6075 25.3818C39.7353 25.0979 39.8159 24.7004 39.8159 24.2618C39.8159 23.8213 39.7353 23.4238 39.6075 23.1399C39.4914 22.8814 39.34 22.7209 39.1827 22.7209C39.1709 22.7209 39.1591 22.7228 39.1473 22.7248V22.7228C39.1355 22.7248 39.1237 22.7287 39.1119 22.7326C39.049 22.7522 38.988 22.7953 38.929 22.8619C38.8641 22.9343 38.8032 23.0342 38.7501 23.1536L38.7422 23.1751L38.7245 23.1908C38.5417 23.3553 38.2959 23.5413 37.9734 23.7214C37.6548 23.8996 37.2596 24.0739 36.7798 24.209C36.3019 24.346 35.948 24.4244 35.6845 24.4635C35.4151 24.5066 35.2401 24.5086 35.128 24.4968L35.0926 24.4929L35.065 24.4694C35.0454 24.4498 35.0237 24.4361 35.0041 24.4263Z" fill="#171717"/>
<path d="M35.48 24.2422C35.4465 24.2324 35.4131 24.2266 35.3816 24.2266L34.9884 24.1992H34.9628L34.9569 24.1972H34.9549L34.9431 24.4145L34.9667 24.4165L34.9805 24.4185L34.9982 24.4243L35.0159 24.4322L35.0336 24.4439L35.0474 24.4537L35.069 24.4713L35.0946 24.4929L35.1299 24.4968L35.1732 24.5007H35.1791L35.2125 24.5027H35.2991L35.3325 24.5007H35.3364C35.3698 24.4987 35.3993 24.4987 35.4269 24.4948C35.4564 24.4929 35.4898 24.4909 35.5272 24.485L35.832 24.4517L35.5724 24.2873C35.5429 24.2677 35.5114 24.252 35.48 24.2422ZM34.9353 26.6389L35.3384 26.6663L35.3502 26.6682H35.3777C35.4367 26.6682 35.4957 26.6526 35.5488 26.6232C35.596 26.5977 35.6392 26.5625 35.6786 26.5194C35.8654 26.4215 36.1426 26.2845 36.4573 26.1572C36.7817 26.024 37.1495 25.9007 37.5034 25.8321C37.6057 25.8145 37.7099 25.8008 37.8141 25.793C37.9223 25.7852 38.0265 25.7832 38.1268 25.7832L39.0706 25.8008C39.0569 25.8165 39.049 25.8478 39.049 25.9085V26.0025L39.1434 26.0162H39.1552L39.5701 26.0456H39.5878L39.5937 26.0475H39.5957V26.0456H39.6075L39.6094 26.0475C39.7687 26.0475 39.9142 25.9633 40.0381 25.8165L40.3527 25.8224L40.0617 25.7891C40.1266 25.7088 40.1836 25.6109 40.2328 25.4993C40.3744 25.188 40.4609 24.7592 40.4609 24.2892C40.4609 23.8252 40.3724 23.4062 40.2308 23.0968C40.0755 22.7561 39.8533 22.5407 39.6035 22.5211L39.576 22.5192C39.4403 22.5074 39.3597 22.5016 39.1945 22.5035H39.165L39.1729 22.7209H39.1906C39.2633 22.7228 39.3145 22.7581 39.344 22.7796H39.3459L39.3558 22.7855C39.4855 22.8834 39.5976 23.0772 39.6822 23.3318C39.7648 23.5922 39.8159 23.9133 39.8159 24.2599C39.8159 24.6123 39.7648 24.9354 39.6783 25.1958C39.6035 25.4288 39.5013 25.6089 39.3853 25.7108L38.1425 25.5678C37.9596 25.5463 37.763 25.5345 37.5604 25.5384C37.3874 25.5424 37.2104 25.558 37.0354 25.5913C36.7385 25.6461 36.4337 25.7421 36.1525 25.8478C35.7494 25.9986 35.3875 26.1748 35.1575 26.2942L35.1516 26.2982H35.1496L35.1319 26.3079L35.1162 26.3158L35.1024 26.3314L35.0828 26.353H35.0808L35.0788 26.3569L35.0651 26.3706L35.0218 26.4019L35.0002 26.4117L34.9825 26.4176L34.953 26.4235H34.9412L34.9353 26.6389ZM35.3541 26.4489H35.3345C35.3974 26.4156 35.4682 26.3804 35.5468 26.3432L35.5409 26.3471L35.5272 26.3628C35.4996 26.3941 35.4721 26.4176 35.4446 26.4333C35.4229 26.445 35.3993 26.4509 35.3777 26.4509H35.3581L35.3541 26.4489ZM39.5937 25.8106H39.7019C39.6704 25.8243 39.6409 25.8302 39.6094 25.8302H39.6016L39.5858 25.8282H39.578L39.5937 25.8106ZM39.7923 25.7577L39.6488 25.7421C39.7431 25.6168 39.8238 25.4543 39.8867 25.2624C39.9791 24.9804 40.0342 24.6338 40.0342 24.2599C40.0342 23.8917 39.9791 23.5471 39.8887 23.2652C39.8198 23.0518 39.7274 22.8716 39.6193 22.7424C39.7726 22.7737 39.9182 22.9362 40.0322 23.1849C40.16 23.4688 40.2426 23.8565 40.2426 24.2892C40.2426 24.7298 40.162 25.1273 40.0342 25.4112C39.9634 25.5678 39.8808 25.6873 39.7923 25.7577Z" fill="#171717"/>
<path fill-rule="evenodd" clip-rule="evenodd" d="M35.3777 24.3362C35.4249 24.3362 35.4701 24.3499 35.5153 24.3773C35.4465 24.3852 35.3856 24.3911 35.3325 24.393H35.3285C35.3049 24.393 35.2833 24.395 35.2617 24.395H35.2538C35.242 24.395 35.2282 24.395 35.2164 24.393H35.183L35.1398 24.3891L35.1162 24.3695L35.0926 24.3519L35.067 24.3362L35.0355 24.3225L35.008 24.3147L34.9746 24.3069H34.951L35.3777 24.3362ZM34.9431 26.5312L35.3462 26.5586C35.3561 26.5605 35.3659 26.5605 35.3777 26.5605C35.4603 26.5605 35.5409 26.5135 35.6097 26.4333C35.9853 26.2355 36.7581 25.8635 37.4818 25.7264C37.6961 25.6853 37.9163 25.6716 38.1287 25.6755C37.7944 25.6364 37.4188 25.6285 37.055 25.6971C36.3471 25.8322 35.592 26.1905 35.2066 26.3902L35.2007 26.3941L35.183 26.4039L35.1594 26.4294V26.4313L35.1319 26.4548L35.0808 26.494L35.0395 26.5135L35.006 26.5253L34.9628 26.5312H34.9431ZM39.163 25.9085L39.5779 25.9359C39.5838 25.9379 39.5897 25.9379 39.5937 25.9379H39.5956C39.5996 25.9379 39.6035 25.9379 39.6094 25.9379C40.0184 25.9379 40.3507 25.1997 40.3507 24.2892C40.3507 23.3788 40.0027 22.6602 39.5956 22.6288C39.4344 22.6171 39.3557 22.6093 39.1709 22.6132C39.2987 22.6073 39.3754 22.668 39.4167 22.6974C39.7117 22.9147 39.924 23.5334 39.924 24.2599C39.924 24.9941 39.7077 25.6168 39.4108 25.8302L39.3774 25.8517C39.3734 25.8537 39.3695 25.8557 39.3656 25.8576L39.3439 25.8694L39.2928 25.8909L39.2633 25.8987L39.222 25.9066C39.2024 25.9066 39.1414 25.9066 39.163 25.9085Z" fill="#FFC421"/>
<path fill-rule="evenodd" clip-rule="evenodd" d="M34.9451 24.7357C35.0513 24.7357 35.1358 25.0313 35.1358 25.3975C35.1358 25.7617 35.0513 26.0573 34.9451 26.0573C34.8409 26.0573 34.7544 25.7617 34.7544 25.3975C34.7544 25.0313 34.8409 24.7357 34.9451 24.7357Z" fill="#171717"/>
<path fill-rule="evenodd" clip-rule="evenodd" d="M39.2161 23.4199C39.3774 23.4199 39.5072 23.7841 39.5072 24.2305C39.5072 24.6789 39.3774 25.0411 39.2161 25.0411C39.0569 25.0411 38.9251 24.6789 38.9251 24.2305C38.9251 23.7841 39.0569 23.4199 39.2161 23.4199Z" fill="#171717"/>
<path d="M44.3092 23.8291C44.3603 23.79 44.4055 23.7547 44.4488 23.7195C44.4842 23.6901 44.5196 23.6607 44.555 23.6294C44.614 23.4982 44.6828 23.3886 44.7595 23.3024C44.844 23.2065 44.9404 23.1399 45.0407 23.1086H45.0426C45.0623 23.1027 45.0859 23.0968 45.1075 23.0929H45.1095C45.1311 23.089 45.1547 23.087 45.1763 23.087C45.428 23.087 45.6483 23.2965 45.7997 23.6353C45.9413 23.9466 46.0278 24.3754 46.0278 24.8453C46.0278 25.3153 45.9413 25.7421 45.7997 26.0554C45.6483 26.3922 45.428 26.6017 45.1763 26.6017C45.1665 26.6017 45.1567 26.6017 45.1449 26.6017C45.1351 26.5997 45.1233 26.5997 45.1134 26.5978L45.0446 26.588L45.023 26.5214C44.8951 26.0906 44.728 25.5287 44.5628 24.9687C44.4488 24.5771 44.3426 24.2109 44.2679 23.9446L44.2482 23.8722L44.3092 23.8291ZM44.5884 23.8859C44.5589 23.9094 44.5294 23.9329 44.4979 23.9564C44.5727 24.2207 44.669 24.5536 44.7732 24.908C44.9089 25.376 45.0741 25.9242 45.2098 26.3824C45.3553 26.3608 45.4929 26.2062 45.6011 25.9673C45.7289 25.6814 45.8095 25.2859 45.8095 24.8453C45.8095 24.4048 45.7289 24.0093 45.6011 23.7234C45.4851 23.4649 45.3337 23.3063 45.1763 23.3063C45.1645 23.3063 45.1527 23.3063 45.141 23.3083C45.1292 23.3103 45.1193 23.3122 45.1056 23.3161C45.0426 23.3357 44.9817 23.3807 44.9227 23.4454C44.8578 23.5198 44.7968 23.6196 44.7457 23.7371L44.7359 23.7606L44.7182 23.7763C44.6808 23.8095 44.6375 23.8467 44.5884 23.8859Z" fill="#171717"/>
<path fill-rule="evenodd" clip-rule="evenodd" d="M45.1567 26.492L45.5716 26.5214C45.5775 26.5214 45.5834 26.5214 45.5893 26.5214C45.5932 26.5214 45.5991 26.5214 45.603 26.5214C46.0121 26.5214 46.3444 25.7832 46.3444 24.8747C46.3444 23.9642 45.9983 23.2456 45.5893 23.2123C45.428 23.2006 45.3494 23.1928 45.1645 23.1967C45.2923 23.1908 45.369 23.2534 45.4123 23.2809C45.7053 23.5002 45.9177 24.1169 45.9177 24.8453C45.9177 25.5796 45.7033 26.2003 45.4044 26.4137L45.371 26.4352C45.3671 26.4391 45.3631 26.4411 45.3592 26.4431L45.3376 26.4548L45.2864 26.4744L45.2569 26.4842L45.2176 26.4901C45.196 26.492 45.137 26.492 45.1567 26.492Z" fill="#171717"/>
<path fill-rule="evenodd" clip-rule="evenodd" d="M41.7096 24.6652L41.6329 34.6198H45.6365L43.7487 24.8179L41.7096 24.6652ZM43.6701 25.0235L43.501 25.1958L45.0977 34.4024L45.373 34.4005L43.6701 25.0235ZM41.8708 24.8336L43.5521 24.9315L43.3672 25.1214L41.861 25.0333L41.8708 24.8336Z" fill="#171717"/>
<path d="M39.5445 32.8732C39.6822 33.0161 39.7982 33.2119 39.8788 33.4763C39.9575 33.7386 40.0047 34.0676 40.0047 34.4807C40.0047 34.8978 39.8788 35.3462 39.7018 35.6927C39.5111 36.0648 39.2515 36.3252 39.0038 36.3252C38.5436 36.3252 38.168 35.5244 38.168 34.5356L38.1267 32.2877L37.9773 31.9666L36.7424 31.4869L36.7286 31.481L36.7168 31.4732L35.8909 30.8525C35.714 30.7487 35.5645 30.551 35.4623 30.2925C35.3639 30.0478 35.3069 29.7482 35.3069 29.4271C35.3069 28.5949 35.8083 27.9194 36.182 27.9194C36.3688 27.9194 36.5418 27.9586 36.6893 28.0428C36.8289 28.125 36.943 28.2444 37.0216 28.4089V28.4109C37.0295 28.4246 37.0669 28.5146 37.1258 28.6537C37.3107 29.0883 37.704 30.0164 37.9655 30.5647C38.2998 31.2696 39.1984 32.4091 39.2024 32.4131V32.415L39.5445 32.8732ZM39.6704 33.5389C39.5996 33.3079 39.5013 33.1395 39.3833 33.02L39.3794 33.0161L39.3754 33.0083L39.0274 32.5442C38.9861 32.4914 38.1051 31.3675 37.7669 30.6567C37.5073 30.1124 37.1121 29.1765 36.9253 28.7359C36.8702 28.6067 36.8329 28.5205 36.825 28.5029V28.5009C36.766 28.3795 36.6814 28.2914 36.5792 28.2307C36.4671 28.1661 36.3314 28.1367 36.182 28.1367C35.9008 28.1367 35.5252 28.7144 35.5252 29.4271C35.5252 29.7227 35.5763 29.9929 35.6648 30.2122C35.7494 30.4276 35.8693 30.5882 36.005 30.6685L36.0718 30.7076L36.0699 30.7155L36.8348 31.2892L38.0973 31.7806L38.1385 31.7963L38.1562 31.8354L38.3352 32.2153L38.345 32.2368V32.2603L38.3863 34.5336V34.5356C38.3863 35.403 38.6636 36.1078 39.0038 36.1078C39.163 36.1078 39.3518 35.8964 39.5072 35.5948C39.6704 35.2757 39.7864 34.8645 39.7864 34.4807C39.7864 34.0891 39.7431 33.7798 39.6704 33.5389Z" fill="#171717"/>
<path d="M40.0126 32.699C40.1482 32.8419 40.2643 33.0377 40.3449 33.302C40.4235 33.5624 40.4707 33.8933 40.4707 34.3065C40.4707 34.6922 40.3626 35.1367 40.2249 35.5048C40.0519 35.9591 39.8139 36.3037 39.6488 36.3037C39.5426 36.3037 39.4325 36.3076 39.3361 36.3095C39.1631 36.3154 39.0215 36.3193 38.9939 36.2391C38.9704 36.1705 38.9939 36.1235 39.0647 36.1V36.0981C39.2044 36.0511 39.3853 35.7965 39.5347 35.4774C39.6802 35.1621 39.7864 34.7882 39.7864 34.4808C39.7864 34.1636 39.7451 33.8561 39.6704 33.5977C39.5996 33.3431 39.4993 33.1395 39.3833 33.0201L39.3479 32.9848L39.3499 32.977C39.1847 32.7597 38.2742 31.5496 37.9577 30.8819C37.704 30.3513 37.2124 29.3175 36.9685 28.8064L36.825 28.5029V28.501C36.648 28.1622 36.1033 28.1426 36.1014 28.1426L35.4406 28.1133L36.0758 27.9312C36.2508 27.8803 36.4573 27.8372 36.6343 27.8157C36.8073 27.7941 36.9587 27.7922 37.0334 27.8235C37.0551 27.8313 37.0649 27.8352 37.0747 27.8391C37.1927 27.8803 37.3245 27.9292 37.4562 28.172H37.4582L37.4877 28.2347V28.2366H37.4896L37.6332 28.5382C37.877 29.0512 38.3667 30.083 38.6203 30.6156C38.9487 31.3068 39.9496 32.6187 40.0126 32.699ZM40.1364 33.3647C40.0656 33.1317 39.9654 32.9633 39.8493 32.8458L39.8139 32.8086L39.8159 32.8008C39.6507 32.5834 38.7403 31.3753 38.4237 30.7076C38.17 30.177 37.6784 29.1432 37.4346 28.6302L37.3205 28.3894L37.291 28.3267C37.1868 28.1094 37.0885 28.0741 37.002 28.0428C36.9803 28.035 36.9607 28.0291 36.9508 28.0252C36.9135 28.0095 36.8014 28.0134 36.6598 28.031C36.6402 28.035 36.6205 28.0369 36.6008 28.0389C36.7444 28.1015 36.8899 28.1975 36.9862 28.3463H36.9921L37.0216 28.4089V28.4109H37.0236L37.1672 28.7124C37.411 29.2254 37.9026 30.2593 38.1543 30.7899C38.4846 31.483 39.4856 32.7949 39.5465 32.8752C39.6842 33.0201 39.8002 33.255 39.8808 33.5389C39.9595 33.815 40.0047 34.142 40.0047 34.4808C40.0047 34.8214 39.8887 35.2287 39.7314 35.5694C39.637 35.773 39.5249 35.9571 39.4089 36.0902C39.4974 36.0883 39.5858 36.0863 39.6488 36.0863C39.7235 36.0863 39.8788 35.8024 40.0204 35.4284C40.1502 35.0819 40.2525 34.6648 40.2525 34.3065C40.2525 33.9129 40.2092 33.6055 40.1364 33.3647Z" fill="#171717"/>
<path fill-rule="evenodd" clip-rule="evenodd" d="M36.4455 28.5832C36.6185 28.638 36.648 29.0355 36.5084 29.4702C36.3708 29.9048 36.1151 30.2122 35.9421 30.1555C35.7671 30.1006 35.7376 29.7032 35.8772 29.2704C36.0168 28.8358 36.2705 28.5283 36.4455 28.5832Z" fill="#171717"/>
<path fill-rule="evenodd" clip-rule="evenodd" d="M39.11 33.3451C39.3518 33.351 39.5327 33.8424 39.517 34.4416C39.5013 35.0407 39.2928 35.5204 39.0529 35.5146C38.8111 35.5087 38.6301 35.0172 38.6459 34.4181C38.6616 33.8189 38.8701 33.3392 39.11 33.3451Z" fill="#171717"/>
<path fill-rule="evenodd" clip-rule="evenodd" d="M36.1348 16.3984C36.1348 16.3984 36.123 15.8893 36.3019 15.8012C36.4789 15.7131 36.709 15.5976 36.8112 15.6368C36.9135 15.674 41.861 23.0009 41.861 23.0009L40.5218 22.8109L36.1348 16.3984Z" fill="#C6C6C6"/>
<path fill-rule="evenodd" clip-rule="evenodd" d="M20.4212 29.2372C20.4212 29.2372 20.5805 29.384 20.8675 29.2939C20.8852 28.0623 21.3375 24.9608 21.3375 24.9608L20.9246 24.9491L20.8852 24.8531L20.4212 29.2372Z" fill="#C6C6C6"/>
<path fill-rule="evenodd" clip-rule="evenodd" d="M25.1484 25.3015L24.6254 26.3569L24.238 29.4114C24.238 29.4114 24.3579 29.5035 24.415 29.5093C24.4739 29.5172 24.6509 29.4741 24.6509 29.4741L25.1484 25.3015Z" fill="#C6C6C6"/>
<path fill-rule="evenodd" clip-rule="evenodd" d="M25.5751 30.5706L28.5484 30.7233C28.7922 30.735 28.977 30.923 28.9928 31.1658L29.1973 34.3026L28.4677 37.3532L26.0412 37.2866C25.7954 37.2807 25.5673 36.9165 25.5535 36.6737L25.2487 31.015C25.235 30.7703 25.3313 30.5569 25.5751 30.5706Z" fill="#C6C6C6"/>
<path fill-rule="evenodd" clip-rule="evenodd" d="M15.0548 40.439C15.0548 40.439 15.102 40.3959 15.1591 40.6896H18.5079C18.4764 40.5232 18.4312 40.5056 18.3407 40.3998L15.0548 40.439ZM15.2023 40.9324C15.218 41.0244 15.2338 41.1263 15.2495 41.234H18.5924C18.5806 41.1341 18.5649 41.0342 18.5492 40.9324H15.2023ZM15.279 41.4748C15.2869 41.5394 15.2928 41.604 15.3006 41.6706H18.6376C18.6337 41.606 18.6278 41.5414 18.6199 41.4748H15.279ZM15.3203 41.9114C15.3262 41.9917 15.3301 42.0739 15.336 42.1601H18.6652C18.6632 42.0779 18.6593 41.9956 18.6553 41.9114H15.3203ZM15.3439 42.4009C15.3459 42.5341 15.3459 42.6731 15.3439 42.8121H18.6652C18.6691 42.679 18.6711 42.5419 18.6691 42.4009H15.3439ZM15.3341 43.053C15.3282 43.1724 15.3203 43.2899 15.3085 43.4113H18.6278C18.6376 43.2977 18.6475 43.1783 18.6534 43.053H15.3341ZM15.281 43.6521C15.2692 43.7343 15.2574 43.8166 15.2436 43.9008H18.5708C18.5806 43.8225 18.5924 43.7383 18.6022 43.6521H15.281ZM15.1984 44.1416C15.1768 44.2434 15.1532 44.3433 15.1256 44.4451H18.4764C18.4941 44.357 18.5138 44.2552 18.5334 44.1416H15.1984ZM15.0548 44.6859C15.0391 44.7388 14.9329 45.0834 14.9152 45.1343L18.2621 45.1148C18.2621 45.1148 18.3997 44.7878 18.4233 44.6859H15.0548Z" fill="#C6C6C6"/>
<path fill-rule="evenodd" clip-rule="evenodd" d="M25.3942 33.7112C25.5515 33.4391 25.8603 32.9378 26.0038 32.6676C26.3125 32.0821 26.6527 31.0816 27.2721 30.6567L28.5484 30.7233C28.7922 30.735 28.977 30.923 28.9928 31.1658L29.0262 31.6553C28.9043 31.7943 28.7804 31.9745 28.6821 32.2114C28.4579 32.7498 27.1247 32.9848 26.6921 33.9129C26.4738 34.3828 25.8563 34.5649 25.4572 34.886L25.3942 33.7112ZM25.4748 35.2189C25.703 35.1308 25.9841 34.9741 26.0923 34.8782C26.812 34.234 28.043 33.9403 28.7824 33.4939C28.918 33.4116 29.0341 33.3529 29.1343 33.3118L29.1697 33.8737C29.1402 33.8953 29.1088 33.9168 29.0773 33.9383C27.809 34.749 26.7412 35.7006 25.7089 36.8088C25.6774 36.8421 25.6459 36.8754 25.6164 36.9048C25.581 36.8245 25.5574 36.7442 25.5535 36.6737L25.4748 35.2189Z" fill="white"/>
</svg>
