<svg width="241" height="64" viewBox="0 0 241 64" fill="none" xmlns="http://www.w3.org/2000/svg">
<path d="M98.9856 21.0232H93.5631V15.4893H106.155V9.99561H87.8093V39.1385H98.9856C104.659 39.1385 108.656 35.4292 108.656 30.0658C108.656 24.7324 104.659 21.0232 98.9856 21.0232ZM98.9856 33.765H93.5631V26.3966H98.9856C101.155 26.3966 102.942 27.6497 102.942 30.0658C102.942 32.5219 101.155 33.765 98.9856 33.765Z" fill="#FFC421"/>
<path d="M127.505 9.99561L121.751 24.0708L115.375 9.99561H109.621L119.17 30.3565C117.955 32.8127 116.208 34.0558 112.995 33.765V39.1385C118.206 39.4292 122.082 36.9731 124.502 31.0984L133.259 9.99561H127.505Z" fill="#FFC421"/>
<path d="M157.985 33.6447V9.99561H138.725V23.7801C138.725 28.8928 137.681 31.7299 136.305 33.6447H133.463V44.7224H139.217V39.1385H155.364V44.7224H161.118V33.6447H157.985ZM142.471 33.6447C143.555 31.77 144.479 28.8527 144.479 23.8603V15.369H152.231V33.6447H142.471Z" fill="#FFC421"/>
<path d="M183.424 9.99561H161.945V15.4893H169.788V39.1385H175.542V15.4893H183.424V9.99561Z" fill="#FFC421"/>
<path d="M191.55 33.6447V27.1084H202.606V21.6949H191.55V15.4893H203.641V9.99561H185.797V39.1385H203.851V33.6447H191.55Z" fill="#FFC421"/>
<path d="M229.284 39.1385L220.327 24.151L228.792 9.99561H222.285L217.073 18.7375L211.862 9.99561H205.355L213.82 24.1911L204.893 39.1385H211.4L217.073 29.6447L222.737 39.1385H229.284Z" fill="#FFC421"/>
<path d="M88.4608 61.713C89.6457 61.713 90.7503 61.1316 91.4331 60.2093L90.3988 59.5476C89.9771 60.1291 89.3444 60.4799 88.5411 60.4799C87.3662 60.4799 86.6834 59.6178 86.9043 58.3847C87.1152 57.1516 88.0993 56.2895 89.3244 56.2895C90.1076 56.2895 90.5896 56.6403 90.8507 57.1817L92.0055 56.5802C91.5837 55.6579 90.69 55.0664 89.4449 55.0664C87.5671 55.0664 85.9604 56.4198 85.6491 58.2945C85.3278 60.1491 86.4826 61.713 88.4608 61.713Z" fill="white"/>
<path d="M98.9726 55.1865H94.1827L93.058 61.5825H94.3233L95.2371 56.3996H97.4964L96.5826 61.5825H97.8479L98.9726 55.1865Z" fill="white"/>
<path d="M104.883 56.3996L105.094 55.1865H101.178L100.053 61.5825H104.02L104.231 60.3795H101.529L101.78 58.9459H104.2L104.421 57.763H101.981L102.232 56.3996H104.883Z" fill="white"/>
<path d="M110.925 60.3795L111.838 55.1865H110.573L109.659 60.3795H107.4L108.314 55.1865H107.049L105.924 61.5825H110.131L109.91 62.8056H111.176L111.607 60.3795H110.925Z" fill="white"/>
<path d="M118.62 55.1865H113.91L113.699 56.3996H115.416L114.503 61.5825H115.768L116.682 56.3996H118.409L118.62 55.1865Z" fill="white"/>
<path d="M124.049 56.3996L124.26 55.1865H120.344L119.219 61.5825H123.186L123.397 60.3795H120.696L120.947 58.9459H123.367L123.588 57.763H121.147L121.398 56.3996H124.049Z" fill="white"/>
<path d="M130.985 55.1865H129.488L128.032 57.1113L127.199 55.1865H125.843L127.159 58.2442L124.608 61.5825H126.104L127.701 59.4873L128.605 61.5825H129.97L128.565 58.3544L130.985 55.1865Z" fill="white"/>
<path d="M136.462 55.1865L136.01 57.7329H133.63L134.082 55.1865H132.817L131.692 61.5825H132.957L133.419 58.9359H135.799L135.337 61.5825H136.593L137.717 55.1865H136.462Z" fill="white"/>
<path d="M139.922 55.1865L138.797 61.5825H140.062L141.187 55.1865H139.922Z" fill="white"/>
<path d="M148.388 55.1865H146.871L144.18 57.9334L144.662 55.1865H143.397L142.272 61.5825H143.538L144.08 58.4948L145.948 61.5825H147.273L145.305 58.3344L148.388 55.1865Z" fill="white"/>
<path d="M153.038 61.5825H154.404L153.279 55.1865H151.713L148.339 61.5825H149.714L150.317 60.4296H152.877L153.038 61.5825ZM150.929 59.2567L152.315 56.59L152.697 59.2567H150.929Z" fill="white"/>
<path d="M160.479 55.1865L159.354 61.5825H160.619L161.744 55.1865H160.479Z" fill="white"/>
<path d="M169.293 57.6126H168.098L168.319 56.3996H171.08L171.291 55.1865H167.265L166.14 61.5825H168.59C169.916 61.5825 170.839 60.8607 171.05 59.6878C171.261 58.5148 170.458 57.6126 169.293 57.6126ZM169.815 59.5875C169.715 60.1189 169.283 60.3996 168.791 60.3996H167.616L167.897 58.7855H169.082C169.564 58.7855 169.906 59.0562 169.815 59.5875Z" fill="white"/>
<path d="M177.152 55.1865L175.405 58.2843L174.471 55.1865H173.266L174.641 59.6276C174.29 60.189 173.878 60.4798 173.175 60.4096L172.974 61.5825C174.119 61.6427 175.013 61.2216 175.806 59.8181L178.447 55.1865H177.152Z" fill="white"/>
<path d="M185.078 55.1865H180.851L180.329 58.2141C180.128 59.3369 179.796 59.9585 179.405 60.3795H178.792L178.36 62.8056H179.616L179.827 61.5825H183.381L183.16 62.8056H184.426L184.857 60.3795H184.165L185.078 55.1865ZM180.811 60.3795C181.092 59.9785 181.383 59.3369 181.574 58.2341L181.905 56.3695H183.622L182.899 60.3795H180.811Z" fill="white"/>
<path d="M187.629 55.1865L186.504 61.5825H187.769L188.894 55.1865H187.629Z" fill="white"/>
<path d="M195.251 57.0311C195.422 55.9484 194.628 55.1865 193.534 55.1865H191.104L189.979 61.5825H192.62C194.056 61.5825 194.869 60.8006 195.01 59.778C195.1 59.0963 194.859 58.595 194.438 58.3043C194.869 58.0136 195.171 57.5825 195.251 57.0311ZM193.383 56.3695C193.845 56.3695 194.056 56.7003 193.986 57.0712C193.915 57.4722 193.574 57.773 193.142 57.773H191.907L192.158 56.3695H193.383ZM193.775 59.6477C193.695 60.0788 193.333 60.3996 192.851 60.3996H191.455L191.716 58.8958H193.132C193.604 58.8958 193.845 59.2166 193.775 59.6477Z" fill="white"/>
<path d="M201.305 55.1865L200.853 57.7329H198.474L198.925 55.1865H197.66L196.535 61.5825H197.801L198.263 58.9359H200.643L200.181 61.5825H201.436L202.56 55.1865H201.305Z" fill="white"/>
<path d="M203.64 61.5825H204.604L208.019 57.763L207.346 61.5825H208.611L209.736 55.1865H208.772L205.348 59.0061L206.03 55.1865H204.765L203.64 61.5825Z" fill="white"/>
<path d="M215.819 60.3795L216.733 55.1865H215.468L214.554 60.3795H212.295L213.208 55.1865H211.943L210.819 61.5825H215.026L214.805 62.8056H216.07L216.502 60.3795H215.819Z" fill="white"/>
<path d="M223.514 55.1865H218.805L218.594 56.3996H220.311L219.397 61.5825H220.662L221.576 56.3996H223.303L223.514 55.1865Z" fill="white"/>
<path d="M229.386 57.0311C229.557 55.9484 228.763 55.1865 227.669 55.1865H225.239L224.114 61.5825H226.755C228.191 61.5825 229.004 60.8006 229.145 59.778C229.235 59.0963 228.994 58.595 228.573 58.3043C229.004 58.0136 229.306 57.5825 229.386 57.0311ZM227.518 56.3695C227.98 56.3695 228.191 56.7003 228.121 57.0712C228.05 57.4722 227.709 57.773 227.277 57.773H226.042L226.293 56.3695H227.518ZM227.91 59.6477C227.83 60.0788 227.468 60.3996 226.986 60.3996H225.59L225.851 58.8958H227.267C227.739 58.8958 227.98 59.2166 227.91 59.6477Z" fill="white"/>
<path d="M233.713 61.713C235.701 61.713 237.248 60.3596 237.579 58.485C237.911 56.6203 236.645 55.0664 234.818 55.0664C232.839 55.0664 231.273 56.4198 230.952 58.2945C230.62 60.1591 231.865 61.713 233.713 61.713ZM233.864 60.4799C232.689 60.4799 231.986 59.6078 232.207 58.3847C232.428 57.1516 233.452 56.2895 234.627 56.2895C235.792 56.2895 236.535 57.1717 236.324 58.3947C236.103 59.6278 235.049 60.4799 233.864 60.4799Z" fill="white"/>
<mask id="mask0_211_407" style="mask-type:luminance" maskUnits="userSpaceOnUse" x="0" y="0" width="81" height="64">
<path d="M0 0.105469H80.494V63.8398H0V0.105469Z" fill="white"/>
</mask>
<g mask="url(#mask0_211_407)">
<path fill-rule="evenodd" clip-rule="evenodd" d="M18.6499 63.8071C16.8198 61.3584 10.9278 63.8021 11.5906 61.4487L5.24174 61.4211L40.1767 4.50631L75.2196 61.2482H69.4256C70.1561 64.0251 62.8734 60.9048 62.6374 63.8071H80.4865L40.247 0.167969L0.0125427 63.8071H18.6499Z" fill="#FFC421"/>
</g>
<mask id="mask1_211_407" style="mask-type:luminance" maskUnits="userSpaceOnUse" x="15" y="9" width="51" height="55">
<path d="M15.1604 9.0127H65.2884V63.8398H15.1604V9.0127Z" fill="white"/>
</mask>
<g mask="url(#mask1_211_407)">
<path fill-rule="evenodd" clip-rule="evenodd" d="M29.9342 56.895C31.2949 56.9602 33.7224 57.0028 33.7224 57.0028L34.7844 58.3587L35.5174 58.3737C35.5174 58.3737 37.1316 60.7046 37.7667 61.4264C38.4019 62.1507 39.4989 63.7246 40.1893 63.7246C40.8822 63.7246 61.6157 62.1457 61.6157 62.1457C61.6157 62.1457 64.3019 62.0479 65.0173 56.2609C65.2131 55.3361 64.8065 45.4689 64.8065 45.4689L64.7738 41.697L62.3161 40.5918C62.3161 40.5918 61.696 40.3963 61.4525 40.9C60.7145 40.9376 60.0316 40.8198 59.4869 40.6544L58.071 33.9577C58.1036 33.9552 58.1363 33.9526 58.1689 33.9451L58.179 33.9476C58.1865 33.9476 58.194 33.9476 58.2015 33.9476C58.2066 33.9476 58.2141 33.9476 58.2191 33.9476C58.3446 33.9476 58.4626 33.895 58.5706 33.7973C58.6409 33.7496 58.6986 33.6845 58.7363 33.6043H58.7388C58.804 33.5065 58.8643 33.3937 58.917 33.2634C59.1153 32.885 59.3187 32.3712 59.2233 31.3587C59.0978 30.0504 58.3622 29.5717 57.7672 29.5617C57.7371 29.5567 57.7045 29.5516 57.6744 29.5516C57.6442 29.5516 57.6166 29.5541 57.589 29.5592H57.5865C57.5589 29.5642 57.5288 29.5717 57.5011 29.5792C57.3706 29.6193 57.2501 29.7045 57.1422 29.8273C57.1246 29.8474 57.107 29.8674 57.0919 29.89L56.9589 29.8775L53.7882 29.5692L47.841 20.712C47.841 20.712 48.0369 19.9 47.841 19.3486C47.6452 18.7947 46.8168 17.8524 46.8168 17.8524C46.8168 17.8524 46.5055 17.7722 46.2143 17.4789C45.9206 17.1857 42.7298 12.5366 42.7298 12.5366C42.7298 12.5366 42.9407 11.4489 42.2077 11.0253C41.4746 10.6043 42.0621 10.2935 41.6704 10.4564C41.2813 10.6193 40.596 9.9852 40.4504 9.93758C40.3023 9.88746 39.5868 9.51402 39.5868 9.51402L39.3106 9.49899L39.0345 9.75713L38.6253 9.72455L37.6337 9.14059L37.3575 9.12305L37.1291 9.41628L36.5416 9.35112L35.5174 10.1957L35.0279 12.1632L34.8797 15.7521L33.1551 18.8599L32.7986 20.8424L28.3853 27.1181L27.3284 29.9952L26.2866 30.0429V31.2133H26.6104L26.0079 37.3261C26.0079 37.3261 25.7644 37.5191 25.7644 37.7146C25.7644 37.91 25.5535 37.7973 25.5535 38.2835C25.5535 38.7722 25.2272 43.0303 25.2272 43.0303L21.5971 42.905L21.4214 39.8374C21.3762 39.7922 21.3034 39.7672 21.2256 39.7547C21.1653 39.7446 21.0247 39.7547 21.0047 39.7697L20.8867 42.8975L20.3695 42.905L19.8398 43.6118L18.7101 43.6268L18.1654 43.9451L17.7662 45.91C17.6131 46.6594 17.6683 47.7898 17.6507 48.5241C17.6281 49.5792 17.6106 50.3111 17.7738 50.4489C17.8491 50.6619 18.1152 50.7121 18.1152 50.7121C17.8767 50.707 17.6231 50.7045 17.3595 50.6995L15.7077 51.6494C15.7077 51.6494 15.1629 52.3812 15.3261 54.2885C15.4893 56.1983 15.66 56.692 15.9612 56.9276C16.26 57.1632 18.5344 58.1306 18.5344 58.1306L23.3394 57.9351C23.3394 57.9351 24.0875 56.9602 24.1025 54.3587C27.8004 54.1657 28.8598 54.2334 28.8598 54.2334C28.8598 54.2334 28.0866 56.2058 29.9342 56.895ZM45.303 35.9902L45.2453 35.9877L45.2905 35.9727L38.1056 24.9401L37.5684 25.2484L33.0421 30.8724L33.2053 30.9526L33.3183 31.3587L33.1877 32.3361L32.2287 32.2534L31.5283 37.7321C31.5283 37.7321 31.561 37.7146 31.6413 38.0228C31.7242 38.3336 31.8221 38.3336 31.8221 38.3336L36.7877 38.5441C36.7877 38.5441 37.6161 38.707 37.6989 39.4213C37.7793 40.1381 37.8295 41.2108 37.8295 41.2108L37.8697 41.7146L38.1056 40.6419L38.4471 39.5842L38.6253 39.3411L39.1952 39.3562L39.8629 39.7797L43.6888 39.9902L44.4721 39.8775L45.4637 39.4714C44.452 38.4539 44.8787 36.6745 45.303 35.9902ZM31.2848 33.7973L30.8756 37.6168C30.8756 37.6168 30.7953 37.6494 30.6171 38.0404C30.4363 38.4313 30.4037 38.073 30.371 38.6745C30.3384 39.276 29.8514 39.7948 29.8514 39.7948L30.0146 38.479L30.6823 35.9426L31.2848 33.7973Z" fill="#171717" stroke="#3D3C3B" stroke-width="0.454298" stroke-linejoin="round"/>
<path fill-rule="evenodd" clip-rule="evenodd" d="M29.9342 56.895C31.2949 56.9601 33.7224 57.0027 33.7224 57.0027L34.7843 58.3586L35.5174 58.3737C35.5174 58.3737 37.1316 60.7045 37.7667 61.4263C38.4018 62.1506 39.4989 63.7246 40.1893 63.7246C40.8821 63.7246 61.6157 62.1456 61.6157 62.1456C61.6157 62.1456 64.3018 62.0479 65.0173 56.2609C65.2131 55.3361 64.8064 45.4689 64.8064 45.4689L64.7738 41.697L62.3161 40.5917C62.3161 40.5917 61.696 40.3962 61.4525 40.9C59.8508 40.9827 58.5228 40.3311 58.2618 40.0554C58.0007 39.7797 57.7396 33.9601 57.7396 33.9601C57.7396 33.9601 58.5253 34.0428 58.7362 33.6042C58.9496 33.1657 59.3513 32.702 59.2232 31.3586C59.0927 30.0153 58.322 29.5441 57.7195 29.5616C57.117 29.5767 56.9262 30.2208 56.9262 30.2208L55.8693 30.1256C55.8693 30.1256 55.4928 29.8474 54.9731 29.8474C54.4509 29.8474 53.9313 29.7822 53.9313 29.7822L47.841 20.712C47.841 20.712 48.0368 19.9 47.841 19.3486C47.6452 18.7947 46.8168 17.8524 46.8168 17.8524C46.8168 17.8524 46.508 17.7722 46.2143 17.4789C45.9205 17.1857 42.7298 12.5366 42.7298 12.5366C42.7298 12.5366 42.9407 11.4489 42.2076 11.0253C41.4746 10.6042 42.062 10.2935 41.6704 10.4564C41.2813 10.6193 40.596 9.9852 40.4503 9.93758C40.3047 9.88746 39.5868 9.51402 39.5868 9.51402L39.3106 9.49899L39.0345 9.75713L38.6278 9.72455L37.6337 9.14059L37.3575 9.12305L37.1291 9.41628L36.5416 9.35112L35.5174 10.1957L35.0278 12.1631L34.8797 15.7521L33.1551 18.8599L32.7986 20.8423L28.3853 27.118L27.3284 29.9952L26.2866 30.0428V31.2133H26.6104L26.0079 37.3261C26.0079 37.3261 25.7644 37.519 25.7644 37.7145C25.7644 37.91 25.5535 37.7972 25.5535 38.2834C25.5535 38.7722 25.2272 43.0303 25.2272 43.0303L21.5971 42.9025L21.4214 39.8373C21.3762 39.7922 21.3034 39.7672 21.2256 39.7546C21.1653 39.7446 21.0247 39.7546 21.0047 39.7697L20.8867 42.8975L20.3695 42.905L19.8398 43.6118L18.7101 43.6268L18.1654 43.9451L17.7662 45.91C17.6131 46.6594 17.6683 47.7897 17.6532 48.524C17.6281 49.5792 17.6106 50.311 17.7737 50.4489C17.8491 50.6619 18.1177 50.712 18.1177 50.712C17.8767 50.707 17.6231 50.7045 17.3595 50.6995L15.7077 51.6494C15.7077 51.6494 15.1629 52.3812 15.3261 54.2885C15.4893 56.1982 15.66 56.6945 15.9612 56.9276C16.2625 57.1631 18.5344 58.1306 18.5344 58.1306L23.3393 57.9351C23.3393 57.9351 24.0874 56.9601 24.105 54.3586C27.8004 54.1657 28.8598 54.2333 28.8598 54.2333C28.8598 54.2333 28.0865 56.2058 29.9342 56.895ZM31.2848 33.7972L30.8756 37.6168C30.8756 37.6168 30.7953 37.6494 30.617 38.0403C30.4363 38.4313 30.4037 38.0729 30.371 38.6744C30.3384 39.2759 29.8514 39.7947 29.8514 39.7947L30.0145 38.4789L30.6823 35.9426L31.2848 33.7972ZM38.1056 24.9401L37.5684 25.2484L33.0421 30.8724L33.2053 30.9526L33.3183 31.3586L33.1877 32.3361L32.2287 32.2534L31.5283 37.7321C31.5283 37.7321 31.561 37.7145 31.6413 38.0228C31.7241 38.3336 31.822 38.3336 31.822 38.3336L36.7876 38.5441C36.7876 38.5441 37.6161 38.707 37.6989 39.4213C37.7793 40.1381 37.8295 41.2108 37.8295 41.2108L37.8696 41.7145L38.1056 40.6418L38.447 39.5842L38.6278 39.3411L39.1976 39.3561L39.8629 39.7797L43.6913 39.9902L44.472 39.8774L45.4636 39.4714C44.452 38.4539 44.8787 36.6744 45.303 35.9877L38.1056 24.9401Z" fill="#171717"/>
</g>
<path fill-rule="evenodd" clip-rule="evenodd" d="M26.0205 47.2155C25.9577 47.2105 28.7543 47.2983 28.7543 47.2983L28.812 49.4085L28.6489 49.416L28.4129 47.6792L26.0205 47.2155ZM50.974 41.9449C51.2702 42.2481 51.4836 42.7694 51.5213 43.6316L51.7171 29.7168L56.9262 30.2206L56.9563 30.3634C56.9689 30.3509 56.9839 30.3409 56.9965 30.3283C57.1396 30.0025 57.3304 29.777 57.5438 29.7118C57.5864 29.6993 57.6291 29.6917 57.6743 29.6917C58.1965 29.6917 58.6207 30.6366 58.6207 31.802C58.6207 32.9424 58.214 33.8722 57.7069 33.9098L60.2475 45.9399H51.4886L51.5137 44.1905C51.4209 45.178 50.8761 46.3308 50.6175 46.3308C50.3338 46.3308 49.8694 46.3534 49.9171 46.3384C49.9397 46.3308 49.9598 46.3208 49.9824 46.3058C49.9196 46.3384 49.8569 46.3559 49.7941 46.3559C49.282 46.3559 48.8678 45.3935 48.8678 44.2055L48.815 41.2957L48.5866 40.807L46.9573 40.1729L45.8954 39.3759V39.3734C45.4988 39.1454 45.2126 38.4662 45.2126 37.6667C45.2126 36.7394 45.7071 35.9775 46.1113 35.8847C46.1013 35.8847 46.0963 35.8847 46.0963 35.8847C46.5055 35.7644 47.0778 35.6817 47.226 35.7419C47.3766 35.802 47.5523 35.8196 47.7331 36.198V36.2005C47.7757 36.2882 48.7473 38.3384 49.1791 39.2456C49.6184 40.1729 50.974 41.9449 50.974 41.9449ZM49.9372 41.5714C49.5004 40.9724 48.8602 40.0526 48.5841 39.4712C48.1523 38.5639 47.1808 36.5113 47.1406 36.4261M47.1381 36.4236C47.1808 36.5113 47.9063 38.2657 48.3431 39.183C48.7724 40.0927 49.9196 41.5489 49.9372 41.5714M45.9958 31.0902C46.2519 31.0351 46.5557 30.9574 46.9172 30.8546C48.1197 30.5113 48.8904 29.99 49.3447 29.5815C49.4878 29.2531 49.6786 29.0301 49.892 28.9649C49.9347 28.9499 49.9774 28.9449 50.0226 28.9449C50.5447 28.9449 50.969 29.8897 50.969 31.0526C50.969 32.2181 50.5447 33.1629 50.0226 33.1629C49.9322 33.1629 49.8443 33.1353 49.759 33.0827C49.2895 32.9474 48.2577 32.7118 47.3063 32.8922C47.1632 32.9198 47.0176 32.9549 46.872 32.995L47.5172 34.3985L46.9297 35.0501L45.4963 35.4712L44.5072 33.9374C44.3214 33.8647 44.1607 33.609 44.0678 33.2582L35.545 20.0551L35.3768 12.1303L35.6956 11.0251L36.509 10.4411L45.9958 31.0902ZM42.4762 12.5639L42.2076 12.5689L46.0511 17.8998C46.0536 17.9023 46.6762 18.0376 46.6762 18.0376C47.0904 18.4461 47.5774 19.406 47.6628 19.4612L47.728 20.015C47.728 20.015 47.4971 19.5013 46.7791 19.6792C46.3649 19.7845 46.0435 19.8872 45.8753 20.406C45.7548 20.787 46.0235 21.609 45.9205 21.4436C45.677 21.0551 40.6461 13.7243 40.6461 13.7243C40.6461 13.7243 41.2612 12.3509 42.4762 12.5639ZM39.3909 9.7569L39.2127 9.93735L40.6612 10.8145L40.1089 12.7644L40.5633 13.4787C40.5633 13.4787 41.1984 12.5364 41.6378 12.4712C42.0771 12.406 42.5666 12.406 42.5666 12.406C42.5666 12.406 42.5842 11.594 42.2252 11.2682C41.8662 10.9449 41.6227 10.5865 41.4445 10.7644C41.2637 10.9449 40.8244 10.4737 40.8244 10.4737L39.3909 9.7569ZM37.4705 9.59399L39.4236 13.2206L40.0763 11.5288C40.0763 11.5288 40.1742 11.1504 39.4738 10.5714C38.6855 9.9173 37.7793 9.43359 37.7793 9.43359L37.4705 9.59399ZM29.3894 47.7694L29.6405 47.995L29.8438 48.0852L30.1626 48.0451L30.3334 47.9399L31.4957 39.5263L31.6338 39.3409L31.7066 38.4712L31.5534 38.0326L31.5358 37.9098L31.3074 37.9198L31.0714 37.9023L30.8781 37.8471L30.6497 38.2682L30.494 38.4787L30.4388 39.3158L30.5191 39.4211L30.7501 39.4762L30.9158 39.4937L31.1743 39.5013L31.0212 39.5664L30.7451 39.5714L30.494 39.604L29.3894 47.7694ZM30.8605 46.3133L30.8932 48.995C30.8932 48.995 30.9409 49.7744 31.2672 49.7744C31.5936 49.7744 31.8547 49.6291 31.8547 49.6291L35.3366 49.7268L36.2504 48.0526L33.2203 48.0201C33.2203 48.0201 32.407 47.9223 32.3593 46.5739C32.3091 45.2231 32.0655 39.3233 32.0655 39.3233C32.0655 39.3233 31.9199 39.0476 32.5701 39C33.2203 38.9499 36.5416 39.178 36.5416 39.178C36.5416 39.178 37.1115 39.2256 37.2094 39.7945C37.3073 40.3634 37.4303 43.5639 37.4303 43.5639L37.7491 41.8973L37.5307 39.4862C37.5307 39.4862 37.4253 39.1128 37.2219 39C37.0186 38.8847 36.6872 38.6917 36.4538 38.6917C36.2178 38.6917 31.7994 38.5364 31.7994 38.5364L31.7266 39.4211L31.566 39.6266L31.5032 40.1855L31.812 46.2331C31.812 46.2331 31.4957 46.4211 31.3827 46.4211C31.2672 46.4211 30.8605 46.3133 30.8605 46.3133ZM24.1427 54.1278L24.1351 53.1128L24.0699 52.5514L23.9243 52.2105L32.2438 52.2456L32.2915 53.1353L32.1961 53.9474L24.1427 54.1278ZM34.4479 51.9674L33.3986 51.406H33.253L32.6254 54.386C32.6254 54.386 32.5777 54.6466 32.8287 54.8496C33.0823 55.0526 34.935 56.6366 34.935 56.6366L40.4428 41.2231C40.4428 41.2231 40.7767 40.6316 40.3374 40.4286C39.898 40.2256 38.9868 39.609 38.9868 39.609L38.6453 39.7469L37.719 43.5213L36.8554 47.2406L36.4889 48.4261L35.6027 50.3434L34.6186 52.0401L34.4479 51.9674ZM33.3835 56.0952C33.873 56.7795 34.0588 56.9273 34.7843 57.9674L35.5977 57.7243L39.5868 62.7945C39.5868 62.7945 40.8093 64.0952 42.0771 61.5113C43.3474 58.9273 42.1599 51.1078 42.1599 51.1078L41.1834 41.0627L40.7616 40.8095L36.2504 54.4887L35.5324 56.3108L35.1634 57.3559L33.3835 56.0952ZM40.842 40.0877L41.6553 40.7694L42.9582 55.8872C42.9582 55.8872 43.3223 61.3534 42.1097 62.5188C40.8997 63.6842 62.6248 61.2181 62.6248 61.2181C62.6248 61.2181 64.3846 59.3333 64.5127 56.5038C64.6432 53.6767 64.1562 42.3308 64.1562 42.3308L61.7788 41.0952L60.004 41.193L60.1496 42.005C60.1496 42.005 61.7286 42.9975 61.7136 43.6466C61.696 44.2983 61.9094 44.2983 61.4198 45.5013C60.9328 46.7043 60.5889 47.2732 60.5563 48.411C60.5236 49.5489 60.7169 52.0451 60.8123 53.1028C60.9052 54.1579 60.0893 54.599 59.7278 55.6592C59.5345 56.2256 59.4341 55.7845 59.4341 55.7845C59.4341 55.7845 59.4015 55.1003 59.7429 54.6617C60.0843 54.2231 60.3705 53.787 60.4182 53.614C60.4684 53.4436 60.4709 52.9549 60.3805 52.183C60.2927 51.4135 60.2249 49.5263 60.1998 48.7118C60.1722 47.8947 60.5563 46.5464 60.6065 46.4361C60.6743 46.2782 61.0684 45.4035 61.0458 45.4336C60.5161 46.1379 60.2299 46.3759 60.1923 46.381C60.1923 46.381 59.7429 48.3684 59.7529 49.6441C59.7605 50.9198 59.9513 52.797 59.9513 52.797C59.9513 52.797 60.127 53.5088 59.8082 53.9148C59.4918 54.3208 58.6935 55.8246 58.6935 55.8246L57.6919 46.6541L51.3581 46.589C51.3581 46.589 51.1146 48.3008 51.0343 50.3183C50.9539 52.3333 51.2276 52.9624 51.2276 52.9624C51.2276 52.9624 51.3907 53.807 51.1146 54.213C50.8384 54.6191 50.138 55.8973 50.138 55.8973L49.9422 55.9298C49.9422 55.9298 50.3087 54.8897 50.6979 54.3534C51.0895 53.8171 51.0317 53.4436 51.0317 53.3308C51.0317 53.2181 50.7631 51.0902 50.8058 50.5389C50.846 49.985 51.1698 46.4361 51.1698 46.4361L51.0091 46.3709L50.5046 46.5113C50.5046 46.5113 50.0552 49.1579 50.1205 49.9875C50.1857 50.8145 50.3815 52.604 50.3815 52.604C50.3815 52.604 50.4945 53.579 50.251 54.1303C50.0075 54.6842 49.2745 56.0326 49.2745 56.0326L48.9983 46.3609C48.9983 46.3609 48.4284 46.005 48.4109 43.99C48.3958 41.9724 48.7222 42.1353 48.7222 42.1353C48.7222 42.1353 48.8176 40.7218 47.6954 40.5765C46.5707 40.4286 43.7716 40.4461 43.7716 40.4461L43.5432 40.1379L40.842 40.0877ZM43.8369 60.3734C43.8369 60.3734 43.5758 61.8371 43.2821 62.2256C42.9909 62.6166 61.2115 61.0978 62.2357 60.7318C63.2575 60.3659 64.4499 56.3434 63.9604 53.7744C63.4056 57.5439 62.5269 59.3659 62.5269 59.3659L57.4157 59.6266L56.6651 48.8647C56.6651 48.8647 56.635 59.6266 55.071 59.787C53.507 59.9499 43.8369 60.3734 43.8369 60.3734ZM26.9092 30.9023L26.8916 31.7143L28.3225 31.7243L28.3476 30.9348L28.0238 30.1729L26.4196 30.188L26.4598 30.8221L26.8188 30.4486L27.6798 30.5063L27.9736 30.9749L26.9092 30.9023ZM26.274 45.0902L26.4196 45.3559L28.2999 45.3659L28.8271 44.7895L28.7719 44.1228L28.7593 43.9399C28.7593 43.9399 29.7133 39.5614 30.3886 36.6592C30.3886 36.6541 30.0798 34.3333 29.5752 33.6015C29.0706 32.8697 28.679 32.8221 28.679 32.8221L31.4053 33.1404L31.5936 32.7419L32.0153 31.9599L32.6505 31.0677L33.3835 30.1404L37.006 25.6341L35.4345 21.4612L33.9207 23.8496L32.1132 26.7118L28.8095 31.9273L28.4505 32.6767L28.3376 33.0652L28.0589 33.8471L27.1978 38.0075L27.1652 38.2832L27.115 39.2431L26.9092 39.4336L26.274 45.0877V45.0902ZM37.1291 9.98497L46.3774 30.6592L49.8619 28.0276L48.2 25.0376L46.508 22.208C46.508 22.208 45.4963 22.0451 44.8461 20.7444C44.1959 19.4461 44.2185 20.4812 43.8043 19.802L40.6863 14.6917L39.5064 14.2281L37.3876 9.95239L37.1291 9.98497ZM36.2504 13.2682L36.6069 19.8998L37.1617 14.4712L42.6645 24.777L36.509 11.2206L36.1199 11.416L36.2504 13.2682ZM27.5142 29.8546L28.1568 29.8647L28.6614 30.7243L28.6388 31.2857L35.2136 20.6567L35.1659 15.7895L33.376 18.9399L33.0597 20.9073L28.5761 27.2256L28.4204 27.589L27.5142 29.8546ZM27.4439 32.193L26.9041 37.2932L27.7024 33.7644L28.0213 32.5689L28.3125 31.9173L27.9786 32.203L27.4439 32.193ZM26.0205 37.5364C26.0205 37.5364 26.2665 37.7243 26.7058 37.6015C27.1451 37.4812 26.7284 37.8622 26.7284 37.8622L26.997 38.2431L26.9493 39.1278L26.746 39.2582L26.4246 39.2456L26.7334 39.381L25.8774 48.0025C25.8774 48.0025 25.6715 48.1178 25.3703 48.0927C25.069 48.0702 24.8657 47.9399 24.8657 47.9399L25.2749 43.4536L25.6514 39.178L25.7217 37.99L25.8573 37.8797L25.905 37.5815L26.0205 37.5364ZM18.5043 49.8396C18.5043 49.8396 18.1127 50.0025 18.1277 48.7193C18.1453 47.4336 18.3085 44.2005 18.3085 44.2005L18.8783 43.7444L23.6155 43.8421L23.6958 46.2807C23.6958 46.2807 24.2004 46.2481 24.2004 46.802C24.2004 47.3534 24.2004 49.6115 24.2004 49.6115C24.2004 49.6115 24.2657 49.8897 23.8766 49.8722C23.4849 49.8572 18.5043 49.8396 18.5043 49.8396ZM18.1804 44.2932L18.0348 49.0602C18.0348 49.0602 18.0348 49.4912 18.1654 49.7343C18.2959 49.9775 17.7988 50.391 17.7988 50.391C17.7135 50.3484 17.6758 49.9649 17.7085 49.1203C17.7286 48.594 17.7035 47.7744 17.721 46.9298C17.7336 46.4236 17.8139 45.9048 17.8139 45.9048L18.1804 44.2932ZM18.326 49.9599L17.9846 50.5063L18.1729 50.6015L22.4682 50.6516L23.1008 50.3108L24.6397 50.0426L18.326 49.9599ZM16.3026 53.2907L15.8056 53.2832L15.6675 53.4862L15.66 55.1253L15.7579 55.2155L16.1144 55.2556L16.1796 55.3534L18.9863 56.0827C19.1344 56.1228 19.2951 53.7945 19.044 53.7218C18.2382 53.6466 16.4482 53.5263 16.4482 53.5263L16.3026 53.2907Z" fill="#FFC421"/>
<path d="M52.0585 30.1003L51.8401 45.5916H59.8182L56.64 30.5415L52.0585 30.1003ZM51.1422 45.9349L51.1523 45.2206C51.7472 44.163 51.4083 43.0628 51.1899 42.554L51.3682 29.7144L51.3757 29.3359L51.7497 29.3735L56.9589 29.8773L57.2149 29.8998L57.2676 30.1505L60.5889 45.8698L60.4082 46.0427L60.2475 46.2883H51.1372L51.1422 45.9349Z" fill="#171717"/>
<path d="M44.6201 30.9726C44.6804 30.9726 44.7406 30.9876 44.7984 31.0127C44.8386 31.0303 44.8787 31.0528 44.9164 31.0829C45.0419 31.0929 45.2327 31.0829 45.5139 31.0403C45.8352 30.9902 46.277 30.8924 46.8795 30.722C47.4695 30.5516 47.9515 30.341 48.3431 30.1205C48.7197 29.91 49.0109 29.6919 49.2293 29.4964C49.3046 29.331 49.3925 29.1881 49.4904 29.0779C49.5983 28.9576 49.7188 28.8724 49.8493 28.8323C49.877 28.8222 49.9071 28.8172 49.9347 28.8122H49.9372C49.9648 28.8072 49.9924 28.8047 50.0226 28.8047C50.3439 28.8047 50.6251 29.0729 50.8184 29.5064C50.9991 29.9049 51.1096 30.4513 51.1096 31.0553C51.1096 31.6568 50.9991 32.2032 50.8184 32.6017C50.6251 33.0353 50.3439 33.3034 50.0226 33.3034C49.9623 33.3034 49.9046 33.2934 49.8493 33.2759C49.7991 33.2608 49.7514 33.2383 49.7037 33.2107C49.4728 33.1455 49.1113 33.0578 48.6971 33.0077C48.2728 32.9551 47.7933 32.9425 47.3339 33.0303C46.9674 33.0979 46.5883 33.2182 46.2369 33.3511C45.7348 33.5415 45.2854 33.7596 45.0042 33.9074C44.9515 33.9651 44.8963 34.0102 44.8386 34.0403C44.7708 34.0804 44.6955 34.1004 44.6201 34.1004C44.3817 34.1004 44.1783 33.9074 44.0402 33.5992C43.9172 33.326 43.8419 32.9501 43.8419 32.5365C43.8419 32.123 43.9172 31.747 44.0402 31.4739C44.1783 31.1631 44.3817 30.9726 44.6201 30.9726ZM44.6879 31.2658C44.6653 31.2558 44.6427 31.2508 44.6201 31.2508C44.5022 31.2508 44.3867 31.3786 44.2938 31.5866C44.1858 31.8272 44.1181 32.1631 44.1181 32.5365C44.1181 32.91 44.1858 33.2458 44.2938 33.4864C44.3867 33.6944 44.5022 33.8222 44.6201 33.8222C44.6478 33.8222 44.6779 33.8122 44.7055 33.7972C44.7432 33.7771 44.7783 33.747 44.8109 33.7069L44.8285 33.6869L44.8511 33.6744C45.1398 33.5215 45.6093 33.2909 46.139 33.0904C46.503 32.9526 46.8971 32.8298 47.2812 32.7571C47.7732 32.6643 48.2828 32.6769 48.7297 32.732C49.174 32.7846 49.5581 32.8799 49.7991 32.9475L49.8167 32.9526L49.8343 32.9651C49.8669 32.9851 49.8996 33.0002 49.9322 33.0102C49.9598 33.0202 49.9899 33.0252 50.0226 33.0252C50.2234 33.0252 50.4167 32.8197 50.5648 32.4889C50.728 32.1255 50.8309 31.6167 50.8309 31.0553C50.8309 30.4914 50.728 29.9826 50.5648 29.6192C50.4167 29.2884 50.2234 29.0829 50.0226 29.0829C50.0075 29.0829 49.9924 29.0854 49.9774 29.0879V29.0854C49.9623 29.0879 49.9473 29.0929 49.9322 29.0979C49.8519 29.123 49.774 29.1781 49.6987 29.2633C49.6159 29.3561 49.5381 29.4839 49.4703 29.6368L49.4602 29.6643L49.4376 29.6844C49.2042 29.8949 48.8904 30.133 48.4787 30.3636C48.072 30.5917 47.5674 30.8147 46.9548 30.9876C46.3448 31.1631 45.8929 31.2633 45.5565 31.3135C45.2126 31.3686 44.9892 31.3711 44.8461 31.3561L44.8009 31.3511L44.7658 31.321C44.7406 31.2959 44.713 31.2784 44.6879 31.2658Z" fill="#171717"/>
<path d="M45.2955 31.0302C45.2528 31.0177 45.2101 31.0102 45.1699 31.0102L44.6678 30.9751H44.6352L44.6277 30.9726H44.6252L44.6101 31.2508L44.6402 31.2533L44.6578 31.2558L44.6804 31.2633L44.703 31.2733L44.7256 31.2884L44.7432 31.3009L44.7708 31.3235L44.8034 31.351L44.8486 31.3561L44.9038 31.3611H44.9114L44.954 31.3636H45.0645L45.1072 31.3611H45.1122C45.1549 31.3586 45.1925 31.3586 45.2277 31.3535C45.2653 31.351 45.308 31.3485 45.3557 31.341L45.7448 31.2984L45.4134 31.0879C45.3758 31.0628 45.3356 31.0428 45.2955 31.0302ZM44.6001 34.0979L45.1147 34.133L45.1298 34.1355H45.1649C45.2402 34.1355 45.3155 34.1155 45.3833 34.0779C45.4436 34.0453 45.4988 34.0002 45.549 33.945C45.7875 33.8197 46.1415 33.6443 46.5431 33.4814C46.9573 33.3109 47.4268 33.153 47.8787 33.0653C48.0092 33.0428 48.1423 33.0252 48.2753 33.0152C48.4134 33.0052 48.5464 33.0027 48.6745 33.0027L49.8795 33.0252C49.8619 33.0453 49.8519 33.0854 49.8519 33.1631V33.2834L49.9724 33.3009H49.9874L50.5171 33.3385H50.5397L50.5472 33.341H50.5498V33.3385H50.5648L50.5673 33.341C50.7707 33.341 50.9564 33.2332 51.1146 33.0453L51.5163 33.0528L51.1447 33.0102C51.2276 32.9074 51.3004 32.7821 51.3631 32.6393C51.5439 32.2408 51.6543 31.6919 51.6543 31.0904C51.6543 30.4964 51.5414 29.9601 51.3606 29.5641C51.1623 29.128 50.8786 28.8523 50.5598 28.8272L50.5247 28.8247C50.3514 28.8097 50.2485 28.8022 50.0376 28.8047H50L50.01 29.0829H50.0326C50.1255 29.0854 50.1908 29.1305 50.2284 29.1581H50.2309L50.2435 29.1656C50.4092 29.2909 50.5523 29.539 50.6602 29.8648C50.7657 30.1982 50.8309 30.6092 50.8309 31.0528C50.8309 31.5039 50.7657 31.9175 50.6552 32.2508C50.5598 32.549 50.4293 32.7796 50.2811 32.9099L48.6946 32.727C48.4611 32.6994 48.21 32.6844 47.9515 32.6894C47.7306 32.6944 47.5046 32.7144 47.2812 32.7571C46.9021 32.8272 46.513 32.95 46.154 33.0854C45.6394 33.2784 45.1775 33.5039 44.8837 33.6568L44.8762 33.6618H44.8737L44.8511 33.6743L44.831 33.6844L44.8135 33.7044L44.7883 33.732H44.7858L44.7833 33.737L44.7658 33.7545L44.7105 33.7946L44.6829 33.8072L44.6603 33.8147L44.6227 33.8222H44.6076L44.6001 34.0979ZM45.1348 33.8548H45.1097C45.19 33.8122 45.2804 33.7671 45.3808 33.7195L45.3733 33.7245L45.3557 33.7445C45.3206 33.7846 45.2854 33.8147 45.2503 33.8347C45.2227 33.8498 45.1925 33.8573 45.1649 33.8573H45.1398L45.1348 33.8548ZM50.5472 33.0378H50.6853C50.6452 33.0553 50.6075 33.0628 50.5673 33.0628H50.5573L50.5372 33.0603H50.5272L50.5472 33.0378ZM50.8008 32.9701L50.6175 32.95C50.738 32.7896 50.841 32.5816 50.9213 32.336C51.0393 31.9751 51.1096 31.5315 51.1096 31.0528C51.1096 30.5816 51.0393 30.1405 50.9238 29.7796C50.8359 29.5064 50.718 29.2759 50.5799 29.1104C50.7757 29.1505 50.9615 29.3586 51.1071 29.6769C51.2702 30.0403 51.3757 30.5365 51.3757 31.0904C51.3757 31.6543 51.2728 32.1631 51.1096 32.5265C51.0192 32.727 50.9138 32.8799 50.8008 32.9701Z" fill="#171717"/>
<path fill-rule="evenodd" clip-rule="evenodd" d="M45.1649 31.1502C45.2252 31.1502 45.2829 31.1677 45.3406 31.2028C45.2528 31.2128 45.175 31.2204 45.1072 31.2229H45.1021C45.072 31.2229 45.0444 31.2254 45.0168 31.2254H45.0068C44.9917 31.2254 44.9741 31.2254 44.9591 31.2229H44.9164L44.8611 31.2178L44.831 31.1928L44.8009 31.1702L44.7683 31.1502L44.7281 31.1326L44.693 31.1226L44.6503 31.1126H44.6201L45.1649 31.1502ZM44.6101 33.9597L45.1247 33.9948C45.1373 33.9973 45.1498 33.9973 45.1649 33.9973C45.2703 33.9973 45.3733 33.9371 45.4611 33.8344C45.9406 33.5813 46.9272 33.1051 47.8511 32.9296C48.1247 32.877 48.4059 32.8595 48.677 32.8645C48.2502 32.8143 47.7707 32.8043 47.3063 32.892C46.4025 33.065 45.4385 33.5236 44.9465 33.7792L44.939 33.7843L44.9164 33.7968L44.8863 33.8294V33.8319L44.8511 33.862L44.7858 33.9121L44.7331 33.9371L44.6904 33.9522L44.6352 33.9597H44.6101ZM49.9975 33.1627L50.5272 33.1978C50.5347 33.2003 50.5422 33.2003 50.5472 33.2003H50.5498C50.5548 33.2003 50.5598 33.2003 50.5673 33.2003C51.0895 33.2003 51.5138 32.2554 51.5138 31.09C51.5138 29.9246 51.0694 29.0048 50.5498 28.9647C50.3439 28.9497 50.2435 28.9397 50.0075 28.9447C50.1707 28.9371 50.2686 29.0148 50.3213 29.0524C50.6979 29.3306 50.969 30.1226 50.969 31.0524C50.969 31.9923 50.6928 32.7893 50.3138 33.0625L50.2711 33.09C50.2661 33.0925 50.2611 33.095 50.256 33.0975L50.2284 33.1126L50.1631 33.1402L50.1255 33.1502L50.0728 33.1602C50.0477 33.1602 49.9698 33.1602 49.9975 33.1627Z" fill="#FFC421"/>
<path fill-rule="evenodd" clip-rule="evenodd" d="M44.6126 31.6616C44.7482 31.6616 44.8561 32.0401 44.8561 32.5087C44.8561 32.9749 44.7482 33.3534 44.6126 33.3534C44.4796 33.3534 44.3691 32.9749 44.3691 32.5087C44.3691 32.0401 44.4796 31.6616 44.6126 31.6616Z" fill="#171717"/>
<path fill-rule="evenodd" clip-rule="evenodd" d="M50.0652 29.9775C50.2711 29.9775 50.4368 30.4437 50.4368 31.0151C50.4368 31.5891 50.2711 32.0527 50.0652 32.0527C49.8619 32.0527 49.6937 31.5891 49.6937 31.0151C49.6937 30.4437 49.8619 29.9775 50.0652 29.9775Z" fill="#171717"/>
<path d="M56.5672 30.5011C56.6325 30.451 56.6902 30.4059 56.7455 30.3608C56.7907 30.3232 56.8358 30.2856 56.881 30.2455C56.9563 30.0776 57.0442 29.9372 57.1421 29.827C57.2501 29.7042 57.3731 29.6189 57.5011 29.5788H57.5036C57.5287 29.5713 57.5588 29.5638 57.5865 29.5588H57.589C57.6166 29.5538 57.6467 29.5513 57.6743 29.5513C57.9957 29.5513 58.2768 29.8194 58.4701 30.253C58.6509 30.6515 58.7613 31.2004 58.7613 31.8019C58.7613 32.4034 58.6509 32.9498 58.4701 33.3508C58.2768 33.7818 57.9957 34.05 57.6743 34.05C57.6618 34.05 57.6492 34.05 57.6342 34.05C57.6216 34.0475 57.6065 34.0475 57.594 34.045L57.5061 34.0325L57.4785 33.9473C57.3153 33.3959 57.102 32.6766 56.8911 31.9598C56.7455 31.4585 56.6099 30.9899 56.5145 30.649L56.4894 30.5563L56.5672 30.5011ZM56.9237 30.5738C56.8861 30.6039 56.8484 30.634 56.8082 30.6641C56.9036 31.0024 57.0266 31.4285 57.1597 31.8821C57.3329 32.4811 57.5438 33.1828 57.717 33.7693C57.9028 33.7417 58.0785 33.5438 58.2166 33.238C58.3798 32.8721 58.4827 32.3658 58.4827 31.8019C58.4827 31.238 58.3798 30.7317 58.2166 30.3658C58.0685 30.035 57.8752 29.832 57.6743 29.832C57.6593 29.832 57.6442 29.832 57.6291 29.8345C57.6141 29.837 57.6015 29.8395 57.584 29.8445C57.5036 29.8696 57.4258 29.9272 57.3505 30.0099C57.2676 30.1052 57.1898 30.233 57.1245 30.3833L57.112 30.4134L57.0894 30.4335C57.0417 30.4761 56.9865 30.5237 56.9237 30.5738Z" fill="#171717"/>
<path fill-rule="evenodd" clip-rule="evenodd" d="M57.6492 33.9098L58.1789 33.9474C58.1864 33.9474 58.194 33.9474 58.2015 33.9474C58.2065 33.9474 58.2141 33.9474 58.2191 33.9474C58.7412 33.9474 59.1655 33.0025 59.1655 31.8396C59.1655 30.6742 58.7237 29.7544 58.2015 29.7118C57.9956 29.6967 57.8952 29.6867 57.6593 29.6917C57.8224 29.6842 57.9203 29.7644 57.9756 29.7995C58.3496 30.0802 58.6207 30.8697 58.6207 31.802C58.6207 32.7419 58.3471 33.5363 57.9655 33.8095L57.9228 33.8371C57.9178 33.8421 57.9128 33.8446 57.9078 33.8471L57.8802 33.8622L57.8149 33.8872L57.7772 33.8998L57.727 33.9073C57.6994 33.9098 57.6241 33.9098 57.6492 33.9098Z" fill="#171717"/>
<path fill-rule="evenodd" clip-rule="evenodd" d="M53.2484 31.5713L53.1505 44.3131H58.2618L55.8518 31.7668L53.2484 31.5713ZM55.7513 32.0299L55.5354 32.2505L57.5739 44.0349L57.9254 44.0324L55.7513 32.0299ZM53.4543 31.7868L55.6007 31.9121L55.3647 32.1552L53.4418 32.0425L53.4543 31.7868Z" fill="#171717"/>
<path d="M50.4845 42.0777C50.6602 42.2606 50.8083 42.5113 50.9112 42.8496C51.0117 43.1854 51.0719 43.6065 51.0719 44.1353C51.0719 44.6691 50.9112 45.2431 50.6853 45.6867C50.4418 46.1629 50.1104 46.4962 49.7941 46.4962C49.2067 46.4962 48.7272 45.4712 48.7272 44.2055L48.6745 41.3283L48.4837 40.9173L46.9071 40.3032L46.8896 40.2957L46.8745 40.2857L45.8201 39.4912C45.5942 39.3584 45.4034 39.1052 45.2728 38.7744C45.1473 38.4611 45.0745 38.0777 45.0745 37.6666C45.0745 36.6015 45.7147 35.7368 46.1917 35.7368C46.4301 35.7368 46.6511 35.7869 46.8393 35.8947C47.0176 36 47.1632 36.1529 47.2636 36.3634V36.3659C47.2736 36.3834 47.3213 36.4987 47.3967 36.6767C47.6326 37.2331 48.1347 38.421 48.4686 39.1228C48.8954 40.025 50.0426 41.4837 50.0477 41.4887V41.4912L50.4845 42.0777ZM50.6451 42.9298C50.5548 42.6341 50.4292 42.4185 50.2786 42.2656L50.2736 42.2606L50.2686 42.2506L49.8242 41.6566C49.7715 41.5889 48.6468 40.1504 48.2151 39.2406C47.8837 38.5438 47.3791 37.3458 47.1406 36.7819C47.0703 36.6165 47.0226 36.5062 47.0126 36.4837V36.4812C46.9373 36.3258 46.8293 36.213 46.6988 36.1353C46.5557 36.0526 46.3825 36.015 46.1917 36.015C45.8327 36.015 45.3532 36.7544 45.3532 37.6666C45.3532 38.0451 45.4185 38.391 45.5314 38.6717C45.6394 38.9473 45.7925 39.1529 45.9657 39.2556L46.0511 39.3057L46.0486 39.3158L47.0251 40.0501L48.6368 40.6792L48.6895 40.6992L48.7121 40.7493L48.9406 41.2356L48.9531 41.2631V41.2932L49.0058 44.203V44.2055C49.0058 45.3158 49.3598 46.218 49.7941 46.218C49.9975 46.218 50.2385 45.9473 50.4368 45.5614C50.6451 45.1529 50.7933 44.6265 50.7933 44.1353C50.7933 43.6341 50.738 43.2381 50.6451 42.9298Z" fill="#171717"/>
<path d="M51.082 41.8546C51.2552 42.0375 51.4033 42.2881 51.5062 42.6265C51.6066 42.9598 51.6669 43.3834 51.6669 43.9122C51.6669 44.4059 51.5288 44.9749 51.3531 45.446C51.1322 46.0275 50.8284 46.4686 50.6175 46.4686C50.482 46.4686 50.3414 46.4736 50.2184 46.4761C49.9975 46.4836 49.8167 46.4886 49.7816 46.3859C49.7514 46.2982 49.7816 46.238 49.8719 46.2079V46.2054C50.0502 46.1453 50.2811 45.8195 50.4719 45.411C50.6577 45.0074 50.7933 44.5288 50.7933 44.1353C50.7933 43.7293 50.7405 43.3358 50.6451 43.0049C50.5548 42.6791 50.4267 42.4185 50.2786 42.2656L50.2334 42.2205L50.2359 42.2105C50.0251 41.9323 48.8627 40.3834 48.4586 39.5288C48.1347 38.8496 47.5071 37.5262 47.1958 36.8721L47.0126 36.4836V36.4811C46.7866 36.0475 46.0912 36.0225 46.0887 36.0225L45.2452 35.9849L46.0561 35.7518C46.2795 35.6866 46.5431 35.6315 46.7691 35.6039C46.99 35.5764 47.1833 35.5739 47.2787 35.614C47.3063 35.624 47.3188 35.629 47.3314 35.634C47.482 35.6866 47.6502 35.7493 47.8184 36.0601H47.8209L47.8586 36.1403V36.1428H47.8611L48.0444 36.5288C48.3556 37.1854 48.9807 38.5062 49.3046 39.1879C49.7238 40.0726 51.0016 41.7518 51.082 41.8546ZM51.2401 42.7067C51.1497 42.4084 51.0217 42.1929 50.8736 42.0425L50.8284 41.9949L50.8309 41.9849C50.62 41.7067 49.4577 40.1603 49.0535 39.3057C48.7297 38.6265 48.1021 37.3032 47.7908 36.6465L47.6452 36.3383L47.6075 36.2581C47.4745 35.9799 47.349 35.9348 47.2385 35.8947C47.2109 35.8846 47.1858 35.8771 47.1732 35.8721C47.1255 35.8521 46.9824 35.8571 46.8017 35.8796C46.7766 35.8846 46.7515 35.8871 46.7264 35.8897C46.9096 35.9699 47.0954 36.0927 47.2184 36.2831H47.226L47.2636 36.3633V36.3658H47.2661L47.4494 36.7518C47.7607 37.4084 48.3883 38.7318 48.7096 39.411C49.1314 40.2982 50.4092 41.9774 50.487 42.0801C50.6627 42.2656 50.8108 42.5663 50.9138 42.9298C51.0142 43.2831 51.0719 43.7017 51.0719 44.1353C51.0719 44.5714 50.9238 45.0927 50.723 45.5288C50.6025 45.7894 50.4594 46.025 50.3113 46.1954C50.4242 46.1929 50.5372 46.1904 50.6175 46.1904C50.7129 46.1904 50.9113 45.827 51.092 45.3483C51.2577 44.9047 51.3882 44.3709 51.3882 43.9122C51.3882 43.4084 51.333 43.015 51.2401 42.7067Z" fill="#171717"/>
<path fill-rule="evenodd" clip-rule="evenodd" d="M46.5281 36.5862C46.749 36.6564 46.7866 37.1652 46.6084 37.7216C46.4327 38.278 46.1063 38.6714 45.8854 38.5988C45.662 38.5286 45.6243 38.0198 45.8026 37.4659C45.9808 36.9095 46.3046 36.5161 46.5281 36.5862Z" fill="#171717"/>
<path fill-rule="evenodd" clip-rule="evenodd" d="M49.9297 42.6817C50.2385 42.6892 50.4694 43.3183 50.4493 44.0852C50.4292 44.8521 50.1631 45.4662 49.8569 45.4587C49.5481 45.4511 49.3171 44.8221 49.3372 44.0551C49.3573 43.2882 49.6234 42.6742 49.9297 42.6817Z" fill="#171717"/>
<path fill-rule="evenodd" clip-rule="evenodd" d="M46.1314 20.9899C46.1314 20.9899 46.1163 20.3382 46.3448 20.2255C46.5707 20.1127 46.8644 19.9648 46.995 20.0149C47.1255 20.0626 53.4417 29.441 53.4417 29.441L51.7321 29.1979L46.1314 20.9899Z" fill="#C6C6C6"/>
<path fill-rule="evenodd" clip-rule="evenodd" d="M26.0707 37.4235C26.0707 37.4235 26.274 37.6115 26.6405 37.4962C26.6631 35.9198 27.2405 31.9499 27.2405 31.9499L26.7133 31.9348L26.6631 31.812L26.0707 37.4235Z" fill="#C6C6C6"/>
<path fill-rule="evenodd" clip-rule="evenodd" d="M32.1057 32.3857L31.4379 33.7366L30.9434 37.6464C30.9434 37.6464 31.0965 37.7642 31.1693 37.7717C31.2446 37.7817 31.4706 37.7266 31.4706 37.7266L32.1057 32.3857Z" fill="#C6C6C6"/>
<path fill-rule="evenodd" clip-rule="evenodd" d="M32.6505 39.1302L36.4462 39.3257C36.7575 39.3407 36.9935 39.5813 37.0136 39.8921L37.2747 43.9071L36.3433 47.8119L33.2455 47.7267C32.9316 47.7192 32.6404 47.253 32.6229 46.9422L32.2338 39.6991C32.2162 39.3858 32.3392 39.1127 32.6505 39.1302Z" fill="#C6C6C6"/>
<path fill-rule="evenodd" clip-rule="evenodd" d="M19.2197 51.762C19.2197 51.762 19.28 51.7069 19.3528 52.0828H23.628C23.5879 51.8698 23.5301 51.8473 23.4146 51.7119L19.2197 51.762ZM19.408 52.3936C19.4281 52.5114 19.4482 52.6417 19.4683 52.7796H23.736C23.7209 52.6518 23.7008 52.5239 23.6808 52.3936H19.408ZM19.5059 53.0879C19.516 53.1706 19.5235 53.2533 19.5335 53.3385H23.7937C23.7887 53.2558 23.7812 53.1731 23.7711 53.0879H19.5059ZM19.5586 53.6468C19.5662 53.7495 19.5712 53.8548 19.5787 53.965H23.8289C23.8264 53.8598 23.8213 53.7545 23.8163 53.6468H19.5586ZM19.5888 54.2733C19.5913 54.4437 19.5913 54.6217 19.5888 54.7996H23.8289C23.8339 54.6292 23.8364 54.4538 23.8339 54.2733H19.5888ZM19.5762 55.1079C19.5687 55.2608 19.5587 55.4112 19.5436 55.5666H23.7812C23.7937 55.4212 23.8063 55.2683 23.8138 55.1079H19.5762ZM19.5084 55.8748C19.4934 55.9801 19.4783 56.0853 19.4607 56.1931H23.7084C23.7209 56.0929 23.736 55.9851 23.7485 55.8748H19.5084ZM19.403 56.5014C19.3754 56.6317 19.3453 56.7595 19.3101 56.8899H23.5879C23.6105 56.7771 23.6356 56.6468 23.6607 56.5014H19.403ZM19.2197 57.1981C19.1997 57.2658 19.0641 57.7069 19.0415 57.7721L23.3142 57.747C23.3142 57.747 23.49 57.3285 23.5201 57.1981H19.2197Z" fill="#C6C6C6"/>
<path fill-rule="evenodd" clip-rule="evenodd" d="M32.4195 43.1505C32.6204 42.8021 33.0145 42.1605 33.1978 41.8147C33.5919 41.0653 34.0262 39.7846 34.817 39.2407L36.4462 39.3259C36.7575 39.341 36.9935 39.5816 37.0136 39.8924L37.0563 40.5189C36.9006 40.6969 36.7425 40.9274 36.6169 41.2307C36.3308 41.9199 34.6287 42.2207 34.0764 43.4086C33.7977 44.0101 33.0095 44.2432 32.4999 44.6543L32.4195 43.1505ZM32.5225 45.0803C32.8137 44.9675 33.1727 44.767 33.3107 44.6442C34.2295 43.8197 35.8011 43.4437 36.745 42.8723C36.9182 42.767 37.0663 42.6919 37.1943 42.6392L37.2395 43.3585C37.2019 43.3861 37.1617 43.4137 37.1215 43.4412C35.5023 44.4788 34.1392 45.6969 32.8212 47.1154C32.781 47.158 32.7409 47.2006 32.7032 47.2382C32.658 47.1355 32.6279 47.0327 32.6229 46.9425L32.5225 45.0803Z" fill="white"/>
</svg>
