<svg width="655" height="460" viewBox="0 0 655 460" fill="none" xmlns="http://www.w3.org/2000/svg">
<path d="M88.235 59.9338L78.6557 60.4268L75.4724 58.284L68.2482 59.8091L69.0768 75.9093L75.9659 82.8567L80.0071 94.1783L85.3422 100.824L80.441 102.611L83.5987 111.675L88.7957 115.636L93.6968 113.844L96.6375 118.692L94.9787 123.773L98.4244 123.595L103.744 129.856L113.323 129.363L119.068 129.067L116.433 122.669L120.03 117.87L126.042 115.254L125.825 111.038L133.854 110.243L141.731 114.065L143.255 106.299L148.823 102.552L148.527 96.8045L151.192 96.2817L149.766 90.9741L147.466 91.0925L146.504 87.3001L150.758 87.8488L144.959 79.6919L142.423 75.2091L134.295 74.0884L133.155 66.8451L134.492 62.9343L130.422 58.5305L136.522 50.147L137.07 45.8912L123.503 43.515L106.259 44.4024L94.765 44.9939L92.4161 51.6454L88.235 59.9338Z" fill="#F9F9F9" fill-opacity="0.15" stroke="#171717" stroke-width="3.26" stroke-miterlimit="10"/>
<path d="M137.07 45.8914L150.483 45.2012L155.3 49.181L162.195 48.8261L168.062 50.8308L174.675 52.4115L174.853 55.8624L182.513 55.4681L184.655 52.2799L187.497 55.2117L191.357 63.0826L195.575 62.8655L203.236 62.4713L203.492 67.4534L199.859 71.486L195.293 79.7906L196.581 82.4166L190.56 92.3351L191.487 110.351L187.283 118.255L172.329 126.327L155.316 139.117L153.145 134.23L146.246 134.585L141.903 139.808L130.409 140.399L130.251 137.333L127.926 144.369L119.358 142.121L118.885 132.919L115.741 131.545L115.623 129.245L119.068 129.068L116.433 122.669L120.03 117.87L126.042 115.254L125.825 111.038L133.854 110.243L141.731 114.065L143.256 106.299L148.823 102.552L148.528 96.8048L151.192 96.282L149.766 90.9744L147.466 91.0928L146.504 87.3003L150.758 87.8491L144.959 79.6922L142.423 75.2094L134.295 74.0886L133.155 66.8454L134.492 62.9346L130.422 58.5308L136.522 50.1473L137.07 45.8914Z" fill="#F9F9F9" fill-opacity="0.15" stroke="#171717" stroke-width="3.26" stroke-miterlimit="10"/>
<path d="M187.283 118.255L191.488 110.351L190.561 92.3352L196.582 82.4167L195.294 79.7907L199.86 71.4861L203.493 67.4535L206.726 68.6801L209.785 66.5081L209.578 62.4821L211.265 61.6726L213.691 64.0004L217.711 63.7935L221.18 61.1623L223.622 61.0367L226.35 63.6373L226.446 65.5047L229.204 65.9394L230.374 63.4302L233.685 63.4021L236.398 65.7152L236.627 70.1707L240.486 72.4211L242.667 70.0022L242.453 65.8342L244.839 64.5581L250.142 61.2596L253.856 60.6341L254.004 63.5098L256.776 66.9695L257.05 72.2914L260.278 73.4209L261.968 75.4945L258.734 79.8399L257.325 83.2301L258.092 86.939L262.546 86.7098L265.377 91.3197L262.724 95.7775L265.813 99.8012L266.072 104.832L268.217 107.316L267.532 110.808L265.314 112.51L266.209 115.924L265.841 119.976L266.64 121.473L265.051 124.195L269.164 125.714L272.115 129.887L273.346 131.407L275.743 138.781L273.24 143.377L273.858 146.947L276.276 149.129L274.436 152.587L266.622 157.553L266.026 162.774L267.72 164.848L264.698 167.744L257.459 169.843L249.635 168.95L250.093 163.882L249.487 157.716L248.86 153.903L245.521 153.453L240.751 158.742L232.258 158.891L226.233 159.344L218.389 160.901L212.36 161.357L210.273 162.76L208.982 160.089L204.123 158.032L200.112 152.907L201.293 150.681L201.305 148.09L204.733 147.479L204.083 140.45L202.961 135.464L199.426 136.799L194.026 132.61L190.201 128.335L189.909 125.422L191.562 123.944L189.38 120.739L186.771 120.442L187.283 118.255Z" fill="#E9B21A" stroke="#171717" stroke-width="3.26" stroke-miterlimit="10"/>
<path d="M119.069 129.069L113.324 129.364L103.745 129.857L98.4255 123.597L94.9798 123.774L96.6386 118.693L93.6979 113.846L88.7968 115.637L83.5998 111.677L83.9154 117.809L78.3507 125.397L71.6227 125.362L63.2562 134.438L54.6888 139.684L48.6085 148.452L46.1253 152.422L39.3814 159.498L36.8944 163.468L31.4481 165.864L31.7835 172.381L33.7026 187.271L36.5082 193.276L36.9352 197.863L38.3679 199.519L37.8061 203.585L40.6086 205.747L46.1635 205.462L46.985 210.224L54.0219 212.55L59.8758 214.365L60.5984 209.714L59.5669 204.581L64.6021 197.978L65.394 194.672L69.1391 192.75L78.9186 192.437L92.0982 190.992L89.8114 187.649L89.3843 183.058L90.6555 181.648L89.7522 179.006L91.7726 177.172L92.1601 173.501L96.1707 173.1L102.938 173.905L106.542 169.301L112.064 164.595L115.635 163.066L115.164 157.71L119.475 155.567L126.603 155.968L128.029 150.131L127.927 144.37L119.359 142.122L118.886 132.92L115.742 131.547L115.624 129.246" fill="#F9F9F9" fill-opacity="0.15"/>
<path d="M119.069 129.069L113.324 129.364L103.745 129.857L98.4255 123.597L94.9798 123.774L96.6386 118.693L93.6979 113.846L88.7968 115.637L83.5998 111.677L83.9154 117.809L78.3507 125.397L71.6227 125.362L63.2562 134.438L54.6888 139.684L48.6085 148.452L46.1253 152.422L39.3814 159.498L36.8944 163.468L31.4481 165.864L31.7835 172.381L33.7026 187.271L36.5082 193.276L36.9352 197.863L38.3679 199.519L37.8061 203.585L40.6086 205.747L46.1635 205.462L46.985 210.224L54.0219 212.55L59.8758 214.365L60.5984 209.714L59.5669 204.581L64.6021 197.978L65.394 194.672L69.1391 192.75L78.9186 192.437L92.0982 190.991L89.8114 187.649L89.3843 183.058L90.6555 181.648L89.7522 179.006L91.7726 177.172L92.1601 173.501L96.1707 173.1L102.938 173.905L106.542 169.301L112.064 164.595L115.635 163.066L115.164 157.71L119.475 155.567L126.603 155.968L128.029 150.131L127.927 144.37L119.359 142.122L118.886 132.92L115.742 131.547L115.624 129.246" stroke="#171717" stroke-width="3.26" stroke-miterlimit="10"/>
<path d="M36.7749 196.145L32.9366 194.804L25.7487 193.253L24.7765 196.763L24.9145 199.444L21.2323 202.517L18.8803 205.327L17.9113 212.682L16.7683 216.583L12.452 218.535L11.3386 223.011L9.93243 225.581L10.1002 228.841L13.0437 230.034L14.4795 235.532L20.1628 237.741L22.5215 238.769L25.0599 244.02L26.7266 245.859L29.4108 245.721L33.3494 247.63L33.2508 253.207L35.8858 252.113L39.6942 252.875L42.2323 248.517L45.4384 247.393L50.376 250.023L53.6381 253.697L66.286 253.046L70.3234 256.875L75.1131 256.628L78.4966 258.952L88.0758 258.459L90.6218 255.635L95.3592 258.084L95.1422 253.868L97.3493 252.024L96.065 249.398L92.888 247.449L93.3149 244.544L93.2624 239.742L85.4633 233.804L80.8578 233.846L80.2495 225.808L75.5091 227.011L72.0499 226.998L68.9917 223.504L67.6051 218.962L63.5612 218.788L63.7877 215.699L59.8749 214.365L54.021 212.55L46.9842 210.224L46.1627 205.462L40.6078 205.748L37.8053 203.585L38.3671 199.52L36.9344 197.863L36.7749 196.145Z" fill="#F9F9F9" fill-opacity="0.15" stroke="#171717" stroke-width="3.26" stroke-miterlimit="10"/>
<path d="M95.3586 258.085L95.1416 253.869L97.3487 252.025L96.0644 249.399L92.8874 247.45L93.3143 244.545L93.2618 239.744L85.4627 233.805L80.8572 233.848L80.2489 225.809L75.5085 227.012L72.0493 226.999L68.9911 223.505L67.6045 218.963L63.5605 218.79L63.7871 215.7L59.8743 214.366L60.597 209.715L59.5655 204.582L64.6007 197.98L65.3926 194.674L69.1377 192.751L78.9172 192.439L92.0968 190.993L89.81 187.651L89.3828 183.059L90.654 181.65L89.7508 179.007L91.7712 177.173L92.1587 173.503L96.1693 173.101L102.937 173.906L105.266 181.86L106.548 188.134L106.784 192.735L106.972 196.376L111.752 195.939L108.989 198.193L108.523 200.333L112.087 202.456L115.454 204.395L116.427 208.381L118.798 205.953L119.844 211.28L122.616 209.216L128.463 210.836L132.451 213.705L134.081 219.193L130.77 222.056L132.127 226.023L131.733 233.345L124.808 233.125L121.165 236.963L117.388 241.962L114.273 241.16L114.911 246.126L110.269 249.245L106.925 255.183L109.024 262.377L107.356 267.267L105.414 270.636L103.69 270.725L103.072 266.143L99.3185 262.3L95.3586 258.085Z" fill="#F9F9F9" fill-opacity="0.15" stroke="#171717" stroke-width="3.26" stroke-miterlimit="10"/>
<path d="M155.317 139.117L155.791 148.316L152.45 150.603L154.766 162.014L155.837 167.916L151.8 175.28L154.724 179.889L155.917 188.088L153.562 190.901L154.689 201.605L154.617 211.409L155.127 217.531L159.835 226.897L151.26 228.301L148.59 221.136L143.623 225.429L141.054 224.022L140.837 219.805L134.083 219.191L132.453 213.703L128.465 210.834L122.617 209.213L119.845 211.277L118.8 205.95L116.428 208.379L115.456 204.392L112.088 202.453L108.524 200.33L108.99 198.19L111.753 195.936L106.973 196.373L106.786 192.732L106.549 188.131L105.268 181.857L102.938 173.904L106.542 169.3L112.064 164.593L115.635 163.065L115.164 157.708L119.475 155.566L126.603 155.966L128.028 150.13L127.927 144.369L130.252 137.333L130.41 140.399L141.904 139.807L146.247 134.585L153.146 134.23L155.317 139.117Z" fill="#F9F9F9" fill-opacity="0.15" stroke="#171717" stroke-width="3.26" stroke-miterlimit="10"/>
<path d="M159.833 226.9L164.482 227.623L167.429 232.661L168.263 226.466L171.377 227.268L173.499 223.699L177.252 225.715L181.978 224.225L191.301 226.243L192.034 222.745L195.624 220.64L196.668 214.819L196.156 204.855L195.919 200.254L198.495 198.009L198.376 195.709L202.975 195.472L202.837 192.787L210.09 195.683L213.182 192.255L211.47 188.883L212.817 185.162L207.169 176.23L208.828 171.149L208.542 165.589L210.272 162.762L208.981 160.091L204.122 158.035L200.111 152.909L201.292 150.684L201.304 148.092L204.732 147.481L204.082 140.452L202.96 135.466L199.425 136.801L194.025 132.612L190.2 128.338L189.908 125.424L191.561 123.946L189.379 120.741L186.77 120.445L187.282 118.258L172.329 126.329L155.316 139.12L155.79 148.318L152.449 150.606L154.765 162.016L155.836 167.919L151.798 175.283L154.723 179.891L155.916 188.091L153.561 190.904L154.688 201.608L154.616 211.411L155.126 217.534L159.833 226.9Z" fill="#F9F9F9" fill-opacity="0.15" stroke="#171717" stroke-width="3.26" stroke-miterlimit="10"/>
<path d="M105.416 270.634L112.889 270.249L120.09 260.847L137.714 259.94L140.855 257.472L152.155 256.89L154.75 255.027L155.565 248.45L158.682 245.598L168.261 245.105L174.638 242.088L174.352 236.531L176.227 235.663L181.74 238.263L182.361 235.347L185.138 235.204L188.649 238.102L192.756 236.737L192.519 232.136L195.701 233.316L198.658 231.052L198.391 225.876L195.625 220.637L192.035 222.743L191.302 226.241L181.979 224.223L177.254 225.713L173.5 223.697L171.378 227.266L168.264 226.464L167.43 232.659L164.483 227.621L159.834 226.898L151.26 228.301L148.59 221.137L143.623 225.429L141.054 224.022L140.837 219.806L134.083 219.191L130.771 222.054L132.128 226.021L131.734 233.343L124.809 233.123L121.167 236.961L117.389 241.96L114.274 241.158L114.912 246.124L110.27 249.242L106.926 255.181L109.026 262.375L107.357 267.265L105.416 270.634Z" fill="#F9F9F9" fill-opacity="0.15" stroke="#171717" stroke-width="3.26" stroke-miterlimit="10"/>
<path d="M198.657 231.053L203.535 232.532L210.624 232.167L218.318 239.84L225.313 245.052L227.46 242.059L230.575 242.861L228.877 247.176L229.945 249.236L232.546 247.563L235.217 250.886L236.186 247.376L243.085 247.021L250.368 254.143L253.505 251.675L254.619 247.195L262.522 247.751L269.076 248.181L273.209 250.084L278.514 248.658L278.248 243.482L283.412 243.025L288.938 242.164L281.674 235.427L283.576 231.292L287.295 232.64L290.928 228.611L287.978 227.224L286.854 220.362L285.75 217.539L282.301 217.716L283.273 214.206L279.633 214.394L276.561 203.213L274.117 204.301L274.849 199.841L273.226 198.195L277.399 193.37L275.913 186.913L269.254 180.721L272.336 177.102L268.782 175.267L270.739 172.189L268.36 170.773L267.719 164.848L264.697 167.745L257.458 169.843L249.634 168.95L250.092 163.883L249.486 157.717L248.859 153.903L245.52 153.454L240.75 158.743L232.257 158.892L226.232 159.344L218.388 160.901L212.359 161.357L210.272 162.76L208.542 165.587L208.828 171.148L207.169 176.228L212.817 185.161L211.47 188.881L213.182 192.253L210.09 195.681L202.837 192.785L202.975 195.47L198.376 195.707L198.494 198.008L195.919 200.252L196.156 204.853L196.668 214.817L195.624 220.638L198.39 225.876L198.657 231.053Z" fill="#E9B21A" stroke="#171717" stroke-width="3.26" stroke-miterlimit="10"/>
<path d="M250.369 254.145L254.255 258.749L256.361 258.641L257.241 257.056L260.96 258.404L262.327 262.561L260.977 269.933L258.49 273.903L259.098 281.945L271.345 292.267L272.722 289.122L275.856 290.305L274.801 295.931L274.249 300.187L271.448 301.68L277.945 304.801L276.681 310.056L283.892 315.834L289.155 317.293L289.746 328.792L292.792 335.746L296.609 339.01L302.299 337.564L305.381 341.442L309.346 347.577L312.943 350.276L316.008 350.118L317.102 345.257L320.969 341.984L320.436 331.635L327.476 330.311L334.423 327.265L336.118 326.601L335.576 316.058L330.471 310.172L334.337 306.898L337.767 306.336L339.132 299.252L335.973 297.588L332.845 296.595L334.103 291.15L323.184 291.711L320.621 283.006L322.845 277.702L318.294 271.402L305.709 273.203L303.413 262.177L300.493 261.365L298.734 253.382L297.348 248.844L300.797 248.666L298.554 246.089L290.617 244.962L288.938 242.166L283.413 243.027L278.248 243.483L278.515 248.66L273.209 250.086L269.076 248.183L262.523 247.753L254.619 247.197L253.506 251.677L250.369 254.145Z" fill="#E9B21A" stroke="#171717" stroke-width="3.26" stroke-miterlimit="10"/>
<path d="M296.61 339.01L288.923 342.674L285.667 342.842L282.678 337.038L279.084 341.832L275.782 337.393L271.679 336.065L265.742 340.119L262.724 337.488L262.537 333.847L253.984 339.38L255.113 346.335L257.958 353.105L255.744 358.6L253.77 365.045L249.401 366.037L247.532 370.747L245.785 374.102L239.527 379.423L239.813 384.98L238.325 389.666L230.086 390.09L227.583 393.679L234.823 400.032L241.774 404.478L249.103 405.064L249.508 397.932L253.226 399.279L254.925 402.457L260.716 399.276L267.798 395.07L277.177 394.396L281.015 398.04L281.485 403.397L283.548 406.174L285.969 404.705L288.022 399.795L287.795 395.385L281.136 389.193L279.835 382.535L280.304 376.748L282.331 375.104L284.854 383.044L288.363 384.017L290.705 381.017L287.278 377.924L291.463 377.132L292.551 372.081L295.912 370.178L299.611 371.141L305.422 368.344L309.232 360.27L308.847 352.793L302.691 348.882L298.072 341.241L296.61 339.01Z" fill="#E9B21A" stroke="#171717" stroke-width="3.26" stroke-miterlimit="10"/>
<path d="M428.9 345.269L430.237 348.851L429.928 354.057L434.291 356.712L428.612 362.003L417.915 366.972L407.837 372.681L397.969 378.761L390.847 382.201L391.252 390.059L393.124 392.846L397.736 389.149L406.176 388.909L414.829 396.533L419.494 397.638L424.973 395.82L429.97 399.6L434.372 403.024L434.826 411.838L432.008 416.788L431.016 427.41L436.755 434.416L445.786 438.179L457.352 435.277L465.476 428.901L468.137 420.886L475.236 413.219L483.212 411.464L487.196 410.491L491.004 413.561L493.074 412.686L493.494 405.94L499.036 401.618L501.545 401.871L501.309 397.273L504.255 394.815L505.842 392.041L513.946 392.777L517.773 396.231L527.898 395.133L541.869 390.382L541.425 381.754L543.56 374.728L548.905 374.068L548.718 370.426L537.558 370.038L531.77 369.568L524.848 373.194L524.28 377.065L518.916 377.341L516.36 372.477L513.584 374.541L513.381 378.011L506.909 382.954L488.841 382.73L486.643 373.621L482.388 365.575L476.35 363.965L473.266 363.738L473.16 357.981L470.046 357.179L464.054 360.179L465.247 357.235L469.513 354.323L468.592 353.22L464.603 355.923L464.08 353.258L461.104 355.141L458.039 355.299L460.946 352.075L458.587 351.043L455.016 352.571L447.901 352.36L446.485 347.247L441.774 349.025L438.295 348.627L436.758 344.864L432.494 344.121L432.103 340.3L429.544 339.087L429.56 343.119L428.9 345.269Z" fill="#F9F9F9" fill-opacity="0.15" stroke="#171717" stroke-width="3.26" stroke-miterlimit="10"/>
<path d="M364.775 319.746L367.068 323.278L370.902 323.081L372.58 325.878L377.18 325.641L381.253 326.39L381.441 330.032L371.812 329.569L360.63 328.8L351.576 328.303L351.743 331.56L355.876 333.463L358.993 330.61L368.136 332.832L364.276 339.947L360.397 339.188L360.574 342.639L363.83 342.471L376.819 348.528L381.606 351.933L391.375 351.43L395.261 348.538L404.417 347.299L405.672 345.504L407.866 347.121L411.105 346.569L413.598 342.79L415.691 346.142L423.947 349.754L425.596 344.479L428.9 345.271L429.561 343.122L429.544 339.09L432.103 340.302L435.986 341.061L438.778 339.382L444.885 342.333L447.819 343.335L447.553 338.163L449.764 336.319L454.6 340.68L456.475 339.816L463.945 339.431L461.232 342.645L460.68 346.901L462.212 350.473L465.874 347.02L466.978 342.349L465.063 342.448L465.45 338.777L469.675 338.751L471.002 342.142L468.109 343.83L475.046 349.813L475.253 353.839L474.281 357.349L475.51 358.821L479.991 356.287L479.813 352.837L476.406 350.129L475.217 341.925L473.302 342.024L472.579 339.178L476.337 333.798L483.193 332.678L480.485 321.093L472.207 320.751L470.689 317.369L466.748 317.381L468.563 313.442L465.39 311.493L466.196 306.648L466.927 300.267L460.61 296.941L456.508 288.217L452.915 278.12L447.488 280.897L445.386 277.354L438.487 277.709L438.007 275.813L443.684 274.176L441.443 267.948L438.299 266.571L434.015 265.447L430.418 270.245L424.923 271.682L421.463 271.665L420.31 267.882L417.061 268.24L416.234 270.784L412.37 270.407L411.693 272.168L410.031 269.756L405.777 269.207L402.571 270.334L404.227 276.398L401.868 275.366L401.855 278.826L403.688 280.844L404.868 288.856L400.182 291.116L396.554 295.242L403.636 298.528L402.263 301.673L399.914 300.832L401.491 305.364L396.502 305.43L397.274 309.232L389.015 309.271L382.75 310.747L376.748 313.554L371.327 316.428L366.976 317.711L364.775 319.746Z" fill="#F9F9F9" fill-opacity="0.15" stroke="#171717" stroke-width="3.26" stroke-miterlimit="10"/>
<path d="M441.443 267.943L442.71 262.688L452.674 262.175L460.072 264.101L469.077 263.638L466.435 253.398L466.037 249.381L461.855 246.522L464.641 244.649L465.853 242.089L462.786 240.326L462.481 234.384L467.597 234.888L474.548 231.842L479.227 233.14L487.426 231.951L489.877 231.057L496.621 231.477C496.621 231.477 500.241 230.905 500.796 230.495C501.351 230.081 505.389 233.91 505.389 233.91L508.54 239.128L507.288 240.923L510.087 243.085L511.503 240.706L515.291 243.394L518.467 241.692L521.752 242.099L524.909 240.016L528.391 244.255L532.228 247.9L532.445 252.116L535.69 251.758L539.327 255.222L541.708 252.984L547.359 258.265L551.574 258.048L551.791 262.265L547.635 263.632L546.912 268.282L542.234 266.984L542.369 273.321L548.099 280.137L551.233 281.32L550.471 285.201L548.27 287.235L550.625 291.918L547.035 293.065L542.531 298.869L536.684 297.249L531.112 300.996L525.543 308.491L519.319 306.983L510.325 307.637L502.815 314.749L497.221 321.762L491.913 326.84L486.933 327.096L483.184 332.67L480.473 321.085L472.195 320.743L470.677 317.361L466.74 317.373L468.555 313.438L465.382 311.485L466.188 306.64L466.915 300.259L460.598 296.933L456.499 288.209L452.907 278.112L447.48 280.889L445.377 277.346L438.479 277.701L437.995 275.805L443.676 274.168L441.435 267.94L441.443 267.943Z" fill="#F9F9F9" fill-opacity="0.15" stroke="#171717" stroke-width="3.26" stroke-miterlimit="10"/>
<path d="M550.633 291.922L553.278 291.018L556.477 286.049L560.37 287.002L565.138 282.626L563.645 279.722L567.19 277.701L573.467 276.528L574.732 274.924L583.677 273.31L587.205 274.668L590.451 274.306L590.036 266.258L592.037 264.039L591.86 260.592L589.56 260.711L589.494 248.222L592.128 243.473L597.492 243.197L600.364 239.207L604.004 239.02L605.705 231.054L605.527 227.603L612.807 227.228L612.501 221.287L610.619 218.309L603.533 218.674L602.317 213.737L597.527 213.984L593.493 206.508L587.744 206.803L588.78 204.537L584.367 197.174L579.321 192.438L577.548 178.502L572.418 173.962L568.775 174.149L565.152 178.369L560.372 178.81L556.959 175.907L554.406 174.889L554.403 171.043L552.293 171.152L550.092 173.186L547.054 170.077L544.577 174.241L542.573 180.107L538.214 184.945L535.185 185.869L533.983 188.623L528.974 188.304L522.548 190.365L525.731 200L527.749 201.817L530.725 199.934L532.588 202.531L530.436 205.525L531.514 215.269L535.013 216.051L534.904 221.434L535.092 225.079L534.744 229.516L528.627 226.37L524.481 227.928L524.816 234.445L527.185 235.671L524.912 240.016L528.394 244.255L532.231 247.9L532.448 252.116L535.698 251.758L539.331 255.222L541.716 252.987L547.366 258.269L551.581 258.052L551.798 262.268L547.643 263.635L546.92 268.286L542.242 266.988L542.377 273.324L548.106 280.136L551.24 281.323L550.478 285.204L548.281 287.238L550.633 291.922Z" fill="#F9F9F9" fill-opacity="0.15" stroke="#171717" stroke-width="3.26" stroke-miterlimit="10"/>
<path d="M402.57 270.333L398.483 265.544L398.336 262.672L400.152 260.654L399.866 255.097L400.713 252.938L398.41 249.214L399.323 244.554L403.751 241.061L403.618 238.473L408.929 237.143L414.401 231.481L411.99 225.647L409.992 216.718L418.98 212.219L422.705 209.915L422.587 207.615L415.498 207.98L412.892 202.156L416.342 201.979L422.281 201.673L425.753 198.225L432.34 195.583L434.032 198.571L438.23 201.811L439.337 197.144L436.489 194.097L438.972 190.052L441.436 185.698L448.196 182.657L455.035 177.501L468.639 176.801L474.48 182.076L476.557 185.044L484.421 184.83L487.604 186.973L490.689 187.2L493.961 183.571L498.195 183.735L498.511 189.871L503.619 192.106L505.41 197.009L507.808 198.807L510.252 201.564L510.38 204.055L514.92 202.669L515.643 198.022L518.918 198.235L519.986 200.296L525.247 198.527L525.731 200L527.749 201.817L530.725 199.934L532.588 202.531L530.436 205.525L531.514 215.269L535.013 216.051L535.092 225.079L534.744 229.516L528.627 226.37L524.481 227.928L524.816 234.445L527.185 235.671L524.912 240.016L521.752 242.099L518.467 241.692L515.286 243.391L511.499 240.706L510.086 243.082L507.284 240.923L508.535 239.129L505.389 233.91L500.792 230.495L496.617 231.478L489.873 231.057L487.422 231.951L479.223 233.14L474.545 231.846L467.593 234.892L462.477 234.388L462.783 240.33L465.853 242.093L464.641 244.653L461.855 246.526L466.037 249.385L466.435 253.401L469.073 263.642L460.068 264.105L452.67 262.179L442.71 262.692L441.442 267.947L438.299 266.57L434.015 265.446L430.418 270.244L424.922 271.681L421.462 271.664L420.31 267.881L417.06 268.239L416.233 270.783L412.37 270.406L411.693 272.167L410.03 269.755L405.776 269.206L402.57 270.333Z" fill="#F9F9F9" fill-opacity="0.15" stroke="#171717" stroke-width="3.26" stroke-miterlimit="10"/>
<path d="M364.775 319.742L361.363 316.937L363.37 324.233L357.528 324.533L351.398 324.849L348.909 321.277L344.763 326.535L339.779 326.791L336.119 326.597L335.577 316.054L330.472 310.168L334.338 306.895L337.768 306.333L339.132 299.249L332.846 296.592L334.104 291.146L323.185 291.708L320.622 283.003L322.845 277.698L318.295 271.398L305.71 273.199L303.414 262.174L300.494 261.362L297.349 248.84L300.798 248.663L298.555 246.086L302.056 243.217L310.17 244.144L314.701 242.567L319.681 242.31L323.515 242.113L325.681 239.478L329.896 239.261L333.422 244.292L338.836 244.975L342.607 243.628L343.369 247.24L347.246 244.157L352.114 245.446L351.527 248.936L357.022 254.992L356.625 258.473L358.087 260.704L363.593 259.459L367.181 261.966L370.078 258.548L374.292 258.331L376.681 259.938L384.496 258.769L386.296 252.718L386.079 248.502L393.533 247.733L394.525 244.607L396.39 243.549L399.324 244.551L398.411 249.212L400.714 252.935L399.867 255.094L400.153 260.652L398.336 262.67L398.484 265.542L402.571 270.33L404.227 276.394L401.868 275.362L401.855 278.823L403.688 280.84L404.868 288.853L400.182 291.112L396.554 295.238L403.636 298.525L402.264 301.67L399.915 300.828L401.492 305.36L396.502 305.426L397.274 309.228L389.015 309.268L382.75 310.743L376.749 313.55L371.327 316.424L366.976 317.708L364.775 319.742Z" fill="#E9B21A" stroke="#171717" stroke-width="3.26" stroke-miterlimit="10"/>
<path d="M290.929 228.615L298.669 225.91L304.532 220.418L307.405 224.018L308.911 215.965L314.364 209.918L328.486 211.883L338.64 211.361L342.401 202.326L349.127 198.595L354.704 202.461L358.367 199.007L361.925 200.936L363.849 193.535L373.813 193.022L375.949 197.215L384.379 196.781L386.073 192.391L397.449 189.499L403.198 189.203L403.336 191.888L410.436 195.44L432.34 195.586L425.754 198.228L422.282 201.675L416.342 201.981L412.893 202.159L415.498 207.982L422.588 207.617L422.706 209.918L418.98 212.222L409.993 216.721L411.991 225.65L414.402 231.483L408.929 237.146L403.619 238.475L403.752 241.063L399.324 244.556L396.39 243.554L394.525 244.613L393.533 247.738L386.079 248.507L386.296 252.724L384.496 258.774L376.681 259.944L374.292 258.337L370.078 258.553L367.18 261.972L363.593 259.464L358.087 260.71L356.625 258.478L357.022 254.998L351.527 248.941L352.114 245.451L347.246 244.162L343.369 247.245L342.607 243.633L338.836 244.981L333.422 244.297L329.895 239.266L325.681 239.483L323.514 242.118L319.68 242.315L314.7 242.572L310.17 244.149L302.056 243.222L298.554 246.091L290.617 244.964L288.939 242.167L281.675 235.43L283.577 231.296L287.296 232.643L290.929 228.615Z" fill="#E9B21A" stroke="#171717" stroke-width="3.26" stroke-miterlimit="10"/>
<path d="M403.197 189.202L396.683 182.044L388.9 172.645L382.09 167.229L381.754 160.712L373.814 155.739L373.666 152.864L366.725 148.611L368.374 143.337L361.754 137.911L360.407 134.138L354.171 128.692L351.731 129.78L351.967 134.381L347.7 137.289L347.251 143.461L344.969 149.536L339.327 150.021L332.741 148.967L325.448 152.848L324.144 164.83L321.898 173.401L317.804 179.76L309.95 180.164L301.74 181.163L300.427 185.459L294.054 184.828L292.766 182.202L286.248 186.188L283.758 186.316L282.546 188.88L277.399 193.373L273.227 198.197L274.85 199.843L274.117 204.303L276.562 203.215L279.634 214.396L283.273 214.208L282.301 217.718L285.751 217.541L286.854 220.364L287.978 227.226L290.928 228.613L298.668 225.908L304.531 220.416L307.404 224.017L308.91 215.963L314.363 209.916L328.486 211.882L338.64 211.359L342.401 202.325L349.126 198.594L354.703 202.459L358.366 199.005L361.924 200.934L363.849 193.533L373.813 193.021L375.948 197.213L384.378 196.779L386.072 192.39L397.448 189.498L403.197 189.202Z" fill="#E9B21A" stroke="#171717" stroke-width="3.26" stroke-miterlimit="10"/>
<path d="M354.172 128.689L356.528 125.879L356.37 122.813L361.856 121.183L363.472 118.987L368.692 119.681L377.604 121.144L383.892 116.398L387.679 111.593L393.73 109.743L401.513 111.649L409.052 112.605L413.967 111.008L413.848 108.707L417.488 108.52L420.461 110.288L422.537 109.605L426.969 106.111L429.653 113.466L432.816 115.228L432.964 118.1L437.031 122.504L438.47 124.351L436.322 127.345L443.651 127.93L447.859 123.868L453.122 125.327L453.428 131.269L449.978 131.446L452.613 137.845L460.777 139.732L463.92 141.105L464.137 145.325L468.369 149.14L472.705 147.573L474.476 152.095L476.286 157.383L470.537 157.679L471.931 166.062L468.669 169.881L461.441 167.561L459.919 171.578L461.36 177.174L455.036 177.499L448.197 182.655L441.436 185.696L438.973 190.05L436.49 194.095L439.338 197.142L438.23 201.809L434.032 198.568L432.34 195.581L410.436 195.435L403.336 191.884L403.198 189.199L396.683 182.041L388.901 172.642L382.09 167.226L381.755 160.709L373.815 155.736L373.667 152.861L366.725 148.608L368.374 143.333L361.754 137.907L360.407 134.135L354.172 128.689Z" fill="#E9B21A" stroke="#171717" stroke-width="3.26" stroke-miterlimit="10"/>
<path d="M453.122 125.329L460.52 119.763L462.815 119.644L469.004 112.983L472.069 112.825L479.284 111.109L481.908 106.17L488.997 105.805L491.408 104.142L495.62 107.576L495.758 110.261L501.898 110.137L509.388 113.788L518.037 106.423L526.798 105.013L531.496 99.1957L537.816 98.8705L540.32 106.429L543.75 105.871L545.1 113.485L549.929 114.008L557.445 118.231L561.04 124.58L560.114 132.701L561.641 136.273L559.519 139.843L560.837 143.04L558.804 148.335L559.944 155.578L568.505 165.128L568.702 168.964L568.775 174.15L565.151 178.369L560.372 178.81L556.959 175.907L554.406 174.889L554.402 171.044L552.293 171.152L550.092 173.187L547.054 170.078L544.577 174.242L542.573 180.108L538.214 184.945L535.185 185.869L533.983 188.623L528.973 188.304L522.548 190.365L525.247 198.528L519.986 200.296L518.918 198.236L515.643 198.022L514.92 202.669L510.38 204.056L510.252 201.565L507.808 198.807L505.41 197.01L503.619 192.107L498.511 189.872L498.195 183.736L493.961 183.572L490.689 187.2L487.604 186.973L484.421 184.83L476.557 185.044L474.48 182.077L468.639 176.802L461.359 177.176L459.919 171.581L461.441 167.563L468.668 169.884L471.931 166.065L470.537 157.681L476.286 157.386L472.705 147.576L468.368 149.143L464.137 145.328L463.92 141.108L460.776 139.734L452.613 137.848L449.978 131.449L453.427 131.271L453.122 125.329Z" fill="#F9F9F9" fill-opacity="0.15" stroke="#171717" stroke-width="3.26" stroke-miterlimit="10"/>
<path d="M561.041 124.578L564.752 122.081L564.378 114.798L569.693 113.562L572.071 114.979L572.2 117.47L583.377 118.145L591.693 123.001L597.633 122.695L598.365 118.239L601.66 118.837L601.917 123.819L607.59 125.834L610.356 123.576L615.829 125.41L617.015 129.767L624.613 131.874L629.055 128.571L635.106 126.721L633.043 131.44L632.875 135.677L637.238 138.335L638.75 149.019L632.38 155.882L628.829 157.794L624.492 163.11L626.754 165.971L634.467 166.536L640.357 165.271L641.704 169.043L636.793 170.64L628.998 172.195L628.124 177.621L629.215 183.908L634.58 183.632L638.2 190.556C638.2 190.556 640.342 194.865 639.767 194.894C639.192 194.924 637.264 198.483 637.264 198.483L643.203 198.178L640.158 206.213L638.179 212.561L638.464 214.373L640.346 217.351L640.076 223.296L630.881 223.769L628.545 226.893L624.176 224.114L619.486 226.303L612.811 227.223L612.505 221.281L610.623 218.304L603.534 218.669L602.318 213.736L597.528 213.982L593.494 206.502L587.745 206.798L588.781 204.536L584.367 197.172L579.321 192.437L577.549 178.501L572.415 173.961L568.776 174.148L568.7 168.962L568.502 165.13L559.945 155.576L558.804 148.333L560.838 143.038L559.52 139.841L561.642 136.272L560.115 132.699L561.041 124.582L561.041 124.578Z" fill="#F9F9F9" fill-opacity="0.15" stroke="#171717" stroke-width="3.26" stroke-miterlimit="10"/>
<path d="M475.474 112.011L475.231 107.28L472.643 105.301L469.388 105.468L466.598 99.8453L467.472 94.4194L463.129 84.6486L460.681 81.8912L462.416 74.5L458.076 76.0714L453.842 75.9036L453.506 69.3866L446.713 68.0062L444.722 70.4153L437.262 70.9902L435.024 68.6077L430.77 68.059L426.234 69.4457L422.916 68.4632L424.344 62.623L420.846 61.8444L422.859 56.1651L417.314 49.1485L419.988 45.169L426.423 43.2988L425.766 37.9517L417.261 33.2031L413.354 28.2141L412.99 21.122L406.501 14.5396L403.098 11.8314L397.983 13.248L394.33 16.8922L392.178 12.3934L388.17 16.6325L388.417 21.4241L393.654 26.1537L390.307 35.7398L381.831 39.0593L383.395 47.0521L385.919 54.9918L385.028 63.8786L380.476 64.9479L384.369 69.6792L381.025 75.6142L381.37 82.3217L388.242 85.237L388.748 91.3596L388.644 96.746L389.902 98.7969L386.932 100.871L385.983 104.761L387.679 111.594L393.729 109.744L401.512 111.65L409.051 112.606L413.966 111.009L413.847 108.709L417.487 108.521L420.46 110.289L422.536 109.606L426.968 106.112L429.652 113.467L432.816 115.229L432.964 118.101L437.031 122.505L438.469 124.352L436.321 127.346L443.65 127.931L447.858 123.869L453.121 125.328L460.519 119.761L462.815 119.643L469.004 112.981L475.474 112.011Z" fill="#F9F9F9" fill-opacity="0.15" stroke="#171717" stroke-width="3.26" stroke-miterlimit="10"/>
<path d="M392.178 12.3939L384.514 12.7883L377.156 19.1246L365.661 19.7161L362.824 16.8814L357.269 17.1673L356.496 28.2573L352.318 32.891L339.572 31.6259L324.723 30.4691L321.661 34.4686L317.532 32.5691L311.317 35.0009L310.555 38.8858L303.834 46.3426L300.126 52.6821L298.421 60.6484L303.05 68.4835L302.965 74.2508L299.279 77.3238L303.392 86.3351L303.882 92.0765L304.723 97.2232L308.823 98.5475L308.373 104.719L318.337 104.206L322.932 103.97L324.007 109.872L325.804 114.97L334.268 117.032L340.972 114.766L346.486 109.989L349.284 113.952L352.242 113.609L350.455 116.199L356.369 122.815L361.855 121.184L363.471 118.989L368.691 119.683L377.604 121.145L383.891 116.399L387.679 111.595L385.983 104.762L386.932 100.871L389.902 98.7974L388.644 96.7465L388.749 91.3601L388.243 85.2376L381.37 82.3222L381.025 75.6147L384.369 69.6797L380.476 64.9484L385.029 63.8791L385.919 54.9923L383.395 47.0526L381.831 39.0598L390.307 35.7403L393.654 26.1542L388.417 21.4247L388.171 16.6331L392.178 12.3939Z" fill="#F9F9F9" fill-opacity="0.15" stroke="#171717" stroke-width="3.26" stroke-miterlimit="10"/>
<path d="M299.28 77.3237L296.215 77.4814L290.167 68.184L279.822 68.7164L273.114 69.0616L272.06 67.1949L268.37 66.4224L263.517 72.9181L257.05 72.2923L260.279 73.4218L261.969 75.4954L258.734 79.8408L257.325 83.231L258.092 86.9399L262.546 86.7107L265.377 91.3206L262.724 95.7784L265.814 99.8021L266.072 104.833L268.218 107.317L267.533 110.809L265.315 112.511L266.209 115.925L265.841 119.976L266.641 121.474L265.051 124.196L269.165 125.714L272.115 129.888L273.347 131.408L275.743 138.781L273.24 143.378L273.858 146.948L276.276 149.13L274.436 152.588L266.622 157.554L266.026 162.775L267.72 164.848L268.362 170.773L270.74 172.19L268.784 175.267L272.337 177.103L269.255 180.721L275.915 186.913L277.4 193.371L282.547 188.878L283.759 186.315L286.249 186.186L292.767 182.2L294.055 184.826L300.428 185.457L301.741 181.162L309.951 180.162L317.805 179.758L321.899 173.399L324.145 164.828L325.449 152.846L332.742 148.965L339.328 150.02L344.97 149.534L347.252 143.459L347.701 137.288L351.968 134.379L351.732 129.778L354.172 128.69L356.528 125.881L356.37 122.814L350.456 116.199L352.243 113.609L349.285 113.952L346.487 109.989L340.973 114.766L334.269 117.032L325.805 114.97L324.008 109.872L322.933 103.97L318.338 104.206L308.374 104.719L308.824 98.5473L304.724 97.223L303.883 92.0763L303.393 86.3349L299.28 77.3237Z" fill="#E9B21A" stroke="#171717" stroke-width="3.26" stroke-miterlimit="10"/>
</svg>
